<svg id="Layer_1" data-name="Layer 1" xmlns="http://www.w3.org/2000/svg" viewBox="0 0 221.05 247.59"><defs><style>.cls-1{fill:#231f20;}.cls-1,.cls-10,.cls-11,.cls-12,.cls-13,.cls-14,.cls-15,.cls-16,.cls-17,.cls-18,.cls-19,.cls-20,.cls-21,.cls-22,.cls-23,.cls-24,.cls-25,.cls-26,.cls-27,.cls-28,.cls-29,.cls-30{fill-rule:evenodd;}.cls-2{fill:#a46f34;}.cls-3{fill:#4e703c;}.cls-4{fill:#53a447;}.cls-5{fill:#965e31;}.cls-13,.cls-6{fill:#823e29;}.cls-7{fill:#a7aaac;}.cls-11,.cls-8{fill:#939598;}.cls-9{fill:#9a472f;}.cls-10{fill:#6d6f71;}.cls-12{fill:#522718;}.cls-14{fill:#693321;}.cls-15{fill:#be5630;}.cls-16{fill:#a14b30;}.cls-17{fill:#24201f;}.cls-18{fill:#e9cfa4;}.cls-19{fill:#5f2d1d;}.cls-20{fill:#de783e;}.cls-21{fill:#322319;}.cls-22{fill:#3c1a12;}.cls-23{fill:#5c261b;}.cls-24{fill:#4d1f15;}.cls-25{fill:#a96442;}.cls-26{fill:#ebe2b3;}.cls-27{fill:#ededc1;}.cls-28{fill:#eff3d0;}.cls-29{fill:#925936;}.cls-30{fill:#77492d;}</style></defs><title>africa_faces</title><path class="cls-1" d="M321,515.79c15.31-.21,35.5-1.74,42-6.81s2.25-8.41,2.25-8.41,54,.74,62-5.19-79.38-11.73-79.38-11.73l-29.81-14.13-42-25.89-30.77,6.69,34.8,13.09-3.61,41.16,30,.12,4.6,6.56-4.63,4.87Z" transform="translate(-206.72 -268.52)"/><path class="cls-2" d="M325.8,291.07a53.47,53.47,0,0,1-8.88,2.5c-2,.39-4.26,1.12-6.32.82a32.85,32.85,0,0,1-5.12,2.88,28.11,28.11,0,0,1-8.34,2.25c-2.62.29-5.36.81-8,1.06-.59.56-1.19,1.1-1.82,1.6-2.17,1.74-4.82,3.1-6.62,5.25l-.16.21-.05.09-.24.31c-3.41,5,4.75,8.61,7,12.48,2.62,4.41,2.77,9.85,3.08,14.83.87,13.89,1.55,27.79,1.42,41.71s-1.37,27.78-1.29,41.69c0,6.66-.07,13.91,1.63,20.4a16.83,16.83,0,0,0,5.41,8.26c1.19,1.07,2.43,1.92,3.55,2.91H245.29a18.25,18.25,0,0,0,2-3.94,30.55,30.55,0,0,0,1.36-8.55c.25-5.68-.33-11.34-.38-17-.1-13.39.84-26.8.92-40.2s-.8-26.89,0-40.33c.36-5.8.64-12.13,2.38-17.71a14.65,14.65,0,0,1,3.1-5.64c1.74-1.93,4.22-3.26,5.6-5.52,2.15-3.51.31-6.46-2.51-8.81-3.6,1.1-8.39-1.41-12.09-.45-3.51.92-6.26,3.07-9.76,2.28l-.07.06a.65.65,0,0,1-.81.5,2.36,2.36,0,0,1-.7-.31,17.6,17.6,0,0,1-3.17-.73c-.41-.11-.8-.22-1.18-.36a23.94,23.94,0,0,1-6-2.06c-.6-.3-1.17-.63-1.74-1l-.07,0c-3.61,1.37-8.09-.57-10.73-3a.34.34,0,0,1,.41-.54,13.76,13.76,0,0,0,4.87,2,12.53,12.53,0,0,0,3.5.11,21.83,21.83,0,0,1-5.3-6c-.2-.33.28-.72.54-.41A25.29,25.29,0,0,0,225.2,300a25.93,25.93,0,0,0,6.69,1.47c-.56-.81-1.13-1.62-1.66-2.45s-2.88-3.38-1.42-4.37a.32.32,0,0,1,.34,0,.43.43,0,0,1,.25.34c1,.38,2.8,3.23,3.25,3.86.63.87,1.67,2,2.41,3.08l.19,0a58.29,58.29,0,0,0,8-1.71l-.08-.08a34.21,34.21,0,0,1-2.44-2.8c-.38-.49.13-1.39.73-.95,1,.75,1.93,1.51,2.86,2.35.35.32.81.65,1.21,1,.33-.05.66-.11,1-.14a2.88,2.88,0,0,1,.4-.09,16.15,16.15,0,0,1,5.37.23c.55.09,1.11.14,1.66.19-1.22-.73-2.39-1.35-3.33-1.88a17.23,17.23,0,0,1-6.28-5.3c-2.42.14-5.39-.94-7.17-1.7a17,17,0,0,1-7.53-6.06c-.23-.31.24-.59.49-.38a25.48,25.48,0,0,0,8.9,4.87,17,17,0,0,0,3.57.44c-1.45-2.76-2-6-.74-8.3a.23.23,0,0,1,.42.06c1,2.52,1.2,5.14,2.75,7.49a13.46,13.46,0,0,0,1,1.33,3.79,3.79,0,0,1,.76.36.58.58,0,0,1,.27.73c.25.25.52.5.79.75a8.61,8.61,0,0,1-.17-.92,6,6,0,0,1,.95-4.63c.19-.24.51,0,.53.22a25.35,25.35,0,0,0,.46,4.26c.3,1.11,1.19,2.08,1.34,3.2.66.39,1.32.77,1.95,1.16s1.07.66,1.62,1a23.86,23.86,0,0,1,.21-5.64c.16-1.27.3-2.55.41-3.82a1.2,1.2,0,0,1-.21-1.87l.37-.38a56.61,56.61,0,0,0-.14-8.83c0-.07.09-.07.11,0a45.32,45.32,0,0,1,1.74,7,57.71,57.71,0,0,0,7.08-9.27.26.26,0,0,1,.47.19,31.75,31.75,0,0,1-7.2,12.34c0,.71.07,1.42.06,2.14,0,1.92-.24,3.85-.17,5.78a11,11,0,0,0,.2,1.68c1.5.25,3,.77,4.41,1.14a18.11,18.11,0,0,1,6.32,2.52c-.23-1.67-.54-3.34-.93-5-1-4.28-4.3-10-2.15-14.36a.47.47,0,0,1,.84.11c.58,4,2,7.66,3.24,11.44a48.63,48.63,0,0,1,4-6.78,58.47,58.47,0,0,0,6.09-13.16.32.32,0,0,1,.61.17c-1.23,8.77-5.87,15.82-8.85,24a1.45,1.45,0,0,1-.53.68c0,.18.07.36.11.54.3,1.67.6,3.49.8,5.37l.19.21c2.56-1.58,5.52-2.26,8.29-3.4,2.82-5,5.11-10.14,5.38-16,0-.28.46-.37.51-.07a29.7,29.7,0,0,1-.82,13.28,36.11,36.11,0,0,0,11.49-14.47c.09-.2.3-.17.43,0q.17-.81.3-1.62c.06-.38.59-.24.62.08a20.65,20.65,0,0,1-.55,6.81c2.48-1.12,5-2.11,7.55-3.1.45-.18.67.5.32.73-2.92,1.91-5.79,3.78-8.88,5.42a26.9,26.9,0,0,1-3.32,5.87c-.37.51-.76,1-1.15,1.48.82-.19,1.64-.35,2.41-.52a78.85,78.85,0,0,0,8.3-2.12,47.16,47.16,0,0,0,16.28-9.25c.2-.19.58.06.4.31a35.52,35.52,0,0,1-5.28,5.73c.9-.06,1.8-.1,2.67-.21,3-.39,6-.93,9.06-1.37A.4.4,0,0,1,325.8,291.07Z" transform="translate(-206.72 -268.52)"/><path class="cls-3" d="M207,296.49C208.57,298,211,300,213.2,299c1.43-.63,1.3-2.94,0-3.61a9.78,9.78,0,0,0-5.39-.8,1.1,1.1,0,0,0-.77,1.86Z" transform="translate(-206.72 -268.52)"/><path class="cls-4" d="M209.77,293.19c0-.16,0,.28,0,.25a1.24,1.24,0,0,0,.15.53,1.69,1.69,0,0,0,.37.58c.22.24.46.47.7.7a1.19,1.19,0,0,0,1.66,0,1.2,1.2,0,0,0,0-1.67c-.23-.23-.46-.47-.7-.69a1.88,1.88,0,0,0-.53-.35,2.28,2.28,0,0,0-.44-.15.71.71,0,0,0-.29,0c-.15,0-.19,0-.1,0a.79.79,0,0,0-.78.77Z" transform="translate(-206.72 -268.52)"/><path class="cls-3" d="M211.76,289.83a10.32,10.32,0,0,0,1.54.9c.54.23,1.08.44,1.62.65a1.24,1.24,0,0,0,1.52-.86,1.27,1.27,0,0,0-.86-1.52c-.51-.18-1-.4-1.53-.55a13.92,13.92,0,0,0-1.59-.29.92.92,0,0,0-.7,1.67Z" transform="translate(-206.72 -268.52)"/><path class="cls-3" d="M215.05,294.72a3.82,3.82,0,0,0,.83.6c.24.09.48.16.72.23a7.45,7.45,0,0,0,1.87.3,1.43,1.43,0,0,0,.38-2.8,7.44,7.44,0,0,0-1.88-.22c-.26,0-.5,0-.75,0a4.08,4.08,0,0,0-1,.35.84.84,0,0,0-.19,1.52Z" transform="translate(-206.72 -268.52)"/><path class="cls-4" d="M220.41,293.16a2.53,2.53,0,0,0,.55,1.89,2.61,2.61,0,0,0,2,1.26,1.1,1.1,0,0,0,.77-1.87,2.27,2.27,0,0,0-.61-.5,1.31,1.31,0,0,1-.4-.32,2.79,2.79,0,0,1-.35-.42c-.12-.17-.28-.3-.41-.46a.84.84,0,0,0-1.55.42Z" transform="translate(-206.72 -268.52)"/><path class="cls-4" d="M224.53,295.31a13.12,13.12,0,0,0,4.85,1.88,1.34,1.34,0,1,0,.36-2.64c-1.63-.14-3.2-.56-4.83-.63-.81,0-.92,1-.38,1.39Z" transform="translate(-206.72 -268.52)"/><path class="cls-4" d="M223.31,292.36l.42.79a3.64,3.64,0,0,0,.68.88,1.26,1.26,0,1,0,1.79-1.78,6.73,6.73,0,0,0-1.64-1.15.92.92,0,0,0-1.25,1.26Z" transform="translate(-206.72 -268.52)"/><path class="cls-3" d="M217.69,291.37c-.09.46-.18.92-.23,1.4a.87.87,0,0,0,1.73,0c-.05-.48-.14-.94-.23-1.4a.66.66,0,0,0-1.27,0Z" transform="translate(-206.72 -268.52)"/><path class="cls-4" d="M213.55,289.09a4.45,4.45,0,0,0-.35,3.66,1.22,1.22,0,0,0,2.08,0,4.49,4.49,0,0,0-.34-3.66.81.81,0,0,0-1.39,0Z" transform="translate(-206.72 -268.52)"/><path class="cls-4" d="M212.49,289.6c-.24.34-.49.68-.72,1a4.78,4.78,0,0,0-.52,1.28,1.12,1.12,0,0,0,2.16.59,4.48,4.48,0,0,0,.25-1.36c0-.41,0-.82,0-1.23a.61.61,0,0,0-1.13-.31Z" transform="translate(-206.72 -268.52)"/><path class="cls-4" d="M220.37,289.57l1.88.09a1,1,0,0,0,0-2l-1.88.08a.89.89,0,0,0,0,1.78Z" transform="translate(-206.72 -268.52)"/><path class="cls-4" d="M221.19,286.53a12.65,12.65,0,0,0,2.42,1,.93.93,0,0,0,.71-1.7,12.88,12.88,0,0,0-2.54-.69c-.8-.17-1.44,1-.59,1.41Z" transform="translate(-206.72 -268.52)"/><path class="cls-3" d="M221.13,289a5.31,5.31,0,0,0,1.77,7.18,1.54,1.54,0,0,0,1.82-.24,1.65,1.65,0,0,0,.09-2.46,1,1,0,0,0-1.05-.27,5.87,5.87,0,0,0-.86.37l1.82.24a5.46,5.46,0,0,1-1.51-1.9,7.52,7.52,0,0,1-.47-2.48.87.87,0,0,0-1.61-.44Z" transform="translate(-206.72 -268.52)"/><path class="cls-3" d="M222,293.15a4.28,4.28,0,0,0,2.41.79c.8,0,1.88-.2,2.26-1a.86.86,0,0,0-.51-1.24c-.58-.22-1.16.05-1.75.08a5.66,5.66,0,0,1-1.79-.09.81.81,0,0,0-.62,1.47Z" transform="translate(-206.72 -268.52)"/><path class="cls-3" d="M226.23,291c-.07.29-.26.5-.35.78s-.1.42-.15.62a6.47,6.47,0,0,0-.15,1.64,1.32,1.32,0,0,0,2.64,0,6.47,6.47,0,0,0-.15-1.64c0-.2-.08-.42-.15-.62s-.28-.49-.36-.78a.69.69,0,0,0-1.33,0Z" transform="translate(-206.72 -268.52)"/><path class="cls-3" d="M227.54,292c-.88,2.05,2.37,3.4,3.74,2a1.17,1.17,0,0,0-.81-2,2.8,2.8,0,0,0-.57,0c-.09,0-.18,0,0,0,0,0-.38,0-.17,0l-.31-.08a3.23,3.23,0,0,1-.43-.12c-.13-.05-.25-.14-.39-.18l-.25,0c.09,0,.08,0,0,0a.67.67,0,0,0-.75.3Z" transform="translate(-206.72 -268.52)"/><path class="cls-3" d="M229.82,293.62c.7,1.28,3,1.16,3.22-.41a1,1,0,0,0-.45-1.11,1,1,0,0,0-1.19.15c-.16.15.19-.11,0,0,.26-.14,0,0-.15.07l-.25.19.12-.09-.09,0c-.07,0,0,0,.1,0s-.49.07-.12,0c-.21,0,.2.05,0,0,.13,0,.09,0,0,0-.75-.51-1.57.47-1.18,1.18Z" transform="translate(-206.72 -268.52)"/><path class="cls-4" d="M224,281.35a3.48,3.48,0,0,0,1.65,3.1c1.18.67,3.22,1.11,3.89-.45a1.31,1.31,0,0,0-.19-1.53,2.09,2.09,0,0,0-1.27-.63,6.41,6.41,0,0,1-1-.09,3.84,3.84,0,0,1-1.63-.8c-.41-.59-1.57-.47-1.49.4Z" transform="translate(-206.72 -268.52)"/><path class="cls-4" d="M229.09,279a4.5,4.5,0,0,0-2.53,4.53,1.46,1.46,0,0,0,2.86.38c.2-.68.28-1.48.42-2.18a6.53,6.53,0,0,0,0-2.29.62.62,0,0,0-.77-.44Z" transform="translate(-206.72 -268.52)"/><path class="cls-4" d="M231.06,281.79a3.82,3.82,0,0,0-.53,3.75c.43,1.48,2.81.75,2.25-.62-.38-.93-.48-2-.86-2.9a.52.52,0,0,0-.86-.23Z" transform="translate(-206.72 -268.52)"/><path class="cls-4" d="M229.05,288a7.18,7.18,0,0,0,3,1.37,1.14,1.14,0,0,0,1-1.7,2.87,2.87,0,0,0-2-1.08,2.94,2.94,0,0,0-2,.37.6.6,0,0,0,0,1Z" transform="translate(-206.72 -268.52)"/><path class="cls-4" d="M239.69,279.41a5.68,5.68,0,0,0,1.19,1.91,3.66,3.66,0,0,0,2,1.32,1.34,1.34,0,0,0,1.43-.58,1.28,1.28,0,0,0-.2-1.53,7.92,7.92,0,0,0-1.57-1,13.41,13.41,0,0,1-1.27-1c-.63-.54-1.91-.05-1.55.9Z" transform="translate(-206.72 -268.52)"/><path class="cls-4" d="M243.94,277.62a7,7,0,0,0-2.1,1.89,3.42,3.42,0,0,0-.44,3.07,1.28,1.28,0,0,0,2,.26,6.26,6.26,0,0,0,.88-2.11c.12-.3.23-.6.36-.9s.08-.4.16-.59c-.14.36.2-.13.24-.18.66-.72-.23-2.09-1.11-1.44Z" transform="translate(-206.72 -268.52)"/><path class="cls-4" d="M239.14,284.45c.09.43.16.88.27,1.3a8.75,8.75,0,0,0,.62,1.36c.7,1.4,3,.12,2.12-1.24a7.31,7.31,0,0,0-.82-1.23c-.3-.32-.63-.61-.94-.92a.76.76,0,0,0-1.25.73Z" transform="translate(-206.72 -268.52)"/><path class="cls-3" d="M236.2,283a5.35,5.35,0,0,0,1.89,2.72,7,7,0,0,0,3.17,1.81c1.24.2,2.44-1.27,1.34-2.29a14.47,14.47,0,0,0-2.82-1.72,9.36,9.36,0,0,0-2.8-1.29.64.64,0,0,0-.78.77Z" transform="translate(-206.72 -268.52)"/><path class="cls-3" d="M243.22,281a13.14,13.14,0,0,0-2.54,4l2.69-.35c-.33-.47-.83-1.19-1.5-1.1s-1,.91-1.19,1.45a1.46,1.46,0,0,0,.85,1.74,1.49,1.49,0,0,0,1.84-.6A12.4,12.4,0,0,0,245,282c.24-1-1-1.87-1.77-1Z" transform="translate(-206.72 -268.52)"/><path class="cls-3" d="M237.68,279.72l-.11.1a1.13,1.13,0,0,0-.3,1.13,4.5,4.5,0,0,0,1.17,1.8,3.84,3.84,0,0,0,2.43.78,1.58,1.58,0,0,0,0-3.16,1.63,1.63,0,0,1-.58-.12l-.13-.05a1.12,1.12,0,0,0-.35-.12l-.3-.09c-.18-.08-.45-.32-.67-.42a1.15,1.15,0,0,0-1.16.15Z" transform="translate(-206.72 -268.52)"/><path class="cls-4" d="M234.13,279.47a3.4,3.4,0,0,0,1.53,1.32,4.62,4.62,0,0,0,2,.77c1,.09,1.4-1.27.8-1.94a4.75,4.75,0,0,0-1.88-1.07,3,3,0,0,0-1.95-.34.87.87,0,0,0-.52,1.26Z" transform="translate(-206.72 -268.52)"/><path class="cls-4" d="M243.5,274.75a3.21,3.21,0,0,0-2.4,2.4,1.64,1.64,0,0,0,3.17.87c-.15.4.15-.47.17-.58s.07-.29.12-.44a6.84,6.84,0,0,0,.24-.94,1.08,1.08,0,0,0-1.3-1.31Z" transform="translate(-206.72 -268.52)"/><path class="cls-3" d="M246.51,277.71a9.46,9.46,0,0,0-1.09.79,3.89,3.89,0,0,0-.92,1.38,1.41,1.41,0,0,0,.65,1.6,1.43,1.43,0,0,0,1.72-.22,4.5,4.5,0,0,0,1-2.48,1,1,0,0,0-.34-1,.94.94,0,0,0-1.05-.07Z" transform="translate(-206.72 -268.52)"/><path class="cls-3" d="M249,279.3a3.29,3.29,0,0,1-.21.42l.53-.41c.12,0,.08.06-.11.06a.85.85,0,0,0-.48.15,2,2,0,0,0-.47.44,2,2,0,0,1-.52.4c-.18.13-.34.29-.52.42.21-.15-.22.11-.21.11-.28.17.1,0-.22.1a3.31,3.31,0,0,0-.84.51,1.55,1.55,0,0,0-.32,1.72,1.63,1.63,0,0,0,1.44,1,3.77,3.77,0,0,0,2.82-1.5,4.37,4.37,0,0,0,.64-1.32,1.76,1.76,0,0,0-.2-1.65l.13.45a3.85,3.85,0,0,0,0-.48c-.05-.68-1.11-1.17-1.44-.39Z" transform="translate(-206.72 -268.52)"/><path class="cls-3" d="M233.37,284.63a4.83,4.83,0,0,0,3.41,1.05,1.16,1.16,0,0,0,.5-1.92,4.84,4.84,0,0,0-3.46-.79.9.9,0,0,0-.45,1.66Z" transform="translate(-206.72 -268.52)"/><path class="cls-4" d="M236.37,294a4,4,0,0,0,2.38,3.32,3.88,3.88,0,0,0,2.19.43,1.91,1.91,0,0,0,1.21-.69c-.32.3,0,.07.13-.11a1.47,1.47,0,0,0,.23-.49.93.93,0,0,0-.23-.87,1.76,1.76,0,0,0-1.07-.41l.82.34c-.66-.71-1.56-.38-2.38-.64a3.45,3.45,0,0,1-1.68-1.31c-.43-.64-1.69-.48-1.6.43Z" transform="translate(-206.72 -268.52)"/><path class="cls-3" d="M240.45,292.79c-.34.55.23-.23-.26.3a1.87,1.87,0,0,0-.24.38,3.77,3.77,0,0,0-.38,1.25,3.21,3.21,0,0,0,.78,2.61,1.35,1.35,0,0,0,2.26-.93,6,6,0,0,0-.46-1.86,3.63,3.63,0,0,0-.67-1.54l.23.56c0-.14,0-.29,0-.43a.67.67,0,0,0-1.23-.34Z" transform="translate(-206.72 -268.52)"/><path class="cls-3" d="M236.1,297.54c1.22.41,2.84,1,3.94,0a1,1,0,0,0,0-1.46c-1.1-.93-2.72-.38-3.94,0a.72.72,0,0,0,0,1.38Z" transform="translate(-206.72 -268.52)"/><path class="cls-3" d="M244.36,294.86l-.1-.07a.94.94,0,0,0-1.14.15l-.51.55a1.34,1.34,0,0,0-.42.94.79.79,0,0,0,.79.79,1.36,1.36,0,0,0,.93-.42l.55-.52a1,1,0,0,0,.14-1.15.78.78,0,0,0-.24-.27Z" transform="translate(-206.72 -268.52)"/><path class="cls-3" d="M240.8,294.22l0-.22-.24.41a1.5,1.5,0,0,0,.4-.74,4.18,4.18,0,0,0,0-.5,1.07,1.07,0,0,0-2.13,0,4.18,4.18,0,0,0,0,.5,1.5,1.5,0,0,0,.4.74l-.24-.41,0,.22a.87.87,0,0,0,1.67,0Z" transform="translate(-206.72 -268.52)"/><path class="cls-4" d="M234.62,291.42l0,0a.9.9,0,0,0-.43.75,3.11,3.11,0,0,0,.47,1.6,1.81,1.81,0,0,0,1.57.95c.48-.05,1-.49.79-1a2.13,2.13,0,0,0-.52-.8,2.81,2.81,0,0,1-.4-.51c-.14-.2-.17-.43-.29-.64a.87.87,0,0,0-1.15-.33Z" transform="translate(-206.72 -268.52)"/><path class="cls-3" d="M234.22,297.76a4.28,4.28,0,0,1,.8.11c.31,0,.61,0,.92,0,.6.09,1.16.44,1.77.23a.89.89,0,0,0,.61-1.06c-.26-1-1.36-1.22-2.24-1.26a2.84,2.84,0,0,0-1.36.19,3.72,3.72,0,0,0-.91.77.58.58,0,0,0,.41,1Z" transform="translate(-206.72 -268.52)"/><path class="cls-4" d="M252.31,273.14a3.11,3.11,0,0,0,0,.43l.55-.72a1.32,1.32,0,0,0-.54.33,1.2,1.2,0,0,0-.3,1.13,5.45,5.45,0,0,0,2.88,3.71,1.35,1.35,0,0,0,1.62-.21,2.76,2.76,0,0,0,.56-.87,3.69,3.69,0,0,0,.07-.87.77.77,0,0,0-.78-.77,3.56,3.56,0,0,0-.86.06,2.81,2.81,0,0,0-.88.56l1.3-.35a2.78,2.78,0,0,1-1.41-1.27c-.37-.64-.52-1.51-1.46-1.48l.73.55a2.71,2.71,0,0,1-.09-.41c-.16-.83-1.28-.53-1.36.18Z" transform="translate(-206.72 -268.52)"/><path class="cls-4" d="M256,272.81a4,4,0,0,0-.9,1.68,8.81,8.81,0,0,0-.63,2.09,1.12,1.12,0,0,0,1.9.79,4.5,4.5,0,0,0,.78-2.31,2.94,2.94,0,0,0-.34-2.15.52.52,0,0,0-.81-.1Z" transform="translate(-206.72 -268.52)"/><path class="cls-4" d="M251.75,277.27a3,3,0,0,0,.73,2,3.06,3.06,0,0,0,1.76,1.12,1.18,1.18,0,0,0,1.35-.67,1.14,1.14,0,0,0-.47-1.43,3.14,3.14,0,0,0-.31-.18l-.29-.12c.08,0,.09,0,0,0a2.45,2.45,0,0,1-.42-.26,5.7,5.7,0,0,1-.86-.84.85.85,0,0,0-.91-.37.8.8,0,0,0-.59.77Z" transform="translate(-206.72 -268.52)"/><path class="cls-3" d="M252.76,279.48a1.76,1.76,0,0,0,1.65,1.39.79.79,0,0,0,.75-.57.68.68,0,0,0-.08-.6,1,1,0,0,0-.61-.39l-.27-.13A.64.64,0,0,1,254,279a.67.67,0,0,0-.86-.28.7.7,0,0,0-.4.81Z" transform="translate(-206.72 -268.52)"/><path class="cls-3" d="M257.47,278.05c-.5.63-1.06,1.15-1.55,1.8a16.5,16.5,0,0,1-1.67,1.88c-1,1,.61,2.52,1.5,1.5a19.57,19.57,0,0,0,1.66-2.18,8.33,8.33,0,0,0,1-2.46c.13-.5-.56-1-.92-.54Z" transform="translate(-206.72 -268.52)"/><path class="cls-3" d="M249.87,281.2a21.33,21.33,0,0,0,2.83.94,1.23,1.23,0,0,0,.65-2.38,24.85,24.85,0,0,0-3.2-.65,1.06,1.06,0,0,0-1,.93,1.08,1.08,0,0,0,.76,1.16Z" transform="translate(-206.72 -268.52)"/><path class="cls-3" d="M247.68,283.78c1.54.89,4.39,1.51,5.18-.62a.69.69,0,0,0-.46-.82c-1.3-.52-2.73.25-4.1,0a.81.81,0,0,0-.62,1.47Z" transform="translate(-206.72 -268.52)"/><path class="cls-3" d="M256.73,277.29a7.09,7.09,0,0,0,.44,3,8.15,8.15,0,0,0,1.68,2.63,1.51,1.51,0,0,0,2.11,0,2.19,2.19,0,0,0,.39-2.66,1.1,1.1,0,0,0-1.71-.22,4.12,4.12,0,0,1-.79.77H261a11.16,11.16,0,0,1-1.44-1.7,13,13,0,0,1-1.21-2c-.31-.79-1.58-.76-1.58.21Z" transform="translate(-206.72 -268.52)"/><path class="cls-3" d="M258.8,277.45a4,4,0,0,0,0,1.57,3.12,3.12,0,0,0,.87,1.37,1,1,0,0,0,1.38,0,1,1,0,0,0,0-1.39,3.61,3.61,0,0,1-.78-1.55c-.16-.71-1.38-.76-1.5,0Z" transform="translate(-206.72 -268.52)"/><path class="cls-4" d="M260.58,273.6a3.18,3.18,0,0,0-.3,2.45c.29.84.84,1.86,1.86,1.84a1,1,0,0,0,.95-.95c0-.67-.47-1-.71-1.53a3.28,3.28,0,0,1-.31-1.4.8.8,0,0,0-1.49-.41Z" transform="translate(-206.72 -268.52)"/><path class="cls-4" d="M264.2,271.28a14.32,14.32,0,0,0-2,3.31,1.27,1.27,0,0,0,.45,1.69,1.23,1.23,0,0,0,1.68-.44,14.53,14.53,0,0,0,1.42-3.67c.14-.82-.86-1.63-1.53-.89Z" transform="translate(-206.72 -268.52)"/><path class="cls-4" d="M262.43,270.13a3.25,3.25,0,0,0,1,3.25c.9.88,2.68,1.56,3.72.65a1.13,1.13,0,0,0,0-1.59c-.6-.55-1.47-.49-2.15-.94a4.69,4.69,0,0,1-1.43-1.51.61.61,0,0,0-1.1.14Z" transform="translate(-206.72 -268.52)"/><path class="cls-3" d="M267.51,272.15c-1.13,1.12-2.83,1.59-3.88,2.78a1,1,0,0,0,.7,1.7c2.09.06,3.51-1.93,4.4-3.54a.78.78,0,0,0-1.22-.94Z" transform="translate(-206.72 -268.52)"/><path class="cls-4" d="M259.73,278.31a6,6,0,0,0,3,2.08,1.22,1.22,0,0,0,1.48-.83,1.24,1.24,0,0,0-.84-1.48,14.08,14.08,0,0,1-2.54-1.21.91.91,0,0,0-1.18.23.94.94,0,0,0,.07,1.21Z" transform="translate(-206.72 -268.52)"/><path class="cls-3" d="M261.33,279.57c.86,1,2.58,2.37,4,1.86a.94.94,0,0,0,.41-1.54,5.37,5.37,0,0,0-1.61-.79,4.28,4.28,0,0,1-1.36-1c-.93-.92-2.27.46-1.42,1.42Z" transform="translate(-206.72 -268.52)"/><path class="cls-3" d="M263.22,277.49a5.28,5.28,0,0,0,3.64,3.55,1.09,1.09,0,0,0,1.06-.28,1.06,1.06,0,0,0,.17-1.32c-.3-.51-.91-.54-1.39-.78a5.18,5.18,0,0,1-2-1.79c-.47-.74-1.75-.28-1.47.62Z" transform="translate(-206.72 -268.52)"/><path class="cls-3" d="M262.25,282.1a10.93,10.93,0,0,0,.79,1.21,9.57,9.57,0,0,0,1.2,1,10,10,0,0,0,2.66,1.7c1.17.39,2.27-1.35,1.25-2.16a20.2,20.2,0,0,0-2.61-1.48c-.41-.23-.79-.52-1.21-.72s-.92-.29-1.36-.47-1,.49-.72.93Z" transform="translate(-206.72 -268.52)"/><path class="cls-4" d="M267.27,280.44c-.73,1.33-2.06,3-1.73,4.56a1.1,1.1,0,0,0,1.61.65c1.32-1,1.4-3,1.74-4.53a.89.89,0,0,0-1.62-.68Z" transform="translate(-206.72 -268.52)"/><path class="cls-4" d="M265.55,286.11a3.1,3.1,0,0,0,3.52,1.89c1.26-.24.73-2.31-.53-1.94a1.2,1.2,0,0,1-1.41-.62c-.45-.84-2-.25-1.58.67Z" transform="translate(-206.72 -268.52)"/><path class="cls-4" d="M267.23,278c.61.44.81,1.27,1.25,1.84a3.4,3.4,0,0,0,1.79,1.25c1.48.43,3.19-.5,2.44-2.18a.77.77,0,0,0-.88-.36c-.18.05-.14.06.11,0l-.34-.05a5.1,5.1,0,0,1-.68.13,1.12,1.12,0,0,1-.68-.4,5.59,5.59,0,0,0-2.43-1.61.75.75,0,0,0-.58,1.36Z" transform="translate(-206.72 -268.52)"/><path class="cls-3" d="M270.77,276.5a6.27,6.27,0,0,0-.94,2,3.67,3.67,0,0,0-.26,2.25,1,1,0,0,0,1.63.43A3.71,3.71,0,0,0,272,279a6.64,6.64,0,0,0,0-2.31c-.1-.61-.91-.57-1.21-.15Z" transform="translate(-206.72 -268.52)"/><path class="cls-4" d="M271.08,275a2.82,2.82,0,0,0,.4,2.29,5.22,5.22,0,0,0,1.66,1.71c1.16.77,2.31-1.17,1.1-1.88a5.52,5.52,0,0,1-1.8-2.3.75.75,0,0,0-1.36.18Z" transform="translate(-206.72 -268.52)"/><path class="cls-4" d="M273.57,274.41a5.21,5.21,0,0,0-.79,3.72,1.07,1.07,0,0,0,.77.77,1.09,1.09,0,0,0,.85-.11,1.06,1.06,0,0,0,.54-1,11.1,11.1,0,0,1-.05-2.88.73.73,0,0,0-1.32-.55Z" transform="translate(-206.72 -268.52)"/><path class="cls-4" d="M275.73,273.88a1.54,1.54,0,0,1-.09.8,9.63,9.63,0,0,1-.21,1.07c-.25.68-.92,1.13-.84,1.93a1.21,1.21,0,0,0,.87,1.14c1.48.23,2.34-1.16,2.64-2.45a3.58,3.58,0,0,0-.93-3.32c-.6-.74-1.58.08-1.44.83Z" transform="translate(-206.72 -268.52)"/><path class="cls-3" d="M271.54,279.17a6.32,6.32,0,0,0,3.73,1.62,1.28,1.28,0,0,0,1.27-1.26,1.29,1.29,0,0,0-1.27-1.26,7.85,7.85,0,0,1-2.62-.54.93.93,0,0,0-1.18.24.9.9,0,0,0,.07,1.2Z" transform="translate(-206.72 -268.52)"/><path class="cls-3" d="M272.69,279a4.24,4.24,0,0,0-1.15,2.45,3.07,3.07,0,0,0,1.22,2.75,1.43,1.43,0,0,0,2.12-1.22c0-.57-.3-1-.41-1.53a3.23,3.23,0,0,1-.1-1.48c.23-.91-1-1.78-1.68-1Z" transform="translate(-206.72 -268.52)"/><path class="cls-3" d="M268.74,281.77a4.33,4.33,0,0,0,1.18,2.8,4.48,4.48,0,0,0,2.92,1.47,1.46,1.46,0,0,0,.73-2.69,10.7,10.7,0,0,1-1.77-.78,5.41,5.41,0,0,1-1.29-1.28c-.47-.73-1.86-.52-1.77.48Z" transform="translate(-206.72 -268.52)"/><path class="cls-3" d="M265.71,284.25a4.76,4.76,0,0,0,4.47,2.75c1.51-.07,1.52-2.43,0-2.36a3.51,3.51,0,0,1-3-1.23.83.83,0,0,0-1.44.84Z" transform="translate(-206.72 -268.52)"/><path class="cls-4" d="M255.5,286.42a3.19,3.19,0,0,0,1.68,3.8,3.53,3.53,0,0,0,2.18.12,2.31,2.31,0,0,0,1.15-.64,1.62,1.62,0,0,0,.33-1.34.78.78,0,0,0-.77-.78c.23.08.23.07,0,0a.66.66,0,0,0-.33-.09,1.64,1.64,0,0,0-.73.06,1.9,1.9,0,0,1-.73.2,1.23,1.23,0,0,1-1.17-1.1.83.83,0,0,0-1.63-.22Z" transform="translate(-206.72 -268.52)"/><path class="cls-3" d="M259.67,284.32a4.44,4.44,0,0,0-1.09,2.41,4.36,4.36,0,0,0,.62,2.64c.77,1.2,2.94.46,2.42-1a5.28,5.28,0,0,1-.37-3.11c.22-.84-1-1.71-1.58-.92Z" transform="translate(-206.72 -268.52)"/><path class="cls-3" d="M260.66,286.65a4.46,4.46,0,0,1-.53,2.16,1.12,1.12,0,0,0,.66,1.35,1.17,1.17,0,0,0,1.44-.47,3.52,3.52,0,0,0,.23-3.28.92.92,0,0,0-1-.66.9.9,0,0,0-.79.9Z" transform="translate(-206.72 -268.52)"/><path class="cls-3" d="M251.54,289.7a9,9,0,0,0,3.67.85,1.17,1.17,0,0,0,.31-2.29,9.07,9.07,0,0,0-3.74-.36.92.92,0,0,0-.24,1.8Z" transform="translate(-206.72 -268.52)"/><path class="cls-3" d="M245.51,287.33a5.38,5.38,0,0,0,1.18,2.13,8.3,8.3,0,0,0,1.86,1.48c1.37.8,2.63-1.36,1.25-2.13a9.45,9.45,0,0,1-2.65-2.43c-.62-.77-1.92.07-1.64.95Z" transform="translate(-206.72 -268.52)"/><path class="cls-4" d="M249.2,288.44a4.36,4.36,0,0,0,1.85,1,3.59,3.59,0,0,0,1,.13,1.26,1.26,0,0,0,.93-.52.56.56,0,0,0-.11-.86,1.94,1.94,0,0,0-.59-.3c-.24,0-.48,0-.72-.06a2.58,2.58,0,0,1-1.26-.54c-.79-.64-1.92.44-1.13,1.14Z" transform="translate(-206.72 -268.52)"/><path class="cls-3" d="M255.64,288a6,6,0,0,0,2.33.28c.71-.15.68-1.06.18-1.42a5.46,5.46,0,0,0-2-.58.89.89,0,0,0-.47,1.72Z" transform="translate(-206.72 -268.52)"/><path class="cls-4" d="M279.45,282.7c1,1.88,2.9,3.89,5.16,4,1.55.1,1.74-1.9.72-2.65-.67-.5-1.53-.73-2.25-1.17a11.57,11.57,0,0,1-2-1.47,1,1,0,0,0-1.63,1.25Z" transform="translate(-206.72 -268.52)"/><path class="cls-3" d="M285.35,280.58c-1.5,1.23-2.86,3.27-2.45,5.29.27,1.34,2,1,2.39,0,.27-.67.35-1.46.58-2.16a6.67,6.67,0,0,1,1-1.94c.71-1-.75-1.83-1.54-1.19Z" transform="translate(-206.72 -268.52)"/><path class="cls-3" d="M285.28,285.71a3.08,3.08,0,0,0,2.33.33c.8-.25,1.74-.79,1.74-1.75s-1-1-1.67-.83a10.34,10.34,0,0,1-2,.7c-.75.06-1.22,1.14-.42,1.55Z" transform="translate(-206.72 -268.52)"/><path class="cls-4" d="M289.37,283a12.53,12.53,0,0,0-3.05,3.6,1.34,1.34,0,0,0,2.32,1.35c.41-.54.71-1.18,1.1-1.75a14.7,14.7,0,0,1,1.25-1.58,1.15,1.15,0,0,0-1.62-1.62Z" transform="translate(-206.72 -268.52)"/><path class="cls-3" d="M285.9,287.62a2.62,2.62,0,0,0,4.27-.73,1.44,1.44,0,0,0-.5-1.93,1.41,1.41,0,0,0-1.92.51c-.14.22.09-.09,0,0s-.21.18-.07.08-.11.05-.15.08l-.29.22c.13-.09.15-.11.06-.05l-.2.11c-.2.1-.06.08-.05,0s-.2.05,0,0c0,0-.29,0-.16,0a1,1,0,0,0-1,1.63Z" transform="translate(-206.72 -268.52)"/><path class="cls-4" d="M285.73,281c-.08.41-.18.84-.22,1.26a8.46,8.46,0,0,0,.06,1.33,1.35,1.35,0,1,0,2.7,0,8.46,8.46,0,0,0,.06-1.33c0-.42-.14-.85-.22-1.26a1.24,1.24,0,0,0-2.38,0Z" transform="translate(-206.72 -268.52)"/><path class="cls-4" d="M281.82,278.92a3.58,3.58,0,0,0,1,2.19,4.31,4.31,0,0,0,2,1.29c1,.21,2-1.08,1.1-1.9-.42-.38-.93-.64-1.33-1a16.71,16.71,0,0,0-1.17-1.21c-.58-.48-1.66-.22-1.61.67Z" transform="translate(-206.72 -268.52)"/><path class="cls-3" d="M285.3,278.67a3.77,3.77,0,0,1-.4,1.17c-.22.4-.34.8-.53,1.21a.64.64,0,0,0,.87.87,2.56,2.56,0,0,0,1.27-1.32,5.57,5.57,0,0,0,.37-1.72c0-.89-1.42-1.11-1.58-.21Z" transform="translate(-206.72 -268.52)"/><path class="cls-4" d="M279.47,288.12a9.53,9.53,0,0,0,2.34,3.35,1.36,1.36,0,0,0,1.9,0,1.38,1.38,0,0,0,0-1.9,8.93,8.93,0,0,0-2.85-2.52c-.68-.33-1.69.23-1.39,1.07Z" transform="translate(-206.72 -268.52)"/><path class="cls-4" d="M278.68,288.2c-.09.16-.18.41-.23.48a1.18,1.18,0,0,0,0,1.19c.55,1.11,2.36,1.87,3.17.62a1.18,1.18,0,0,0-.41-1.58,1.26,1.26,0,0,0-.65-.19h-.15l.14,0-.11,0s.25.16.05,0,.21.2,0,0,.05.15,0,0a.88.88,0,0,0-.24-.33l-.24-.19c-.3-.13-.37-.16-.2-.08l.43.57c0-.1,0-.09,0,0v-.15a.86.86,0,0,0-1.6-.43Z" transform="translate(-206.72 -268.52)"/><path class="cls-4" d="M275.82,286.85c-.09-.25-.16-.53-.27-.77a2.14,2.14,0,0,0-.55-.65.6.6,0,0,0-1,.27,2.58,2.58,0,0,0-.08.83,4.39,4.39,0,0,0,.24.78.86.86,0,0,0,1.66-.46Z" transform="translate(-206.72 -268.52)"/><path class="cls-4" d="M272.5,284.85a10,10,0,0,0,3.81,4c1.48.8,3.56-.06,3.39-1.93a1.08,1.08,0,0,0-1.83-.76c.12,0,.1-.05-.08,0a1,1,0,0,1-.51-.2,10.65,10.65,0,0,1-1.27-.83,13.35,13.35,0,0,0-2.67-1.34c-.64-.26-1.12.57-.84,1.09Z" transform="translate(-206.72 -268.52)"/><path class="cls-3" d="M277.19,283.19a2.5,2.5,0,0,0-1,1.49,2.34,2.34,0,0,0,4.49,1.21,1,1,0,0,0-1.4-1.08c-.11.06-.12.07,0,0a1.66,1.66,0,0,0-.37.14c.11-.05.1-.05,0,0h0a3,3,0,0,0-.43.06c.14,0,.14,0,0,0,.13,0,.13,0,0,0s-.13,0,0,0l0,0,0,0,0,0a2.39,2.39,0,0,0-.15-.37c.06.18,0-.25,0-.13a.55.55,0,0,1,.07-.23c.33-.59-.36-1.4-1-1Z" transform="translate(-206.72 -268.52)"/><path class="cls-4" d="M276.89,281.58a8.75,8.75,0,0,0,3.28,1.85,1.34,1.34,0,0,0,1.63-.92,1.35,1.35,0,0,0-.93-1.62,8.16,8.16,0,0,0-3.35-.83.9.9,0,0,0-.63,1.52Z" transform="translate(-206.72 -268.52)"/><path class="cls-4" d="M279.14,279.21a5.92,5.92,0,0,0,1.32.79,2.79,2.79,0,0,0,2-.16,1.11,1.11,0,0,0,.5-1.23,1.14,1.14,0,0,0-1.05-.8,5.89,5.89,0,0,0-1.26,0,1.17,1.17,0,0,1-.84-.1.77.77,0,0,0-.94.46.83.83,0,0,0,.32,1Z" transform="translate(-206.72 -268.52)"/><path class="cls-4" d="M283.62,278.83l.74.31a.81.81,0,0,0,1.07-.28.79.79,0,0,0-.28-1.07l-.69-.4a.83.83,0,1,0-.84,1.44Z" transform="translate(-206.72 -268.52)"/><path class="cls-3" d="M289.61,279.19a2.89,2.89,0,0,0-3.29,3.84,1.25,1.25,0,0,0,1.4.57,1.31,1.31,0,0,0,.91-1.19c0-.13,0-.26,0-.39,0,.19,0,0,.05-.09l.09-.31c.11-.34-.1.14.07-.18a1,1,0,0,1,.75-.54.89.89,0,0,0,0-1.71Z" transform="translate(-206.72 -268.52)"/><path class="cls-4" d="M289.65,285.18l1.12-.35a1,1,0,0,0,.7-1.23,1,1,0,0,0-1.24-.7l-1.09.45a.95.95,0,0,0,.51,1.83Z" transform="translate(-206.72 -268.52)"/><path class="cls-4" d="M288.93,288.65a8.55,8.55,0,0,1,1.56-1,3.77,3.77,0,0,0,1.67-1.21,1.14,1.14,0,0,0-.67-1.65c-1.58-.36-3.17,1.24-4.1,2.34a1.09,1.09,0,0,0,1.54,1.54Z" transform="translate(-206.72 -268.52)"/><path class="cls-4" d="M293.7,285.9a1.49,1.49,0,0,0,1-1.79.91.91,0,0,0-.84-.64.88.88,0,0,0-.84.64c0,.1,0,.2,0,.3a.34.34,0,0,1,.05-.17c-.05.09,0,.08,0,0a.31.31,0,0,1,.15-.1.92.92,0,0,0,.49,1.77Z" transform="translate(-206.72 -268.52)"/><path class="cls-4" d="M294.13,278.78a1.56,1.56,0,0,0-1.72,2.45,14.18,14.18,0,0,0,1.53,1.57c.61.51,1.26,1.2,2.11,1.13a1.08,1.08,0,0,0,1.07-1.06,3.07,3.07,0,0,0-1.38-2.05,24.63,24.63,0,0,0-2-1.48l.57,1-.41.43c1.18.08,1.3-1.63.27-2Z" transform="translate(-206.72 -268.52)"/><path class="cls-4" d="M295.47,281a2.49,2.49,0,0,0,1.74,1,3.66,3.66,0,0,0,2.22-.27,1.4,1.4,0,0,0,0-2.39,3.74,3.74,0,0,0-2.22-.27,2.52,2.52,0,0,0-1.74,1,.93.93,0,0,0,0,1Z" transform="translate(-206.72 -268.52)"/><path class="cls-4" d="M299.24,277c-1,1.08-2.44,2.27-2.68,3.81-.13.89.8,2,1.73,1.33,1.4-1,1.83-2.76,2.39-4.3a.87.87,0,0,0-1.44-.84Z" transform="translate(-206.72 -268.52)"/><path class="cls-3" d="M299.65,282.55l1.56-1c.52-.32,1.12-.82,1.05-1.51a.65.65,0,0,0-.33-.57,1.69,1.69,0,0,0-1.86.45l-1.46,1.24c-.75.64.22,1.86,1,1.35Z" transform="translate(-206.72 -268.52)"/><path class="cls-4" d="M302.48,279.75c-1,.87-2.11,2.36-1.86,3.73a1.09,1.09,0,0,0,1.81.48,6.79,6.79,0,0,0,.73-1.48,4.82,4.82,0,0,1,.86-1.19,1.09,1.09,0,0,0-1.54-1.54Z" transform="translate(-206.72 -268.52)"/><path class="cls-4" d="M303.6,284.13c.34-.34.69-.67,1-1a8.51,8.51,0,0,0,1-1.17c.55-.75-.55-1.86-1.31-1.3a9.06,9.06,0,0,0-1.16,1l-1,1.06a1,1,0,0,0,1.43,1.42Z" transform="translate(-206.72 -268.52)"/><path class="cls-4" d="M300.69,285.67a4.19,4.19,0,0,0,1.41,2.26,3.35,3.35,0,0,0,2.91.67,1.16,1.16,0,0,0,0-2.21,10,10,0,0,1-1.47-.47,2.26,2.26,0,0,1-1.07-1c-.53-1-2-.3-1.78.75Z" transform="translate(-206.72 -268.52)"/><path class="cls-4" d="M305.76,285.07a3.84,3.84,0,0,0-1,3.31,1,1,0,0,0,1.94,0,9,9,0,0,0,.28-1.11,3.05,3.05,0,0,1,.48-.91c.7-1-.91-2.23-1.67-1.29Z" transform="translate(-206.72 -268.52)"/><path class="cls-3" d="M310.62,288.08c1.16-.12,2,.71,3.09,1.06a1.51,1.51,0,0,0,1.68-.68,1.55,1.55,0,0,0-.23-1.8c-1.25-1.55-3.47-1.13-5-.4a1,1,0,0,0,.49,1.82Z" transform="translate(-206.72 -268.52)"/><path class="cls-4" d="M316.4,285.79c.42.09.83.2,1.25.28a1.79,1.79,0,0,0,1.6-.41,1,1,0,0,0,.14-1.11c-.42-.9-1.5-.93-2.35-1.09a1.24,1.24,0,0,0-1.48.84,1.22,1.22,0,0,0,.84,1.49Z" transform="translate(-206.72 -268.52)"/><path class="cls-4" d="M318.7,282.86l-1.87,2.51A4.1,4.1,0,0,0,315.6,288a.84.84,0,0,0,1.06.8c1-.32,1.51-1.21,2.07-2.06s1.2-1.84,1.81-2.75c.76-1.17-1-2.15-1.84-1.08Z" transform="translate(-206.72 -268.52)"/><path class="cls-4" d="M316.91,288.12c1.27.88,3.51,1.26,4.61-.07a1.26,1.26,0,0,0-.88-2.13c-.82,0-1.7.48-2.51.12a1.21,1.21,0,0,0-1.22,2.08Z" transform="translate(-206.72 -268.52)"/><path class="cls-3" d="M315.74,281.88c-.53,1.33-1.36,3.9-.08,5a1,1,0,0,0,1.53-.2,3.26,3.26,0,0,0,.22-2.12,8.77,8.77,0,0,1,.1-2.23.92.92,0,0,0-1.77-.49Z" transform="translate(-206.72 -268.52)"/><path class="cls-4" d="M312.14,282.17c1.4.85,3.52,2.68,5.2,1.85a1.18,1.18,0,0,0,.54-1.33c-.27-1-1.21-1.36-2.12-1.73s-1.83-.61-2.74-.89a1.15,1.15,0,0,0-.88,2.1Z" transform="translate(-206.72 -268.52)"/><path class="cls-4" d="M316.64,280.63c.27.46.44,1,.71,1.41a11.27,11.27,0,0,0,1.11,1.39,1.49,1.49,0,0,0,2.11-2.11,10.62,10.62,0,0,0-1-1.09c-.38-.33-.84-.56-1.23-.88a1.08,1.08,0,0,0-1.4-.09,1.07,1.07,0,0,0-.27,1.37Z" transform="translate(-206.72 -268.52)"/><path class="cls-4" d="M321,280.2l-.37.44a3.6,3.6,0,0,0-.49.93,2.27,2.27,0,0,0-.26,1.59,1.17,1.17,0,0,0,1.69.68,2.23,2.23,0,0,0,.92-1.28,3.25,3.25,0,0,0,.3-.84c0-.25.05-.5.08-.75a1.1,1.1,0,0,0-1.87-.77Z" transform="translate(-206.72 -268.52)"/><path class="cls-4" d="M322.42,280.11l0-.31a1.2,1.2,0,0,0-1.18-1.18A1.22,1.22,0,0,0,320,279.8l0,.31a1.21,1.21,0,0,0,2.41,0Z" transform="translate(-206.72 -268.52)"/><path class="cls-3" d="M274.27,269.46a6.49,6.49,0,0,0,1.21,3.62c.75,1.07,2,2.24,3.32,2.15a1.15,1.15,0,0,0,1-1.71c-.48-.9-1.41-1.4-2.11-2.14A11.37,11.37,0,0,1,276,269a1,1,0,0,0-1.76.48Z" transform="translate(-206.72 -268.52)"/><path class="cls-4" d="M279.65,270.8c-1.2.94-2.68,3-1.86,4.57a1.12,1.12,0,0,0,1.75.22,5.35,5.35,0,0,0,.74-1.87,4,4,0,0,1,.84-1.46,1,1,0,0,0-1.47-1.46Z" transform="translate(-206.72 -268.52)"/><path class="cls-4" d="M282,269.9a13,13,0,0,0-2.36,1.81c-.71.7-1.63,1.6-1.61,2.66a1.17,1.17,0,0,0,1.73,1c.79-.44,1.14-1.43,1.66-2.14a10.4,10.4,0,0,1,1.73-1.84c.82-.71-.24-2-1.15-1.49Z" transform="translate(-206.72 -268.52)"/><path class="cls-3" d="M283.8,270.13a3.57,3.57,0,0,1-1.1,1.8c-.51.44-1.37.71-1.65,1.37a.65.65,0,0,0,0,.66c.86,1.15,2.46.41,3.25-.43a3.41,3.41,0,0,0,.83-3.4.69.69,0,0,0-1.33,0Z" transform="translate(-206.72 -268.52)"/><path class="cls-4" d="M281.74,275.09a3.32,3.32,0,0,0,3,1,2.92,2.92,0,0,0,2.24-2.78,1.37,1.37,0,0,0-2.53-.69c.13-.18-.17.12,0,0s-.3.26-.38.33-.3.27-.18.18-.24.12-.24.12-.42.27-.48.29a2.16,2.16,0,0,0-.26.07c.22,0,.13,0,0,0a1,1,0,0,0-1.15,1.49Z" transform="translate(-206.72 -268.52)"/><path class="cls-4" d="M290.11,269.89a20.88,20.88,0,0,0-1.87,1.24,5.25,5.25,0,0,0-1.46,2,1.36,1.36,0,0,0,.2,1.59,1.31,1.31,0,0,0,2.07-.27c.29-.59.68-1.12,1-1.7a4.5,4.5,0,0,1,1.18-1.46c.82-.67-.23-1.95-1.11-1.44Z" transform="translate(-206.72 -268.52)"/><path class="cls-3" d="M294.84,276.05c-.71,1.51-1.3,4.6.81,5.31a.88.88,0,0,0,1-.4,2.78,2.78,0,0,0,.13-2.36c-.16-.79-.33-1.58-.49-2.37a.78.78,0,0,0-1.42-.18Z" transform="translate(-206.72 -268.52)"/><path class="cls-3" d="M303.24,282.56a4.08,4.08,0,0,0,4.11,1.5.88.88,0,0,0,0-1.68,6.65,6.65,0,0,1-2.61-1.32c-1-1-2.41.49-1.5,1.5Z" transform="translate(-206.72 -268.52)"/><path class="cls-3" d="M311.16,283.53a3.81,3.81,0,0,0-.92,4.4c.56,1.21,2.59.35,2.16-.91a2,2,0,0,1,.18-2.07,1,1,0,0,0-1.42-1.42Z" transform="translate(-206.72 -268.52)"/><path class="cls-3" d="M315.71,289.34a4,4,0,0,0,4.73-.43c1.15-1-.31-2.6-1.54-2a3.39,3.39,0,0,1-2.33.38,1.13,1.13,0,0,0-.86,2Z" transform="translate(-206.72 -268.52)"/><path class="cls-3" d="M319.26,288.43a8,8,0,0,0-.8,1.53,3.78,3.78,0,0,0,0,2.21,1.58,1.58,0,0,0,3.11-.42c-.05-.46,0-.93-.06-1.39a1.61,1.61,0,0,1,.07-1c.44-1.41-1.55-2.13-2.31-1Z" transform="translate(-206.72 -268.52)"/><path class="cls-3" d="M320.2,292.16a2.65,2.65,0,0,0,.4.67,2.11,2.11,0,0,0,.56.42,2.24,2.24,0,0,0,1.66.23,2.39,2.39,0,0,0,1.85-1.83c.16-.78-.54-1.83-1.45-1.45a1.69,1.69,0,0,0-.24.08c-.15.07.45-.07-.09,0a3.1,3.1,0,0,0-.42.08c-.26.07.12.05,0,0a1.7,1.7,0,0,0-.83.09c.1,0,.25,0,.06,0a2.41,2.41,0,0,0-.65.12h.65a.79.79,0,0,1-.22-.06,1.14,1.14,0,0,0-1.27,1.65Z" transform="translate(-206.72 -268.52)"/><path class="cls-3" d="M323.06,289.54a3.35,3.35,0,0,0,.13,1.22c.13.32.27.63.4.94a1.62,1.62,0,0,0,1.94,1.1,1.59,1.59,0,0,0,1.1-1.94l-.42-1a3.58,3.58,0,0,0-.89-1.24,1.34,1.34,0,0,0-2.26.93Z" transform="translate(-206.72 -268.52)"/><path class="cls-4" d="M326.73,288.2a1.82,1.82,0,0,0,1.57,1.36,2,2,0,0,0,2.12-.51,1.09,1.09,0,0,0-.22-1.69,2.8,2.8,0,0,0-.75-.27,3.09,3.09,0,0,0-.43,0s-.34,0-.21,0l-.14,0c-.09,0-.08,0,0,0l-.3-.13a2.3,2.3,0,0,0-.94,0,1,1,0,0,0-.7,1.24Z" transform="translate(-206.72 -268.52)"/><path class="cls-4" d="M330.27,287.13c-.79.74-1.8,1.19-2.65,1.88a11.54,11.54,0,0,0-2.37,2.15c-.76,1,.49,2.39,1.6,2.09a7,7,0,0,0,3-2,17.93,17.93,0,0,0,2-2.89c.68-1-.77-2-1.58-1.22Z" transform="translate(-206.72 -268.52)"/><path class="cls-4" d="M325.73,292.21a1.7,1.7,0,0,0-1.33.82l.68-.53-.11.05a1.5,1.5,0,0,0-.87.67,1.7,1.7,0,0,0-.15,1.13,1.79,1.79,0,0,0,.24.63,1.49,1.49,0,0,0,2.19.42,1.38,1.38,0,0,0,.56-1,1.54,1.54,0,0,0-.41-1.26.94.94,0,0,1,.27.46l-.09-.23a1.54,1.54,0,0,0-.75-.78l.57,1,0,.19c-.08.16-.1.2-.06.13l0,0a.55.55,0,0,1-.17.17,1,1,0,0,0-.52-1.93Z" transform="translate(-206.72 -268.52)"/><path class="cls-4" d="M323.15,282.49c-2,1.1-2.75,5.06-.23,6a.92.92,0,0,0,1.13-1.12,5.64,5.64,0,0,1-.75-1.86,2.12,2.12,0,0,1,.82-1.77c.74-.59-.2-1.69-1-1.27Z" transform="translate(-206.72 -268.52)"/><path class="cls-3" d="M308.13,288.08a9.68,9.68,0,0,0,.52.88c.22.28.49.53.74.79a8.93,8.93,0,0,0,1.61,1.46,1.06,1.06,0,0,0,1.39-.28,1.11,1.11,0,0,0-.08-1.42,8.4,8.4,0,0,0-1.53-1.32c-.25-.2-.5-.41-.76-.59a6.41,6.41,0,0,0-.95-.46c-.58-.3-1.34.33-.94.94Z" transform="translate(-206.72 -268.52)"/><path class="cls-3" d="M313,287.77a5.65,5.65,0,0,0-1,1.1,3.93,3.93,0,0,0-.55,1.45c-.26,1.18,1.57,1.69,1.83.5a8.48,8.48,0,0,1,.79-2.25.67.67,0,0,0-1-.8Z" transform="translate(-206.72 -268.52)"/><path class="cls-4" d="M312.46,295.83a5.46,5.46,0,0,0,4.66,1.18,1,1,0,0,0,.69-.7c.17-1.05-.79-1.33-1.66-1.39-1.06-.07-2.06-.34-3.12-.46a.81.81,0,0,0-.57,1.37Z" transform="translate(-206.72 -268.52)"/><path class="cls-3" d="M316.79,295a2.48,2.48,0,0,0,1.78,1.79,1.87,1.87,0,0,0,2.36-.5.65.65,0,0,0-.23-.87c-.5-.27-1-.14-1.5-.32a3.5,3.5,0,0,1-1.16-.82.75.75,0,0,0-1.25.72Z" transform="translate(-206.72 -268.52)"/><path class="cls-4" d="M320,297.09l1.05.49a.94.94,0,1,0,.72-1.72l-1.13-.29a.85.85,0,0,0-1,.48.83.83,0,0,0,.35,1Z" transform="translate(-206.72 -268.52)"/><path class="cls-4" d="M298.77,291.22a3.72,3.72,0,0,0,3.08,1,1.14,1.14,0,0,0,1.12-1.12,1.13,1.13,0,0,0-1.12-1.12,4.19,4.19,0,0,1-1.89-.35c-.95-.46-2.07.75-1.19,1.54Z" transform="translate(-206.72 -268.52)"/><path class="cls-3" d="M301.85,289.27a3,3,0,0,0,4.36.2c.56-.52.17-1.73-.68-1.63a10.22,10.22,0,0,1-2.87,0,.84.84,0,0,0-.81,1.39Z" transform="translate(-206.72 -268.52)"/><path class="cls-4" d="M305,289.07a1.93,1.93,0,0,0,2.09,1.16,2.92,2.92,0,0,0,2.27-1.29c.44-.73-.31-1.87-1.18-1.54a9.09,9.09,0,0,1-1.4.52,4.24,4.24,0,0,0-1.49.44.66.66,0,0,0-.29.71Z" transform="translate(-206.72 -268.52)"/><path class="cls-4" d="M309.73,284.16a1.85,1.85,0,0,0,1.78-.05,1.4,1.4,0,0,0,.59-1.81A.81.81,0,0,0,311,282l-.21.16s-.16.15-.05.07,0,0-.06,0a2.77,2.77,0,0,0-.29.22c.06-.05.13-.07,0,0s0,0,0,0c-.18.05.12,0,0,0s.21.05,0,0a1,1,0,0,0-1.12.55.93.93,0,0,0,.39,1.18Z" transform="translate(-206.72 -268.52)"/><path class="cls-4" d="M308.34,280.48a11.32,11.32,0,0,0,2.85.6,1,1,0,0,0,.26-1.91,12,12,0,0,0-2.88-.38c-1-.1-1.16,1.46-.23,1.69Z" transform="translate(-206.72 -268.52)"/><path class="cls-4" d="M304.57,276.49a4.86,4.86,0,0,0-1.8,1.15,7.55,7.55,0,0,0-1.65,1.59,1.26,1.26,0,0,0,.32,1.63,1.3,1.3,0,0,0,1.66-.1,7.91,7.91,0,0,0,1.34-1.7,4.7,4.7,0,0,0,.94-1.76.66.66,0,0,0-.81-.81Z" transform="translate(-206.72 -268.52)"/><path class="cls-4" d="M298.27,275.62a4.81,4.81,0,0,0,1.65,3.49,1.08,1.08,0,0,0,1.47,0,1.06,1.06,0,0,0,0-1.47,4.33,4.33,0,0,1-1.43-2.25c-.22-.93-1.77-.75-1.69.23Z" transform="translate(-206.72 -268.52)"/><path class="cls-3" d="M292,277.44c.27,1.16,1.63,2.86,3,2a.73.73,0,0,0,.26-1,1.39,1.39,0,0,0-.61-.59,5.16,5.16,0,0,1-.53-.26,2.53,2.53,0,0,1-.82-.74.69.69,0,0,0-1.26.54Z" transform="translate(-206.72 -268.52)"/><path class="cls-4" d="M288.07,276.17c-.57.9.62,1.7,1.3,2.05s2.14.87,2.9.1a.94.94,0,0,0-.18-1.44c-.61-.44-1.51-.17-2.21-.49-.5-.24-1.34-1-1.81-.22Z" transform="translate(-206.72 -268.52)"/><path class="cls-4" d="M293.07,279.46c-1,.51-2.64,1-3.08,2.16a.66.66,0,0,0,.46.81c1.24.21,2.46-.94,3.43-1.58a.8.8,0,0,0-.81-1.39Z" transform="translate(-206.72 -268.52)"/><path class="cls-4" d="M290.15,284.54a4.35,4.35,0,0,0,1.6.68,4.86,4.86,0,0,0,1.74-.15.89.89,0,0,0-.23-1.75,8,8,0,0,1-2.44-.35.86.86,0,0,0-.67,1.57Z" transform="translate(-206.72 -268.52)"/><path class="cls-3" d="M290.67,284.48c-1.17,1-.11,2.83.8,3.6s2.85,1.21,3.62-.08a.55.55,0,0,0-.33-.8,6.49,6.49,0,0,1-2-.76c-.66-.48-.6-1.21-1-1.82a.71.71,0,0,0-1.09-.14Z" transform="translate(-206.72 -268.52)"/><path class="cls-3" d="M301.9,287.15c-.35.26-.73.47-1.07.74s-.67.63-1,.92a12,12,0,0,0-2.05,1.84c-.58.78.38,1.81,1.21,1.57a5.53,5.53,0,0,0,2.45-1.8,7.69,7.69,0,0,0,.94-1.19,7.15,7.15,0,0,0,.51-1.33c.17-.51-.51-1.1-1-.75Z" transform="translate(-206.72 -268.52)"/><path class="cls-3" d="M302.21,291.55a3.11,3.11,0,0,0,1.76.15,1.6,1.6,0,0,0,1.21-1.36.7.7,0,0,0-.5-.66c-.66-.26-1.36.25-2,.16a.89.89,0,0,0-.47,1.71Z" transform="translate(-206.72 -268.52)"/><path class="cls-3" d="M307.77,288.44a10,10,0,0,0-2.6,1.68c-.76.82-1.69,1.77-1.41,3a1.17,1.17,0,0,0,1.44.82c1-.31,1.34-1.32,1.93-2.11a14.49,14.49,0,0,1,1.55-2.17.76.76,0,0,0-.91-1.18Z" transform="translate(-206.72 -268.52)"/><path class="cls-4" d="M306.94,290.33c0,.14,0,.07-.09.18a2.28,2.28,0,0,0-.15.57c0-.14,0,.1-.05.14a2.1,2.1,0,0,0-.07,1.31.92.92,0,0,0,.87.66,1.64,1.64,0,0,0,1.46-1.58,1.61,1.61,0,0,0-.15-1.14,5.78,5.78,0,0,0-.5-.69.77.77,0,0,0-.85-.16.79.79,0,0,0-.47.71Z" transform="translate(-206.72 -268.52)"/><path class="cls-4" d="M271.82,290.37a5.61,5.61,0,0,0,2,1.57c.59.33,1.65.9,2.13.06s-.54-1.46-1.12-1.78a5.56,5.56,0,0,0-2.41-.94.73.73,0,0,0-.63,1.09Z" transform="translate(-206.72 -268.52)"/><path class="cls-4" d="M275.88,291.09a1.87,1.87,0,0,0-.56,1,5,5,0,0,0,0,1.09c.08.74.33,1.73,1.25,1.79.68,0,.88-.84.79-1.37a5.26,5.26,0,0,1-.19-1.11,4.92,4.92,0,0,0-.17-1.15.66.66,0,0,0-1.1-.29Z" transform="translate(-206.72 -268.52)"/><path class="cls-4" d="M283,296.13a2,2,0,0,0-1.76.12,1.77,1.77,0,0,0-.86,1.47.49.49,0,0,0,.73.42,4.53,4.53,0,0,1,.84-.45,2.45,2.45,0,0,1,.87-.27.66.66,0,0,0,.18-1.29Z" transform="translate(-206.72 -268.52)"/><path class="cls-4" d="M261.42,287.34a2.8,2.8,0,0,0,1.53,2.51c1,.5,2.55.72,3.1-.49a1,1,0,0,0-.57-1.42c-.57-.2-1.06,0-1.57-.2a1.79,1.79,0,0,1-.91-.83c-.37-.78-1.59-.37-1.58.43Z" transform="translate(-206.72 -268.52)"/><path class="cls-3" d="M264.46,287.85l-1,0a3.13,3.13,0,0,0-1.06.09.76.76,0,0,0,0,1.45,3.41,3.41,0,0,0,1.06.09l1,0a.84.84,0,0,0,0-1.67Z" transform="translate(-206.72 -268.52)"/><path class="cls-3" d="M226.94,289.35a5.25,5.25,0,0,0,1.57,1,1.92,1.92,0,0,0,1.77.28.65.65,0,0,0,.44-.78c-.21-.73-.65-1-1.31-1.26a5.89,5.89,0,0,0-1.9-.62c-.73-.07-1,.91-.57,1.38Z" transform="translate(-206.72 -268.52)"/><path class="cls-3" d="M230.22,290.14c.41.18.81.37,1.22.54a1.87,1.87,0,0,0,1.28.23.53.53,0,0,0,.31-.76,1.91,1.91,0,0,0-1.07-.72c-.41-.16-.84-.3-1.26-.45-.66-.23-1.14.86-.48,1.16Z" transform="translate(-206.72 -268.52)"/><path class="cls-3" d="M318.24,293.12a4.66,4.66,0,0,0,2.22,2.58,4.76,4.76,0,0,0,3.59.45c.8-.34,1.15-1.86,0-2a11,11,0,0,1-2.49-.32,6.47,6.47,0,0,1-2.17-1.36c-.47-.43-1.4,0-1.15.67Z" transform="translate(-206.72 -268.52)"/><path class="cls-4" d="M326.35,293.2c.25-.06.51-.1.75-.17a1.43,1.43,0,0,0,.7-.56.61.61,0,0,0-.27-1,1.59,1.59,0,0,0-.94,0,8.75,8.75,0,0,0-.83.37.77.77,0,0,0-.32,1,.79.79,0,0,0,.91.45Z" transform="translate(-206.72 -268.52)"/><path class="cls-5" d="M301.06,450.32h-33.4a55.34,55.34,0,0,1-3.4-11.32c-1.24-8-1.34-99.4.61-117.35s24.24-21.07,24.24-21.07c-.59.56-1.19,1.1-1.82,1.6-2.17,1.74-4.82,3.1-6.62,5.25l-.16.21-.05.09-.24.31c-3.41,5,4.75,8.61,7,12.48,2.62,4.41,2.77,9.85,3.08,14.83.87,13.89,1.55,27.79,1.42,41.71s-1.37,27.78-1.29,41.69c0,6.66-.07,13.91,1.63,20.4a16.83,16.83,0,0,0,5.41,8.26C298.7,448.48,299.94,449.33,301.06,450.32Z" transform="translate(-206.72 -268.52)"/><path class="cls-2" d="M258.8,326.79a45.77,45.77,0,0,0,7.39-1.51c2.47-.91,16.71.75,16.71.75l-26.22,1.72Z" transform="translate(-206.72 -268.52)"/><path class="cls-5" d="M257.47,340a45.05,45.05,0,0,0,7.39-1.52c2.47-.9,16.7.76,16.7.76L255.35,341Z" transform="translate(-206.72 -268.52)"/><path class="cls-5" d="M255.44,353.24a45.82,45.82,0,0,0,7.4-1.51c2.47-.91,16.7.76,16.7.76l-26.21,1.71Z" transform="translate(-206.72 -268.52)"/><path class="cls-5" d="M260.6,350a45.82,45.82,0,0,0,7.4-1.51c2.47-.91,16.7.75,16.7.75l-26.21,1.72Z" transform="translate(-206.72 -268.52)"/><path class="cls-5" d="M258.8,362.65a45.05,45.05,0,0,0,7.39-1.52c2.47-.9,16.71.76,16.71.76l-26.22,1.71Z" transform="translate(-206.72 -268.52)"/><path class="cls-5" d="M253.89,381.05a45.1,45.1,0,0,0,7.4-1.52c2.47-.9,16.7.76,16.7.76L251.78,382Z" transform="translate(-206.72 -268.52)"/><path class="cls-5" d="M259.35,397.19a45.3,45.3,0,0,0,7.4-1.52c2.47-.91,16.7.76,16.7.76l-26.21,1.71Z" transform="translate(-206.72 -268.52)"/><path class="cls-5" d="M257.75,411.5a45.1,45.1,0,0,0,7.4-1.52c2.47-.91,16.7.76,16.7.76l-26.21,1.71Z" transform="translate(-206.72 -268.52)"/><path class="cls-5" d="M259.35,429a45.3,45.3,0,0,0,7.4-1.52c2.47-.9,16.7.76,16.7.76L257.24,430Z" transform="translate(-206.72 -268.52)"/><path class="cls-5" d="M262.48,366.71a45.77,45.77,0,0,0,7.39-1.51c2.47-.91,16.71.76,16.71.76l-26.22,1.71Z" transform="translate(-206.72 -268.52)"/><path class="cls-2" d="M257.75,361.39a45.82,45.82,0,0,0,7.4-1.51c2.47-.91,16.7.76,16.7.76l-26.21,1.71Z" transform="translate(-206.72 -268.52)"/><path class="cls-2" d="M257.27,331.8a23.16,23.16,0,0,0,5.13-1.52c1.71-.9,11.56.76,11.56.76l-18.15,1.72Z" transform="translate(-206.72 -268.52)"/><path class="cls-2" d="M257.27,343.48A23.16,23.16,0,0,0,262.4,342c1.71-.91,11.56.76,11.56.76l-18.15,1.71Z" transform="translate(-206.72 -268.52)"/><path class="cls-2" d="M260.85,357.64a23,23,0,0,0,5.12-1.52c1.71-.9,11.56.76,11.56.76l-18.15,1.72Z" transform="translate(-206.72 -268.52)"/><path class="cls-2" d="M258.45,345.21a37.84,37.84,0,0,1,6.77,1.37c2.27.86,15.19-1.09,15.19-1.09L256.5,344.3Z" transform="translate(-206.72 -268.52)"/><path class="cls-2" d="M258.8,373.3a45.05,45.05,0,0,0,7.39-1.52c2.47-.9,16.71.76,16.71.76l-26.22,1.72Z" transform="translate(-206.72 -268.52)"/><path class="cls-2" d="M257.75,407.9a45.82,45.82,0,0,0,7.4-1.51c2.47-.91,16.7.75,16.7.75l-26.21,1.72Z" transform="translate(-206.72 -268.52)"/><path class="cls-2" d="M257.27,378.31a23.16,23.16,0,0,0,5.13-1.52c1.71-.91,11.56.76,11.56.76l-18.15,1.71Z" transform="translate(-206.72 -268.52)"/><path class="cls-2" d="M257.27,390a23.52,23.52,0,0,0,5.13-1.51c1.71-.91,11.56.76,11.56.76l-18.15,1.71Z" transform="translate(-206.72 -268.52)"/><path class="cls-2" d="M260.85,404.15a23,23,0,0,0,5.12-1.52c1.71-.91,11.56.76,11.56.76l-18.15,1.71Z" transform="translate(-206.72 -268.52)"/><path class="cls-2" d="M258.45,391.72a37.84,37.84,0,0,1,6.77,1.37c2.27.85,15.19-1.1,15.19-1.1l-23.91-1.18Z" transform="translate(-206.72 -268.52)"/><path class="cls-2" d="M258.8,419.81a45.05,45.05,0,0,0,7.39-1.52c2.47-.91,16.71.76,16.71.76l-26.22,1.71Z" transform="translate(-206.72 -268.52)"/><path class="cls-2" d="M257.27,424.81a23.52,23.52,0,0,0,5.13-1.51c1.71-.91,11.56.76,11.56.76l-18.15,1.71Z" transform="translate(-206.72 -268.52)"/><path class="cls-2" d="M257.27,436.49A23.16,23.16,0,0,0,262.4,435c1.71-.9,11.56.76,11.56.76l-18.15,1.72Z" transform="translate(-206.72 -268.52)"/><path class="cls-2" d="M258.45,438.23a37.84,37.84,0,0,1,6.77,1.37c2.27.85,15.19-1.1,15.19-1.1l-23.91-1.18Z" transform="translate(-206.72 -268.52)"/><rect class="cls-6" x="303.74" y="326.3" width="5.42" height="149" transform="translate(-252.52 -228.94) rotate(-6.88)"/><rect class="cls-7" x="295.65" y="326.78" width="5.42" height="13.96" transform="translate(-244.55 -230.39) rotate(-6.88)"/><rect class="cls-8" x="296.79" y="327.81" width="1.49" height="13.04" transform="translate(-244.62 -230.48) rotate(-6.88)"/><rect class="cls-9" x="305.65" y="340.32" width="1.49" height="135.04" transform="translate(-253.35 -228.9) rotate(-6.88)"/><path class="cls-10" d="M298.29,331.48a32.11,32.11,0,0,0,5.51-21.92c-.77-8.08-5.35-14.15-10.51-19.5l0-.05,0,.06c-3.73,6.42-6.73,13.41-5.56,21.44a32,32,0,0,0,10.56,20l0,0Z" transform="translate(-206.72 -268.52)"/><path class="cls-11" d="M293.23,290.07c-3.38,5.72-6.83,14.11-5.56,21.44,1.55,9,6.21,16.47,10.59,20,3.34-5.51-.55-36.5-5-41.44" transform="translate(-206.72 -268.52)"/><rect class="cls-6" x="294.12" y="357.03" width="4.6" height="126.48" transform="translate(-282.3 -203.37) rotate(-11.13)"/><rect class="cls-7" x="283.05" y="358.11" width="4.6" height="11.85" transform="translate(-271.65 -206.57) rotate(-11.13)"/><rect class="cls-8" x="284.05" y="359.03" width="1.26" height="11.07" transform="matrix(0.98, -0.19, 0.19, 0.98, -271.77, -206.68)"/><rect class="cls-9" x="296.19" y="368.92" width="1.26" height="114.63" transform="matrix(0.98, -0.19, 0.19, 0.98, -283.45, -203.17)"/><path class="cls-10" d="M285.15,362.1a27.24,27.24,0,0,0,3.28-18.9c-1.16-6.79-5.42-11.64-10.12-15.84l0,0,0,.05c-2.76,5.67-4.86,11.77-3.36,18.5a27.18,27.18,0,0,0,10.2,16.24l0,0Z" transform="translate(-206.72 -268.52)"/><path class="cls-11" d="M278.26,327.37c-2.51,5.05-4.89,12.38-3.36,18.5,1.88,7.52,6.3,13.55,10.23,16.26,2.47-4.87-2.77-30.87-6.87-34.76" transform="translate(-206.72 -268.52)"/><path class="cls-12" d="M365.79,322.27l-.25,0-.24-.05h0c-25.89-3.86-41.56,20.08-46.83,64-7.27,60.51-6.19,109.94,16.34,116.16l.24.07h.25C358.61,504,375.9,457.64,389,398.1c9.48-43.19,2.56-71-23.16-75.82Z" transform="translate(-206.72 -268.52)"/><path class="cls-13" d="M365.79,322.27l-.25,0-.24-.05h0c-25.89-3.86-41.56,20.08-46.83,64-7.27,60.51-6.19,109.94,16.34,116.16l.24.07h.25c.37,0,.74,0,1.11,0,19.23-12.2,34.18-55.93,45.94-109.58,5.86-26.73,5.93-48-.3-62.31a30.16,30.16,0,0,0-16.25-8.28Z" transform="translate(-206.72 -268.52)"/><path class="cls-14" d="M337.07,502c18.91-12.78,33.64-56.11,45.27-109.13,5.86-26.73,5.93-48-.3-62.31a29.38,29.38,0,0,0-13.78-7.73c-24.4-2-39.22,21.8-44.32,64.27-6.91,57.49-6.28,105,13.13,114.9" transform="translate(-206.72 -268.52)"/><path class="cls-13" d="M318.29,387.6c-7.08,59.86-5.84,108.56,16.51,114.73l.24.07h.25c23.14,1.53,40.33-44,53.35-102.9,3.3-31.55-5.07-51.53-26.52-55.59h0l-.25,0-.25-.05h0c-21.59-3.22-36.07,12.89-43.34,43.77" transform="translate(-206.72 -268.52)"/><path class="cls-15" d="M318.29,387.6c-7.08,59.86-5.84,108.56,16.51,114.73l.24.07h.25c.37,0,.74,0,1.11,0,19.23-12.2,34.18-55.93,45.94-109.58a187.34,187.34,0,0,0,4.07-27c-4-12-12-19.63-24.29-22h0l-.25,0-.25-.05h0c-21.59-3.22-36.07,12.89-43.34,43.77" transform="translate(-206.72 -268.52)"/><path class="cls-16" d="M337.07,502c18.91-12.78,33.64-56.11,45.27-109.13a187.34,187.34,0,0,0,4.07-27c-4-12-12-19.63-24.29-22h0l-.25,0-.25-.05h0c-13.56-2-24.32,3.59-32.25,15.69a166.81,166.81,0,0,0-5.44,27.58c-6.91,57.49-6.28,105,13.13,114.9" transform="translate(-206.72 -268.52)"/><path class="cls-17" d="M363,382.57s9.38-7.68,18.59-5.89c6.18,1.21,7.89,5.85,7.89,5.85s1.59-11.25-9-12.41S363.68,382.07,363,382.57" transform="translate(-206.72 -268.52)"/><path class="cls-17" d="M348.06,380s-6.34-10.33-15.62-11.67c-6.23-.9-9.37,2.93-9.37,2.93s2.2-11.15,12.54-8.78,11.95,16.82,12.45,17.52" transform="translate(-206.72 -268.52)"/><path class="cls-18" d="M386.44,409.17a43.32,43.32,0,0,1-6.22-11.77L376,398.71a45.65,45.65,0,0,0,9.16,15.81q.64-2.65,1.28-5.35" transform="translate(-206.72 -268.52)"/><path class="cls-17" d="M383.22,422.35c-9.67-10.75-9.61-18.56-9.61-18.65l-2.21-.08-2.2-.1c0,.45-.3,10.23,11.95,23.1.72-1.44,1.41-2.87,2.07-4.27" transform="translate(-206.72 -268.52)"/><path class="cls-18" d="M365.33,406.54l-2.21,0-2.21,0c0,.69.36,15.85,13.79,32,.76-1.35,1.54-2.73,2.32-4.16-11.32-14.47-11.69-27.79-11.69-27.94" transform="translate(-206.72 -268.52)"/><path class="cls-18" d="M316.65,402.89A45.81,45.81,0,0,0,330.46,391l-3.56-2.63a43.56,43.56,0,0,1-9.7,9q-.3,2.76-.55,5.48" transform="translate(-206.72 -268.52)"/><path class="cls-17" d="M315.85,411c.17,1.54.35,3.1.56,4.7,15.8-8.12,18.75-17.45,18.88-17.88l-4.23-1.27c0,.09-2.36,7.43-15.21,14.45" transform="translate(-206.72 -268.52)"/><path class="cls-18" d="M317.72,424.44c.27,1.61.54,3.17.82,4.69,18-10.87,23.33-25.07,23.57-25.71L338,401.91c-.05.14-4.7,12.56-20.23,22.53" transform="translate(-206.72 -268.52)"/><path class="cls-19" d="M351.72,429.72c3.43-17.49.35-27.82.35-27.82l-.45,2.42.38-2.43s-6.31,8.74-8.83,26.38c0,0-8.39-4.69-13.68,7.18,0,0,12-5.29,12.47,3.67,0,0-.16,1,3.53,1.41,3.64.8,3.81-.17,3.81-.17,3.43-8.29,13,.64,13,.64-1.08-12.95-10.55-11.28-10.55-11.28" transform="translate(-206.72 -268.52)"/><path class="cls-20" d="M351.42,458.17c-3,.66-7.51.09-8.89-.12s-5.84-1.21-8.44-2.82c0,0,1.3,6.62,7,8.7l.84.14c6.07-.08,9.48-5.9,9.48-5.9" transform="translate(-206.72 -268.52)"/><path class="cls-18" d="M345.68,404.25s5.8-8.52-1.49-17.85-14.33-13.8-19.06-11.64-3.69,13.55,2.93,21.36,13,12.33,17.62,8.13" transform="translate(-206.72 -268.52)"/><path class="cls-17" d="M342.13,399.44s.38-10.53-12.32-17.35c0,0-1.84-1.09-1.52.68s8,14.13,12.78,17.43c0,0,1,.48,1.06-.76" transform="translate(-206.72 -268.52)"/><path class="cls-18" d="M357.26,406.21s-2.67-10,7.29-16.37,18.07-8.31,21.82-4.71-1,14-9.79,19.21-16.35,7.35-19.32,1.87" transform="translate(-206.72 -268.52)"/><path class="cls-17" d="M362.19,402.84s3.11-10.07,17.35-12.33c0,0,2.1-.42,1.21,1.14S368.5,402.35,363,403.9c0,0-1.11.12-.76-1.06" transform="translate(-206.72 -268.52)"/><path class="cls-20" d="M377.52,326.86l-19.27,43.57-5.31-47.83a32.1,32.1,0,0,1,12.35-.41h0l.24.05.25,0h0a32,32,0,0,1,11.73,4.58" transform="translate(-206.72 -268.52)"/><polygon class="cls-21" points="136.47 224.78 134.57 201.4 124.38 222.73 136.47 224.78"/><path class="cls-20" d="M351.77,456.12c-2.6-1.62-7.07-2.56-8.44-2.83s-5.91-.78-8.89-.11c0,0,3.4-5.82,9.48-5.9l.84.14c5.71,2.07,7,8.7,7,8.7" transform="translate(-206.72 -268.52)"/><path class="cls-22" d="M264.41,460.12h29.64l4.3,33.31c-3,15.81-36.93,14.2-38.32,0Z" transform="translate(-206.72 -268.52)"/><path class="cls-23" d="M264.41,460.12h24l4.3,33.31c-1.32,6.87-8.46,10.45-16.23,11.14-8.25-.72-15.81-4.59-16.45-11.14Z" transform="translate(-206.72 -268.52)"/><path class="cls-24" d="M269.18,460.12h19.23l4.3,33.31c-1.18,6.17-7.06,9.68-13.87,10.83-7.26-1.2-13.46-4.92-14-10.83Z" transform="translate(-206.72 -268.52)"/><path class="cls-22" d="M251,420.83H306.8c.12,14.22-4.25,27.26-12.75,39.29a37.21,37.21,0,0,1-29.64,0c-9.09-12.49-12.75-25.69-13.4-39.29" transform="translate(-206.72 -268.52)"/><path class="cls-23" d="M251,420.83H299.8c.13,14.22-4.24,27.26-12.74,39.29A39.31,39.31,0,0,1,275.74,463a39.11,39.11,0,0,1-11.33-2.91c-9.09-12.49-12.75-25.69-13.4-39.29" transform="translate(-206.72 -268.52)"/><path class="cls-24" d="M256.2,420.83h43.6c.13,14.22-4.24,27.26-12.74,39.29a39.58,39.58,0,0,1-8.72,2.56,40.27,40.27,0,0,1-8.74-2.56c-9.09-12.49-12.74-25.69-13.4-39.29" transform="translate(-206.72 -268.52)"/><path class="cls-25" d="M277.09,426.13h1.33L275.8,463l-1.31-.16Z" transform="translate(-206.72 -268.52)"/><path class="cls-25" d="M263,424.38l-1.44-.28a214.9,214.9,0,0,0,8.7,38c.5.13,1,.24,1.49.34-4.51-13.71-7.66-26.55-8.75-38" transform="translate(-206.72 -268.52)"/><path class="cls-25" d="M254.61,422.87l-1.45-.28a122.66,122.66,0,0,0,8.55,33.55c.84,1.34,1.74,2.66,2.7,4l.53.22c-6.09-12.49-9.71-25.22-10.33-37.47" transform="translate(-206.72 -268.52)"/><path class="cls-25" d="M281.25,426.13h-1.33l2.62,37.28,1.32-.14Z" transform="translate(-206.72 -268.52)"/><path class="cls-25" d="M295.32,424.38l1.43-.28a214.68,214.68,0,0,1-8.71,38c-.5.12-1,.23-1.49.33,4.51-13.73,7.68-26.57,8.77-38.07" transform="translate(-206.72 -268.52)"/><path class="cls-25" d="M303.73,422.87l1.45-.28a122.52,122.52,0,0,1-8.65,33.81c-.79,1.25-1.61,2.49-2.48,3.72l-.68.27c6.11-12.5,9.74-25.25,10.36-37.52" transform="translate(-206.72 -268.52)"/><path class="cls-26" d="M278.89,408.14c16.87,0,30.55,4,30.55,9s-13.68,9-30.55,9-30.55-4-30.55-9,13.68-9,30.55-9" transform="translate(-206.72 -268.52)"/><path class="cls-21" d="M285.67,408.36c12.4.81,21.61,3.79,21.61,7.34,0,4.17-12.71,7.56-28.39,7.56s-28.39-3.39-28.39-7.56c0-3.55,9.21-6.53,21.61-7.34-11.64.76-20.24,3.44-20.24,6.63,0,3.78,12.1,6.85,27,6.85s27-3.07,27-6.85c0-3.19-8.6-5.87-20.24-6.63" transform="translate(-206.72 -268.52)"/><path class="cls-27" d="M280.45,408.15c14.17,0,25.66,3.07,25.66,6.84s-11.49,6.84-25.66,6.84-25.67-3.06-25.67-6.84,11.49-6.84,25.67-6.84" transform="translate(-206.72 -268.52)"/><path class="cls-28" d="M286.42,410.15c7.37,0,13.35,2,13.35,4.35s-6,4.35-13.35,4.35-13.35-1.94-13.35-4.35,6-4.35,13.35-4.35" transform="translate(-206.72 -268.52)"/><path class="cls-25" d="M306.8,421.73c-4.77,3.14-15.47,5.33-27.91,5.33s-23-2.16-27.83-5.28c0-.31,0-.63-.05-.95h0c4.78,3.13,15.46,5.32,27.88,5.32s23.1-2.19,27.88-5.32h0v.9" transform="translate(-206.72 -268.52)"/><path class="cls-29" d="M264.41,460.12a37.21,37.21,0,0,0,29.64,0l.15,1.17-.15.21a37.12,37.12,0,0,1-29.64,0l-.16-.21Z" transform="translate(-206.72 -268.52)"/><path class="cls-30" d="M297.82,489.32c-4.95,13-33,11.93-37.29.31l.29-2.2c5,10.76,31.18,11.71,36.71-.34Z" transform="translate(-206.72 -268.52)"/><path class="cls-25" d="M292,495.72c-10,5.68-28.13,3.07-31.48-6.09l.29-2.2c4.07,8.76,22.19,11,31.76,5.05l.13.95a11.29,11.29,0,0,1-.7,2.29" transform="translate(-206.72 -268.52)"/><path class="cls-29" d="M292,495.72c-7.6,4.33-20,3.84-26.9-.7a8.28,8.28,0,0,1-.3-1.59L265,492c7.08,4.74,20,5.16,27.59.44l.13.95a11.29,11.29,0,0,1-.7,2.29" transform="translate(-206.72 -268.52)"/><path class="cls-22" d="M296.05,481.94h22.73l3.29,25.54c-2.32,12.12-28.31,10.89-29.38,0Z" transform="translate(-206.72 -268.52)"/><path class="cls-23" d="M296.05,481.94h18.4l3.3,25.54c-1,5.27-6.49,8-12.45,8.54-6.32-.55-12.12-3.52-12.61-8.54Z" transform="translate(-206.72 -268.52)"/><path class="cls-24" d="M299.71,481.94h14.74l3.3,25.54c-.91,4.73-5.41,7.42-10.63,8.31-5.57-.93-10.32-3.78-10.76-8.31Z" transform="translate(-206.72 -268.52)"/><path class="cls-22" d="M285.78,451.82h42.77a50.45,50.45,0,0,1-9.77,30.12,28.47,28.47,0,0,1-22.73,0,53.91,53.91,0,0,1-10.27-30.12" transform="translate(-206.72 -268.52)"/><path class="cls-23" d="M285.78,451.82h37.41a50.45,50.45,0,0,1-9.77,30.12,30.12,30.12,0,0,1-8.68,2.23,29.7,29.7,0,0,1-8.69-2.23,53.91,53.91,0,0,1-10.27-30.12" transform="translate(-206.72 -268.52)"/><path class="cls-24" d="M289.76,451.82h33.43a50.45,50.45,0,0,1-9.77,30.12,30.59,30.59,0,0,1-6.69,2,31.37,31.37,0,0,1-6.7-2,53.91,53.91,0,0,1-10.27-30.12" transform="translate(-206.72 -268.52)"/><path class="cls-25" d="M305.78,455.88h1l-2,28.3c-.33,0-.67-.07-1-.12Z" transform="translate(-206.72 -268.52)"/><path class="cls-25" d="M295,454.54l-1.1-.21a164.81,164.81,0,0,0,6.67,29.12l1.14.26c-3.45-10.52-5.87-20.36-6.71-29.17" transform="translate(-206.72 -268.52)"/><path class="cls-25" d="M288.54,453.38l-1.11-.21A93.8,93.8,0,0,0,294,478.89c.64,1,1.33,2,2.07,3.05l.41.17a74.62,74.62,0,0,1-7.92-28.73" transform="translate(-206.72 -268.52)"/><path class="cls-25" d="M309,455.88h-1l2,28.31,1-.11Z" transform="translate(-206.72 -268.52)"/><path class="cls-25" d="M319.75,454.54l1.1-.21a165.05,165.05,0,0,1-6.68,29.14c-.38.1-.76.18-1.14.26,3.46-10.52,5.88-20.37,6.72-29.19" transform="translate(-206.72 -268.52)"/><path class="cls-25" d="M326.2,453.38l1.11-.21a93.68,93.68,0,0,1-6.64,25.92q-.9,1.44-1.89,2.85l-.52.21a74.84,74.84,0,0,0,7.94-28.77" transform="translate(-206.72 -268.52)"/><path class="cls-26" d="M307.15,442.09c12.94,0,23.43,3.09,23.43,6.9s-10.49,6.9-23.43,6.9-23.42-3.09-23.42-6.9,10.49-6.9,23.42-6.9" transform="translate(-206.72 -268.52)"/><path class="cls-21" d="M312.35,442.26c9.51.62,16.57,2.9,16.57,5.63,0,3.2-9.75,5.79-21.77,5.79s-21.76-2.59-21.76-5.79c0-2.73,7.05-5,16.56-5.63-8.92.58-15.51,2.64-15.51,5.08,0,2.9,9.27,5.25,20.71,5.25s20.72-2.35,20.72-5.25c0-2.44-6.6-4.5-15.52-5.08" transform="translate(-206.72 -268.52)"/><path class="cls-27" d="M308.35,442.1c10.86,0,19.67,2.35,19.67,5.24s-8.81,5.24-19.67,5.24-19.68-2.34-19.68-5.24,8.81-5.24,19.68-5.24" transform="translate(-206.72 -268.52)"/><path class="cls-28" d="M312.92,443.63c5.66,0,10.24,1.5,10.24,3.34s-4.58,3.33-10.24,3.33-10.23-1.49-10.23-3.33,4.58-3.34,10.23-3.34" transform="translate(-206.72 -268.52)"/><path class="cls-25" d="M328.55,452.51c-3.66,2.41-11.86,4.09-21.4,4.09s-17.65-1.66-21.33-4.05c0-.24,0-.49,0-.73h0c3.66,2.4,11.85,4.07,21.37,4.07s17.71-1.67,21.38-4.07h0v.69" transform="translate(-206.72 -268.52)"/><path class="cls-29" d="M296.05,481.94a28.47,28.47,0,0,0,22.73,0l.11.9-.11.16a28.47,28.47,0,0,1-22.73,0l-.12-.16Z" transform="translate(-206.72 -268.52)"/><path class="cls-30" d="M321.66,504.33c-3.79,10-25.33,9.14-28.58.24l.22-1.69c3.83,8.25,23.91,9,28.14-.26Z" transform="translate(-206.72 -268.52)"/><path class="cls-25" d="M317.21,509.24c-7.64,4.35-21.57,2.35-24.13-4.67l.22-1.69c3.12,6.72,17,8.45,24.35,3.87l.1.73a8.38,8.38,0,0,1-.54,1.76" transform="translate(-206.72 -268.52)"/><path class="cls-29" d="M317.21,509.24c-5.82,3.32-15.31,2.94-20.62-.54a6.76,6.76,0,0,1-.23-1.22l.14-1.06c5.43,3.63,15.34,3.95,21.15.33l.1.73a8.38,8.38,0,0,1-.54,1.76" transform="translate(-206.72 -268.52)"/></svg>