<svg xmlns="http://www.w3.org/2000/svg" viewBox="0 0 48.44 21.71">
  <defs>
    <style>
      .cls-1 {
        fill: #382c2a;
        fill-rule: evenodd;
      }
    </style>
  </defs>
  <title>africa-animals</title>
  <g id="design">
    <g>
      <path class="cls-1" d="M53.87,25.76h0s.09-.12,0-.17,0,0,0-.07a.26.26,0,0,0-.24.09c-.08,0-.1.06-.09.15A.45.45,0,0,0,53.87,25.76Z" transform="translate(-26.36 -25.19)"/>
      <path class="cls-1" d="M58,25.8c.06,0,.05-.1.05-.18s-.13,0-.16,0v0a.14.14,0,0,0,0,.14C57.87,25.83,57.91,25.81,58,25.8Z" transform="translate(-26.36 -25.19)"/>
      <path class="cls-1" d="M54.6,25.83a.26.26,0,0,0,.09-.26c0-.05-.07,0-.12,0a.26.26,0,0,0-.14,0h0c0,.14.09.18.14.26Z" transform="translate(-26.36 -25.19)"/>
      <path class="cls-1" d="M57.71,25.89s.06-.07,0-.14a.18.18,0,0,0-.23.05C57.54,25.88,57.62,25.89,57.71,25.89Z" transform="translate(-26.36 -25.19)"/>
      <path class="cls-1" d="M34.53,28c0-.07.09-.11.08-.21s-.13,0-.19,0h0c-.15,0-.29,0-.3.17s.07.06.11.09S34.46,28.11,34.53,28Z" transform="translate(-26.36 -25.19)"/>
      <path class="cls-1" d="M61,25.73h0a.25.25,0,0,0,.13,0,.27.27,0,0,0,0-.19s-.06,0-.09,0-.06,0-.12,0,0,.12,0,.12S61,25.68,61,25.73Z" transform="translate(-26.36 -25.19)"/>
      <path class="cls-1" d="M74.8,46.38s-5.09-.9-11.85-1.46v-.06c0-.08,0-.11-.06-.17s0-.16,0-.17,0-.06,0-.11,0,0,0,0a.19.19,0,0,1,0-.15s0,0,0-.07a.7.7,0,0,0,0-.5s0,0,0,0,0,0,0,0v-.15a3,3,0,0,0,.13-.55s0,0,0-.08a4,4,0,0,1,.1-.52v0s0,0,0,0v-.36A.63.63,0,0,1,63,41.6h0s0-.11,0-.11V41.4s0-.07-.07-.06,0-.05,0-.09,0,0,0,0,0,0,0,0-.09-.22-.16-.31-.06-.09-.08-.15a.5.5,0,0,1-.05-.13h0s0,0,0-.06-.07-.14-.13-.18a.46.46,0,0,0-.09-.15.17.17,0,0,0-.1-.13c-.06-.08-.1-.16-.2-.19s-.16-.06-.22-.11a.63.63,0,0,0-.28-.15s-.09,0-.15-.07-.05-.06-.11-.06-.07,0-.08,0l-.24-.09c0-.05-.18,0-.22,0h-.41c-.1,0-.15,0-.24,0h-.28l0,0h-.28c-.1-.07-.17.05-.26.05h-.07a2.64,2.64,0,0,0-.3.1h0c-.09,0-.24.12-.35.07s0,0-.09,0-.19-.05-.28-.09a.57.57,0,0,0-.3-.15h0s-.1-.06-.15-.09h0v0h-.16c-.08.06-.21.08-.23.2s-.08.09-.11.15v0a.19.19,0,0,0-.07.13s0,.07,0,.11-.26.16-.26.36c-.05,0,0,.13,0,.18v.17c-.16.34,0,.83-.15,1.08-.07,0-.1.12-.15.18s-.1.05-.13.1-.11.05-.13.11a1.16,1.16,0,0,0-.22.13v0a.39.39,0,0,0,.28-.06s.11,0,.13-.07.08,0,.09,0l.13-.09c-.1.24-.34.34-.52.5,0,0,0,0,0,0s.26,0,.28-.07a1.39,1.39,0,0,0,.21-.11s0,0,0,0-.06.24-.09.35a3.89,3.89,0,0,0-.17.41,1.42,1.42,0,0,0-.13.62v.29c0,.16.14.2.26.26a.54.54,0,0,0,.23.1h0a.5.5,0,0,0,.19,0c-.09-.14-.1-.13,0-.31a.13.13,0,0,0-.11,0,.44.44,0,0,1-.17,0h0a.44.44,0,0,1-.1-.34.12.12,0,0,1,0-.11v0s0-.07,0-.11a.46.46,0,0,0,.09-.17,1.28,1.28,0,0,0,.11-.2c0-.1.1-.16.13-.26s.12-.21.19-.3a1,1,0,0,0,.15-.33,1.2,1.2,0,0,0,.07-.3.46.46,0,0,1,0-.21s0,0,0,0a.79.79,0,0,1,0,.09c0,.05.11.15.2.08s-.06-.16,0-.26a.1.1,0,0,1,0-.08.29.29,0,0,1,.19-.11l.05,0c.06,0,.08,0,.13-.07s.05-.07.1-.09,0,.18,0,.26a.77.77,0,0,1,.23.59s0,0,0,.11a8.42,8.42,0,0,0,0,.88v.65a.69.69,0,0,0,0,.35c0,.07,0,.1,0,.15a.36.36,0,0,0,.07.19s0,0,0,.09,0,.05,0,.09v.06l0,0c-1.46-.07-3-.11-4.45-.12q0-.12-.06-.21a.66.66,0,0,0-.07-.25.62.62,0,0,0-.07-.23c0-.06,0-.08,0-.14v0c0-.08,0-.12,0-.21s0-.11,0-.2,0-.12,0-.17,0,0,0-.07,0-.07,0-.12c0-.2,0-.42.07-.63a.42.42,0,0,0,0-.27V41.9a.15.15,0,0,0,0-.1v0a.92.92,0,0,0,0-.25h0c0-.1.06-.21.14-.25h.25c.09,0,.11-.09.16-.14a.13.13,0,0,0,0-.09s-.18,0-.22,0-.05,0-.06,0a.08.08,0,0,0,0,0v0a.45.45,0,0,0,.09-.33v-.14a.56.56,0,0,1,0-.23h0s0,0,0-.06h0a.66.66,0,0,0,.23-.35s0,0,0-.06a13.62,13.62,0,0,1,.46-1.49.42.42,0,0,0,0-.17c.09-.15.17-.3.25-.46h0c.1-.16.2-.32.31-.48s.05,0,0-.07,0,0,0,0,.09-.15.14-.21a.43.43,0,0,1,0-.07s0-.05,0-.09,0,0,0,0,0,0,0-.07a1.53,1.53,0,0,0,.31-.4s0,0,0,0,0,0,0,0a.58.58,0,0,0,.18-.2s0,0,0,0a.39.39,0,0,0,.08-.14l.15-.28a.08.08,0,0,0,0-.07.14.14,0,0,0-.07-.11s0,0,0,0,0-.12,0-.18,0-.24,0-.35v-.33a2.3,2.3,0,0,1,0-.28v-.21s0-.12,0-.14a.34.34,0,0,0,0-.19,1.28,1.28,0,0,0,0-.3v-.07c0-.24.07-.34.13-.49s0-.06.05-.09a.16.16,0,0,0,0-.11.2.2,0,0,0,.07-.12,2.06,2.06,0,0,1,.28-.31l.07,0c.07,0,.17-.05.23-.11a.12.12,0,0,0,.1-.05c.05,0,.06,0,.09-.05a.23.23,0,0,0,.14-.09,1.28,1.28,0,0,0,.28-.16c.05,0,.08-.05.12-.07a10.86,10.86,0,0,0,1-.45c.07,0,.11-.1.17-.14s0-.06.09-.07.21-.23.33-.34.08,0,.11-.08.07,0,.09-.06.09,0,.1-.05c.17-.05.26.07.46,0,0,0,0,0,0,0h.14a1,1,0,0,0,.42-.1.71.71,0,0,0,.23-.12.37.37,0,0,0,.19-.2.26.26,0,0,0,.11-.07,6.21,6.21,0,0,0,1.29-.21h.06l.37-.14s0,0,0,0a3.12,3.12,0,0,0,.49-.19.67.67,0,0,0,.19-.09s.06,0,.07,0,.15,0,.16-.1a.65.65,0,0,0-.21.05.94.94,0,0,0-.16,0c0-.09.06-.09.06-.16V29s.09,0,.08,0h.18c.06,0,.07,0,.14,0s.2.08.23.19.08,0,.12,0v0s0,0,0,0,.33,0,.32.2c.11,0,.13.06.21.08s0,0,0,0,0-.08-.12-.07-.15.07-.16,0-.33-.05-.37.07.23,0,.32,0l.05,0a3.45,3.45,0,0,0,.34.14.06.06,0,0,1,.05,0s.11-.05,0-.09a0,0,0,0,0,0,0s0,0,0,0,.16.07.23,0h0s0,.05,0,.07a0,0,0,0,0,0,0c-.08.07.09.14.14.09a.08.08,0,0,0,0-.05h0a.28.28,0,0,1,.21.07s0,0,0,0,.13.09.18,0,0,0,0-.08.2.05.21.14.23.06.31,0,0,0,.07,0,.12.18.23.21.09-.11.16,0h0s0,0,0,0h0a.09.09,0,0,0,.15-.05c0-.1.14,0,.21,0s.05.13.08.19.17.06.28.05.07-.13.13-.17.12.09.19,0v0s0-.12.12-.12,0,.12.09.12,0,0,0,0a.5.5,0,0,0,.08-.12.07.07,0,0,0,0-.07s0-.12.09-.09l.07,0a.18.18,0,0,0,.29,0s0,0,0,0,0,.16.19.13h0c.12,0,.2,0,.23-.13s0,0,0,0,0,0,0,0v-.09s0-.12,0-.17a1.24,1.24,0,0,0-.46-.23c0-.06,0-.05,0-.09s0-.05,0-.1,0-.05.05-.07.12-.13,0-.18,0,0,0,0-.21-.12-.33-.16,0-.05-.09-.05a.08.08,0,0,0-.1-.06.6.6,0,0,0-.2,0h0c-.08,0-.09,0-.16,0h0l0,0a.08.08,0,0,1-.07,0,0,0,0,0,1,0,0c0-.06,0-.07,0-.11s0,0,0-.05a.19.19,0,0,0,0-.16s0,0,0,0a.23.23,0,0,0-.16-.05s0,0,0,0,0-.08,0-.15-.18-.1-.21,0H68a.47.47,0,0,1-.14-.14v0c0-.05,0-.06-.07-.08a.26.26,0,0,0-.18-.09s0,0,0,0a.44.44,0,0,0-.21,0h-.06c0-.07-.06-.21-.15-.14s-.24,0-.27.08h-.14a1.75,1.75,0,0,1-.33-.05v0s0-.07.12-.06.11,0,.14,0,0-.1-.07-.11a1.1,1.1,0,0,0-.31,0c-.08,0,0,.15,0,.17a.7.7,0,0,1-.4-.16v0a.09.09,0,0,1,.09,0h0s.15,0,.16,0a.16.16,0,0,0-.09-.12c0-.05-.11-.09-.16,0h0s0,0,0-.05,0-.06,0-.07-.1,0-.05-.09h.05v0l.07.09s0,.05.11.05a.21.21,0,0,0,.12-.21s0-.1,0-.11-.07,0-.13,0h-.14s0,0-.07,0-.13,0-.17,0,0,0,0,0,0-.11,0-.12-.16-.08-.18,0,0,.09,0,.07h-.18s0,0-.08,0h-.11v0s0,0,0-.06.07,0,.12,0,0,0,0,0,.08,0,.11-.07a.19.19,0,0,0,.05-.11.22.22,0,0,0-.14-.1.53.53,0,0,0-.19-.06v-.07s0,0,0,0a.42.42,0,0,0,0-.16s-.07,0-.12,0-.07,0-.1,0-.15,0-.21,0l0,0h-.07l-.21.07s-.07,0-.09.05l-.05,0a.26.26,0,0,0-.09.05s0,0,0,0a.38.38,0,0,0-.18-.12.59.59,0,0,1-.35.07c-.2-.13-.39,0-.67,0-.08.08-.1.22-.17.32s-.17,0-.23.05,0-.13,0-.16v0l0,0c.05,0,.05-.2,0-.21a.09.09,0,0,0-.09,0,.72.72,0,0,0-.21.12.32.32,0,0,1-.33,0c-.1,0-.1.15-.25.13v-.13s0-.1,0-.12c-.21,0-.25.12-.38.18s-.17,0-.2.05a.18.18,0,0,0-.1.09s0,0,0,0,0,0,0-.07,0-.05,0-.05.09-.12.12-.19-.12-.1-.23-.07c0-.28-.37-.11-.19,0-.12,0-.18.28,0,.28l.07,0s0,0,0,0,0,0,0,.05,0,0,0,0-.18,0-.22,0,0-.12-.06-.14,0-.1-.08-.08a.51.51,0,0,0,0-.18l0,0a.08.08,0,0,0-.07,0c-.21,0-.52,0-.49.23,0,0,0,0,0,0s.19,0,.18-.1.23,0,.26.07c-.13,0-.18.11-.3.14s.06.09,0,.08-.21-.07-.36-.07v-.21a.94.94,0,0,0-.3-.07c0-.11.06-.33,0-.4s0,0,0,0H58.9a.14.14,0,0,0-.09.21c-.07.15-.29.16-.28.39a.14.14,0,0,0-.11.07s0,0-.05,0-.15,0-.17.07h0c-.12.06-.23,0-.34,0a.3.3,0,0,0-.4.16h-.09v0s0,0-.08,0,.13-.07.08-.22h0a.07.07,0,0,0-.06,0c-.06-.08-.42-.13-.45,0s-.06,0-.09,0a.22.22,0,0,0-.18.1h0V26c-.06.06-.07,0-.11-.05s0,0,0,0-.13-.07-.24-.07-.05,0-.11,0a.26.26,0,0,1-.21,0s0-.12-.08-.16a1,1,0,0,0,0-.1v-.11a.5.5,0,0,0,.05-.31s0,0,0,0h-.19c-.06,0-.13,0-.16.06h0s-.11,0-.14.08a.09.09,0,0,0,0,.07c-.06.08,0,.17.07.2s0,0,0,.07a.08.08,0,0,0-.05.05c-.06,0,0,0-.07.07s0,0,0,0,0,.13.09.14a.1.1,0,0,0,.14,0c.07,0,.16-.05.19,0s.05.06.05.11v0h-.12a1.52,1.52,0,0,0-.23,0,.37.37,0,0,0-.21,0,.22.22,0,0,0-.17.05s0,0,0-.05V26a.08.08,0,0,0,0-.07h-.24s0,0,0,0a.33.33,0,0,0-.19.05c-.07,0-.12.09-.18,0s0-.09,0-.1.15-.06.14-.18a.36.36,0,0,0-.23,0c-.08,0-.18,0-.23,0s-.1,0-.12.06a.44.44,0,0,0-.21.17s0,0,0,.05-.18.1-.28.14h-.08s0,0,0-.07,0,0,0,0,0,0,0,0,.07,0,.09-.07,0-.09,0-.17-.21-.09-.3-.07-.05,0-.1,0h-.11s0,0,0-.06,0-.14-.09-.08a1.44,1.44,0,0,0-.44.17l-.14,0s0,0,0,0a.1.1,0,0,0-.05,0A.37.37,0,0,0,52,26a1.11,1.11,0,0,0-.16.07s0-.08-.05-.09-.13-.14-.21-.09,0,0-.05,0-.22,0-.37,0-.06-.06-.1-.07-.13.09-.25.07.09-.12,0-.19-.06-.08-.09-.11-.05,0-.09-.05a.56.56,0,0,0-.07.23s0,0,0,0l-.14.07h0a.36.36,0,0,0-.32-.15c0,.07,0,.18-.09.22s-.18,0-.29-.08,0,.05-.09.05-.15,0-.09.09v0s0,.08,0,.11-.06,0-.11,0,0,0,0,0,0-.1,0-.12,0-.1-.12-.09-.11.13-.07.19v.05s0,0,0,0v0s0,0,0,0a.39.39,0,0,1-.19,0h0v0c.17,0,.15-.26,0-.35s0,0,0,0-.29.11-.35,0a.83.83,0,0,0,.22-.14c.06,0,.1-.12,0-.16s0-.2-.2-.18-.2,0-.26,0a2.07,2.07,0,0,0-.37.05c-.05,0,0-.13-.1-.15a.79.79,0,0,0-.26.43c-.17-.16-.45,0-.37.27,0,0,0,0,0,0a.08.08,0,0,0,0,.07h0c-.06,0-.07,0-.11,0s0,0-.1,0-.06,0-.11,0-.09,0-.1,0h0s0,0,0,0,0-.14-.1-.18-.39,0-.48,0a.47.47,0,0,0-.22.17l0,0c-.19-.08-.43.11-.68-.05l-.19,0c-.09,0-.15-.09-.3-.06s0,0,0,0c-.25,0-.35.32-.6.16,0,0-.09,0-.12,0s-.05,0-.07,0-.05,0-.07,0-.12,0-.18,0-.1,0-.1,0,0,0,0,0-.05,0-.07.05.18.11.14.26,0,.1,0,.13-.06-.17-.14-.2-.08.05-.16,0a.13.13,0,0,0-.12-.05c-.13,0-.17,0-.28,0s-.07,0-.07.07,0,0,0,.07,0,.09,0,.11,0,0-.07,0,0-.07-.08-.07-.07-.07-.07-.14,0-.11,0-.18-.06-.14-.13-.17-.19-.06-.24,0h0a1,1,0,0,0-.56.34c-.14,0-.09-.17-.21-.18s-.11,0-.14.05-.07,0-.14,0h-.12s0-.1,0-.12v0a.2.2,0,0,0-.11-.11.32.32,0,0,0,0,.2v.07s-.1,0-.14.07.12,0,.12.05h-.11c-.07,0-.1,0-.17,0h-.14c0-.07-.07-.06-.11-.09a1.11,1.11,0,0,0-.33,0c0,.08.1.09.14.15s-.08,0-.11.06h0a1.57,1.57,0,0,0-.38,0l-.07,0s0,0-.07,0,0-.06-.09-.07-.09-.15-.18-.18,0,0,0,0-.13,0-.14,0a.14.14,0,0,0-.11,0s-.07,0-.08,0a.2.2,0,0,0-.11.06.09.09,0,0,0-.09.05.12.12,0,0,0,0,.05.08.08,0,0,0-.07,0h-.07c-.05,0-.05,0-.1,0s0,0-.06,0H38c0,.1.09.12,0,.2h0c-.1,0-.25,0-.32,0s-.19-.14-.24,0-.16,0-.2.07-.19.07-.21.2a.08.08,0,0,1,0,.07.56.56,0,0,0-.18.07h0s0,0,0,0l-.19.05s0,0,0,0h0l-.07,0s0,0-.07,0-.12,0-.16.05a.44.44,0,0,0-.24.1s-.06.12,0,.14,0,.07.09.07,0,0,0,0,0,0,.05,0-.06,0-.05,0,0,0-.09,0H36c0-.05-.08-.08-.1-.14v0c0-.1-.15-.15-.18-.05s-.08.13-.16.17-.12-.08-.16,0,0-.09-.1-.08,0,0,0,0,0,0-.09,0-.12,0-.15,0a1,1,0,0,0-.32.18.23.23,0,0,0-.07.07c-.1.07-.14.18-.3.19a3.13,3.13,0,0,0-.7.19v0a.64.64,0,0,1,.2.23s0,.08.05.12-.32.29-.16.47,0,.05,0,.11a.25.25,0,0,0-.06.26c0,.12.17.14.28.18h.09s0,0,.07,0,.06.05,0,.11a.9.9,0,0,0,.18,0l.07,0c.06.08-.1.28,0,.33l.06,0c0,.07,0,.17-.11.12h-.05c-.14,0-.22,0-.23.16a.46.46,0,0,0,.16.11s.07,0,.12,0,.14-.08.28,0,0,0,0,0v0c.06,0,0,0,.11,0a.14.14,0,0,0,.19,0h.14a.48.48,0,0,0,.19-.05h0c.07,0,.09,0,.16,0s-.12.08-.18.13a.21.21,0,0,0-.12,0,.19.19,0,0,0-.18.18s.07,0,.11,0a.35.35,0,0,0,.28-.11.2.2,0,0,0,.09-.09c.06-.06.15-.1.19-.19s0,0,0-.09-.18,0-.22-.1a.62.62,0,0,1,.29-.09.21.21,0,0,1,.14,0c0,.1-.13.19-.07.3s.14-.06.22-.07a.48.48,0,0,0,.09.14c0,.11.17.11.19,0s.26.08.37-.07.14-.09.21-.14a.38.38,0,0,0,.11-.11s.07-.09.15-.08a.13.13,0,0,1,.09,0c.06,0,0,0,.11,0a.43.43,0,0,0,.17,0c.05,0,.16,0,.23,0h0s.06,0,.1,0,0,0,0,0h.07s.07,0,.07-.06,0,0,.07,0-.32.05-.36.19a.49.49,0,0,1,0,.13v0a.51.51,0,0,0,.18.3c.06-.15.23,0,.3-.12h0a1.8,1.8,0,0,0,.35.08s0,0,0,0,0,0,.09,0,0,0,.07,0,0,0,.07,0a.84.84,0,0,0,.07-.19s0-.08-.11-.09-.11,0-.16-.05-.06,0-.1,0,0,0-.07,0,0,0-.09,0v0h0a1,1,0,0,1,.14-.15c.06,0,0-.06.08-.08s.14,0,.21.05.27.13.39.1h.09s0,.09.05.09.14.12.17.21v0s0,0-.1,0a.91.91,0,0,0-.25.07s0,0,0,0,0,.17,0,.19a.05.05,0,0,0,.06,0,.24.24,0,0,0,.14.09s0,0,0,0,0,0,0,.06,0,.12,0,.14,0,0,0,0,0,0,.09,0,.08-.06.16-.05a.16.16,0,0,0,.09-.28h0a1,1,0,0,0,.27-.09c.05,0,.05-.1.08-.14s.06-.07.11-.09,0,0,0,0a.09.09,0,0,0,.09-.08.07.07,0,0,0,0-.06c0-.07.07-.19.21-.12a.66.66,0,0,0,.15,0c.06,0,.08,0,.14,0s0,0,.06,0l.31.07a1.64,1.64,0,0,1,1,.42s0,0,.07,0,0,0,0,0,0,0,.07,0,0,0,.08.06,0,0,0,0,.06,0,.09.06a4.56,4.56,0,0,0,.44.24s0,.05.08.05.07,0,.09.06l.07,0a1.29,1.29,0,0,0,.16.09l.17.09a.23.23,0,0,0,.07.07.07.07,0,0,1,0,.08c0,.17.13.23.23.3s.09.08.14.11h.07a.66.66,0,0,0,.25.13.39.39,0,0,0,.17.09s0,0,0,0A.4.4,0,0,0,45,33s0,0,0,0l.12.07c.06.05.14.09.21.14h0a.2.2,0,0,0,.1.07s.05,0,.07,0,0,0,.05,0a2.13,2.13,0,0,0,.34.25.16.16,0,0,0,.07.07,1.3,1.3,0,0,1,.31.31.05.05,0,0,0,0,0h0v0h0a2.59,2.59,0,0,0,.39.42c.16.18.34.38.48.57a.73.73,0,0,0,.08.09l0,0s0,0,0,0,0,0,0,0,0,.07.07.09l.18.26s0,0,0,0,0,0,0,0a.07.07,0,0,0,0,.06A2,2,0,0,0,48,36c0,.08.1.14.14.21a.91.91,0,0,0,.18.21,1,1,0,0,0,.23.26.57.57,0,0,0,.15.16.2.2,0,0,0,.09.09.08.08,0,0,0,0,0,.2.2,0,0,0,.09.09,5.56,5.56,0,0,0,.44.39.24.24,0,0,0,.09.08l.07.07h0a.1.1,0,0,1,.05.06s0,0,0,0a1.2,1.2,0,0,0,.22.23l.21.25s0,0,0,0a.07.07,0,0,0,0,.07c0,.05,0,.1.07.12v0l0,0a1.21,1.21,0,0,0,.09.2l0,0c0,.06.05.1.07.16s0,.09.06.1a2.28,2.28,0,0,0,.29.63c0,.05,0,.06,0,.09s.12.22.19.32a.1.1,0,0,0,0,0c0,.1.09.16.12.24a4.2,4.2,0,0,1,.26.65.08.08,0,0,0,0,0,.6.6,0,0,1,0,.42s0,0,0,0,0,0,0,.07a.12.12,0,0,0,0,.11c0,.22.24.2.25.42,0,0,0,0,0,.1v.11a1,1,0,0,1,.19.17,2.24,2.24,0,0,1,.13.27s0,0,0,0v0l.06.16v0a1.38,1.38,0,0,0,.14.3c.06,0,0,.15.07.21v0s0,0,0,.09v.09c0,.06,0,.07,0,.14s0,.07,0,.14,0,.1,0,.1a2.44,2.44,0,0,0,0,.28s0,0,0,.07,0,0,0,.06l-1.14,0v-.06s0-.11,0-.15c.2-.37-.23-.49-.23-.71s.3-.27.23-.59a1,1,0,0,1,0-.18l.08,0c.12.17.31.26.43.41a.41.41,0,0,0,.18.34c0-.17.08,0,.16,0a1,1,0,0,1-.08-.18c0-.05,0-.05,0-.1s0-.13,0-.13-.39-.26-.57-.4a.93.93,0,0,0-.35-.23c-.11-.07-.19-.14-.3-.2h0a.35.35,0,0,0-.2,0s-.13,0-.19,0h-.18c-.07,0-.23,0-.33,0h-.16a1.52,1.52,0,0,1-.2-.06.3.3,0,0,0-.13-.12c-.12,0-.32-.08-.32,0s0,0-.06,0,0,0,0-.07-.3.37-.51.13l0-.06s0,0-.06-.07,0,0,0,0a.15.15,0,0,1,0-.08s.07,0,.08,0,0,0,0,0a.33.33,0,0,0,.12-.14s0-.09,0-.14a.47.47,0,0,0-.14,0s-.12,0-.12,0l-.06,0a.09.09,0,0,0-.06.06h-.08a.19.19,0,0,1,0-.08.09.09,0,0,0,.06-.06.4.4,0,0,1,.16-.08h.26c.12,0,.23,0,.21-.17s0,0,0,0a1.16,1.16,0,0,0,0-.18s0-.06,0-.1.08-.09.16-.1l.06,0c.16,0,.31,0,.31-.13-.05.08-.17.09-.31.08H49s-.07,0-.08.05a.72.72,0,0,0-.18.24s0,0,0,.08,0,.13,0,.18-.24-.07-.34,0h0a.19.19,0,0,0-.16,0,.65.65,0,0,0-.17.16.05.05,0,0,0,0,.06,1,1,0,0,1-.12-.23.9.9,0,0,0,.14-.2s0-.06,0-.12a.26.26,0,0,0,0-.18c0-.06-.06-.1-.08-.17s.09,0,.1-.06h-.16s0,0-.06,0,.07.12.12.17,0,0,0,0c0,.2-.05.34-.18.4s-.16.1-.08.15h0s0,0,.06,0,0,0-.06,0v.12h0c.14.16,0,.35-.14.43v0s.06.2.16.12h.22a.34.34,0,0,1,.08.3c0,.06,0,.07,0,.13a1.69,1.69,0,0,0,.11.34,2,2,0,0,0,.12.21c0,.1.09.18.2.2s0,0,.06,0l.16,0s0,0,.07,0v.2a4.16,4.16,0,0,0,0,.8l-1.79.09a.87.87,0,0,1,0-.37c0-.1,0-.27,0-.34v-.54a2.36,2.36,0,0,1,0-.39v0s0-.12,0-.18v0s0-.12,0-.17v-.13a.34.34,0,0,0-.06-.15v-.5a4.89,4.89,0,0,1,.06-.87v0c.06-.07,0-.22,0-.34V40.3a1,1,0,0,0,0-.3,1,1,0,0,0-.08-.32c0-.06,0-.14-.09-.18s0,0,0,0a.18.18,0,0,0,0-.07,1.44,1.44,0,0,0-.39-.49.64.64,0,0,0-.26-.18.86.86,0,0,0-.32-.13,1.51,1.51,0,0,0-.3-.1.18.18,0,0,0-.11,0,.12.12,0,0,0-.11,0,.17.17,0,0,0-.13,0s0,0,0,0a.94.94,0,0,1-.46-.37,2,2,0,0,0-.06-.26.2.2,0,0,0-.11-.15.28.28,0,0,0-.13-.15v0a4.78,4.78,0,0,0-.45-.45h0a.37.37,0,0,0-.12-.13s0,0,0,0a1.58,1.58,0,0,0-.3-.28s0,0,0-.05-.06,0-.07-.08-.2-.31-.3-.46a.59.59,0,0,0-.11-.19,1.33,1.33,0,0,0-.1-.24c0-.07-.08-.11-.09-.19a2.56,2.56,0,0,1-.11-.24,3.62,3.62,0,0,1-.13-.35s0-.09-.06-.11a.46.46,0,0,0-.09-.17.53.53,0,0,0-.13-.19.07.07,0,0,0,0-.07s0-.07-.07-.11,0,0,0,0a.21.21,0,0,0-.09-.13.53.53,0,0,0-.11-.15.41.41,0,0,0-.08-.13s0-.08-.07-.09V33.4c0-.09.05-.13.05-.23s-.14,0-.2.08a.11.11,0,0,0-.06.07c-.06,0-.11,0-.13,0A.32.32,0,0,1,41.3,33c.05-.1,0-.13-.11-.16v0h-.08v.07c-.1,0-.15,0-.24,0s-.07.34-.15.47h0c-.07,0-.06.06-.11.07a2.13,2.13,0,0,0-.26.26s0,0,0,0,0,0,0,0a1.51,1.51,0,0,0-.22.37s0,0,0,0a.05.05,0,0,0,0,0s-.06.07-.09.11a.12.12,0,0,0,0,.11s0,.06,0,.07v.15s0,0,0,0,.07,0,.11,0,.32-.1.53-.12h.16s.06,0,.09,0a.28.28,0,0,0,.21-.09h.18a.64.64,0,0,1,.21.19c0,.06,0,.13.07.16s0,.06,0,.06,0,0,0,0a.89.89,0,0,0,.07.26c0,.07,0,.1,0,.15a.12.12,0,0,0,0,.11v.07s0,.15,0,.17v.09s0,.11,0,.11V36s0,0,0,0,0,.1,0,.15,0,.15,0,.24,0,0,0,0a1.12,1.12,0,0,0,.11.39s0,.06,0,.07a.18.18,0,0,0,0,.13v0s0,0,0,.06a0,0,0,0,0,0,.05,2.2,2.2,0,0,0,.17.45s0,.11.06.13,0,.09,0,.11a.3.3,0,0,0,.08.17.13.13,0,0,0,0,.09.44.44,0,0,0,.08.15c0,.11.14.17.18.28s0,0,0,0v.2c0,.09,0,.12,0,.22h0c0,.06,0,.07,0,.13s0,.07,0,.1v0c-.06.06-.06.19-.06.32v.09a.59.59,0,0,0,.08.34s0,.06,0,.07,0,0,0,0v0s0,0,0,0,0,.05,0,.1,0,.13,0,.16,0,.07,0,.13,0,0,0,.1v0a1.87,1.87,0,0,0,.08.34v0s0,.11.07.13a.52.52,0,0,0,.06.2v0c.05.09.05.22.11.3a.62.62,0,0,0,0,.16,3.07,3.07,0,0,0,.11.36v.05a.85.85,0,0,0,0,.17,1.17,1.17,0,0,0,.13.52s0,.06,0,.06,0,0,0,.07,0,0,0,0l.09.32v1.17a.64.64,0,0,1,0,.24c-8.79.7-17.13,2-17.13,2ZM69.11,29.3s.09,0,.11,0,0,0,.07.05a.45.45,0,0,0,.19.14s0,0,0,0h-.09c0-.12-.16-.14-.25-.19S69.11,29.33,69.11,29.3Zm-.75-.17.07,0h.17s0,0,0,.05-.17,0-.25,0S68.35,29.13,68.36,29.13ZM68,29s0,0,0,.08,0,0,0-.08,0,0,0,0h0Zm.18-1a.23.23,0,0,0,.12.1c0,.07,0,.08-.07.13a.12.12,0,0,1-.07,0s0,0,0,0,0,0,0-.05-.08,0-.12,0-.13,0-.11-.05a.33.33,0,0,1,.23-.1C68.12,28,68.11,28.05,68.15,28.06Zm-.35-.28c.07,0,.09,0,.16,0s.17,0,.1.07-.13,0-.21-.06,0,0,0,0h0S67.78,27.78,67.8,27.78Zm-.53-.11h0a.15.15,0,0,1,.14,0s0,0,0,0,0,0,0,0-.07.09-.11.14a.23.23,0,0,1-.12,0C67.16,27.76,67.24,27.74,67.27,27.67Zm-.24.39c.08.05,0,.13-.06.16s-.16-.09-.17-.2S66.94,28.05,67,28.06Zm-.74-.79s0-.05.07-.05.06.07.09.1,0,.08.07.09,0,0,0,0h-.14v0l-.1,0S66.3,27.34,66.29,27.27ZM34.51,28.71c.07,0,.1,0,.19,0a.1.1,0,0,1-.07.07A.11.11,0,0,1,34.51,28.71Zm.21,1.71v.06l0,0c0-.06,0-.11,0-.12S34.71,30.4,34.72,30.42Zm.45-1.15s0,0,0,0l-.27,0s0,0,0,0h0c0-.07.06-.09.06-.16a.12.12,0,0,1,.14.09h0s0,.06.09.07A.06.06,0,0,0,35.17,29.27Zm.88.19c-.12,0-.17.08-.28.09H35.7s-.07-.05-.09-.09-.11,0-.12-.09,0-.09,0-.12a1.16,1.16,0,0,1,.34.05l.17.11s0,0,0,.05Zm1.44-2.22v0s.06,0,.08,0-.06.11-.07.17S37.5,27.27,37.49,27.24Zm-.3.31a.48.48,0,0,1,.14-.09h0s.08,0,.07.06,0,0,0,0a.07.07,0,0,0-.07,0h-.07C37.2,27.59,37.11,27.58,37.19,27.55Zm-.82,2c-.08.11,0,.27,0,.44,0,0,0,0-.06,0s0,0-.05,0-.12-.07-.07-.14,0,0,0,0a.26.26,0,0,0,.09-.15h0v-.06h0s0,0,.06,0Zm-.11-1.72s0,0,0-.1.06-.05.12-.05a.38.38,0,0,0,.16,0h.12v0C36.53,27.69,36.44,27.79,36.26,27.81Zm.51.06a0,0,0,0,0,0,0s0,0,.05,0,0,0,0,.06a.15.15,0,0,1,0,.1s0,0,0,0h-.1s0,0-.05,0S36.75,27.92,36.77,27.87Zm0,2.52h.07s0,0,0,0S36.67,30.44,36.73,30.39Zm.18-.47c-.07,0-.1,0-.16,0h0s.09,0,.1-.05.15,0,.2,0,0,0,0,0S36.91,29.88,36.91,29.92Zm.45-.63h0s-.09,0-.12.07-.07.06-.1,0V29.3c0-.25-.29-.17-.41-.28,0-.05.08-.07.11-.12l0,0h0c.05,0,0,0,.07,0S37,29,37,29a2,2,0,0,0,.33.32Zm.39-.21a1,1,0,0,1-.32-.07v0c-.09,0-.12-.1-.19-.14s-.05-.08-.07-.12.08,0,.14,0h0a.79.79,0,0,0,.38,0s0,0,0,0a.55.55,0,0,0,.19,0h0V29C37.87,29,37.83,29.07,37.75,29.08Zm.39,1c-.07,0-.17-.05-.21-.09s0,0,.08,0,.1,0,.11.05h0Zm.12-1.26s0,0,0,0l-.09,0a.08.08,0,0,0,0-.07s0,0,0-.05.05-.06.07,0Zm.24,1.21s-.06,0-.07,0S38.63,30.07,38.5,30.06Zm.27-3.17h-.09v-.13s0,0,0,0h0s.1,0,.14,0h0s0,0,.07,0h.09s.15.1.07.11,0,0-.09,0a0,0,0,0,0-.05,0c-.06,0-.06,0-.11,0s-.07,0-.09,0Zm.21,3a.11.11,0,0,1-.06,0c0-.08,0-.19.07-.14S39,29.86,39,29.92Zm-.16-1.49v0h0s0,0,.1,0a.11.11,0,0,1-.09.09S38.85,28.44,38.82,28.43Zm.31,1.84c-.09,0-.14,0-.24,0s0-.05,0-.05H39a.54.54,0,0,0,.19.07S39.15,30.26,39.13,30.27Zm0-2.09c-.08-.06,0-.09.05-.12s0,0,0,0S39.18,28.19,39.12,28.18Zm.38-.59h0s0,.08,0,.07,0,0,0,0,0,0,0,0,0-.05-.07-.05S39.5,27.62,39.5,27.59Zm.11.73s0,0-.09,0h0s0,0-.09,0v.08a.21.21,0,0,1,0,.14s-.06,0-.09,0,0,0,0-.07h0c0-.12.1-.21.14-.32s.13.1.21.13S39.62,28.32,39.61,28.32Zm.26,3a.09.09,0,0,1-.09,0c-.09,0-.05-.1,0-.07h0s.06-.06,0,0S39.87,31.27,39.87,31.28ZM40,30.16s-.09.11-.1,0l0,0h0a0,0,0,0,0,0,0v-.05s.07,0,.08.05S40,30.12,40,30.16Zm.14-.47h.06s.05,0,.07,0S40.13,29.79,40.13,29.69Zm.7.45c0-.07,0-.12-.08-.14s0,0,0,0,0,0,0,0l.2.16s0,0,0,.05a0,0,0,0,0,0,0C41,30.27,40.82,30.21,40.83,30.14Zm1.11-3.32a1.05,1.05,0,0,0,.26-.13.06.06,0,0,0,0-.05s.07,0,.07,0v0s0,0-.07.05,0,0,0,0l-.12.08a1.75,1.75,0,0,0-.27.16s0,0-.07,0S41.9,26.89,41.94,26.82Zm-.74,1.45h-.09s.11-.15.11-.07S41.2,28.24,41.2,28.27Zm.14-1s-.05,0-.09-.05,0,0,0-.09l0,0s.07.07.14.07h0a.28.28,0,0,0,.21,0s0,0,0,0,0,.09,0,.09v0s.06.06.13.05v0H42s0,0,0,0v0s0,.09,0,.07h0v0h-.14s-.05,0-.11,0,0,0-.05,0A.36.36,0,0,0,41.34,27.29Zm.63.89c0,.05,0,.09,0,.09s-.08,0-.14,0h-.11c0-.05,0-.05,0-.09a.08.08,0,0,0,0-.05h0s0-.08,0-.09h0a.33.33,0,0,0,.13.07S42,28.16,42,28.18Zm.27,2.17s-.1,0-.09.07,0,0,0,.11a.08.08,0,0,0,0,0s0,0,0,.07,0,0-.07,0a.42.42,0,0,0-.18-.07.26.26,0,0,0-.14-.05s-.07,0-.1-.06-.13,0-.16-.07.27-.11.35-.12.1.09.14,0l.11,0h.1s0,0,.09,0S42.26,30.35,42.24,30.35Zm.28-.26a.79.79,0,0,0-.23-.09s0,0,0,0v0c.13,0,.22,0,.25-.1s0,0,0,.07,0,0,0,0S42.56,30.08,42.52,30.09Zm.1-.75s0,0,0,0v0s0,.05,0,.05-.05-.05-.05-.1h0a.25.25,0,0,1,.12,0Zm.05,9.83Zm19.94,3.6V42.7s0-.05,0-.08,0,0,0-.07,0-.07,0-.11a2.2,2.2,0,0,0,.15-.26s0-.12.07-.11v.33a1,1,0,0,1-.07.37v0a1.37,1.37,0,0,0-.08.67v.19c0,.13-.16.23-.07.37s.06.07.05.15-.2-.28-.22-.45a.25.25,0,0,0,0-.13A1.64,1.64,0,0,1,62.61,42.77Zm-.74,1.32v0c.11.12.08.37.17.5a.36.36,0,0,1,.07.24s0,0,0,.05l-.27,0a.42.42,0,0,1,0-.1s.11-.16,0-.23a.12.12,0,0,0,0-.11C61.88,44.3,61.81,44.18,61.87,44.09Zm-2-.44v-.08a.82.82,0,0,1,0-.28.33.33,0,0,0,.08-.2s0,0,0-.06,0-.11,0-.16.08.08.15.09.14.07.21.11l.26.06.2.09a1.51,1.51,0,0,1,.28.22s0,0,0,.06.08.12.13.17,0,.18,0,.2V44a4.44,4.44,0,0,1-.15.52v.21l0,.06-1-.07c0-.11-.11-.21-.09-.35v-.07a.77.77,0,0,0-.07-.28v0s0,0,0-.09,0-.12,0-.13Zm-1,.65v-.08s0-.09,0-.16v-.43a1.84,1.84,0,0,0,.07-.43c.05,0,.05.08.06.13s0,0,0,0,0,.09,0,.17.06.13,0,.24a3.33,3.33,0,0,0,.26.67,1.89,1.89,0,0,1,0,.23l-.52,0a.57.57,0,0,0,0-.24S58.9,44.31,58.86,44.3Zm-2.68-9h0v.09c0,.1-.07.18-.09.28s-.06.11-.1.16l0,0s0,0-.05.07a.93.93,0,0,0-.14.14h0a1.48,1.48,0,0,0-.24.26,1.26,1.26,0,0,0-.18.32.08.08,0,0,0,0,.07.23.23,0,0,0-.07.14s0,0,0,.09a1.73,1.73,0,0,0-.1.24,1.18,1.18,0,0,0-.07.2h0s0,0,0,0,0,.06,0,.1a1.57,1.57,0,0,0-.15.32s0,.06-.05.09h0a.09.09,0,0,0,0,.07s0,0,0,.06a2,2,0,0,0-.28.5c0,.07,0,.14-.07.21s0,.13-.07.18-.12.34-.17.53-.07.17-.14.22l0,0s-.06,0-.07.05,0,0,0,0,0,.07-.08.1,0,.05-.06.07a.44.44,0,0,0-.1.16s-.05,0-.05.09a.64.64,0,0,0-.11.16s0,0,0,.07-.08.15-.09.07V40.5a.2.2,0,0,0,0-.09v-.49c0-.07,0-.08,0-.14s0-.06,0-.09a0,0,0,0,0,0,0s.12,0,.16,0v0h0s0,0,0-.07,0-.15-.07-.18l-.14-.07a.08.08,0,0,0,0-.07.44.44,0,0,0,0-.18v0s0-.1,0-.14a1.66,1.66,0,0,1,.07-.7s0,0,0-.09c-.19-.13-.31.09-.4.16,0-.17-.07-.31-.09-.47v-.06a.55.55,0,0,1,0-.19v-.05s0,0,0-.07,0-.1,0-.18h0a.84.84,0,0,0,.06-.14.06.06,0,0,0,0-.06.06.06,0,0,0,.05,0v0s0-.06,0-.09,0,0,0-.07,0-.05,0-.1a.16.16,0,0,0,0-.12s0-.08,0-.09,0,0,0-.11a1.56,1.56,0,0,0,0-.57v-.13s0,0,0,0a1.66,1.66,0,0,0,.16-.21s0,0,0,0a1.37,1.37,0,0,0,.17-.17s.1-.07.12-.13a.83.83,0,0,0,.25-.33.08.08,0,0,0,0-.07.14.14,0,0,0,.07-.14.17.17,0,0,0,.06-.11h0c.07-.21.16-.4.23-.61v0c.07-.08.08-.23.18-.29a1.34,1.34,0,0,1,.12.24h0a0,0,0,0,1,0,0,2.89,2.89,0,0,1,.33.6c.19-.24-.12-.5-.21-.68a1.38,1.38,0,0,1-.18-.34.22.22,0,0,1,0-.15s0,0,.05-.07A.94.94,0,0,0,55,33L55.1,33h0l0,0c.1,0,.14-.14.21-.21a.6.6,0,0,0,.14-.21.13.13,0,0,0,0-.06s0-.06,0,0l.21.12a1.1,1.1,0,0,0,.14.09.15.15,0,0,0,.07,0v0s0,0,.07.06,0,.15,0,.19a.3.3,0,0,1,.06.23c0,.19,0,.44-.06.64v.09c0,.07,0,.08,0,.14a.39.39,0,0,0,0,.26.49.49,0,0,0,0,.13v.07a2.84,2.84,0,0,1,.06.31s0,0,0,0,0,.11,0,.19Zm-1-3.63s0,0,0,.07,0,0,0,0,0,0-.05,0-.13,0-.21,0c-.24.05-.34.25-.56.32a1.18,1.18,0,0,1-.23-.41c.32,0,.62,0,.65-.29.06,0,.12,0,.15,0a.5.5,0,0,0,.18,0c.07,0,.1,0,.18,0C55.07,31.38,55.18,31.51,55.13,31.67Zm-.07.4v0a.8.8,0,0,0-.1.23s0,0,0,.07-.24.16-.37.24a.81.81,0,0,0-.1-.21c-.05-.11-.11-.2-.16-.31.23,0,.38-.18.67-.09C55,32.05,55,32.05,55.06,32.07Zm-.74.37c0,.06,0,.11.07.16s0,0,0,.07,0,.06,0,.09,0,0,0,0,0,0,0,0,0,0-.07,0,0-.14-.07-.16-.06-.12-.07-.2a1.74,1.74,0,0,0-.66-.66l-.07,0a.78.78,0,0,0-.21-.09s0,0-.06,0,0,0,0,0h.09a2.84,2.84,0,0,1,.59,0A4.25,4.25,0,0,0,54.32,32.44Zm.85-1.93s0,0,0,0a.19.19,0,0,0,.11.07,1.92,1.92,0,0,0,.17.13.13.13,0,0,1,0,.09C55.31,30.73,55.18,30.68,55.17,30.51Zm2.18,1.14Zm.25-.56c-.08.05-.11.14-.17.21a.1.1,0,0,0,0,.05c0,.06-.1.09-.12.16a.08.08,0,0,0-.05,0s0,0,0,0l-.21.19h0s0,0,0,0a.37.37,0,0,0-.14.07c-.06,0-.08,0-.13.05a1.09,1.09,0,0,0-.17.13h0a.41.41,0,0,1,0,.09.41.41,0,0,0,0-.09.34.34,0,0,0-.09.08.36.36,0,0,1-.54.06s-.1-.06-.14-.09h0s0,0,0,0,0-.11,0-.19a.45.45,0,0,0,0-.28v-.35c0-.05,0-.1,0-.12s.06-.14.07-.21h0s0,0,0-.07a7,7,0,0,1,.83-.39s0,0,0,0,0,0,0,0a.4.4,0,0,0,.18-.14s0,0,.05-.07.12-.11.23-.14l.26-.08.07,0h0s0,0,.06,0,0,0,0,0a1.17,1.17,0,0,0,.33.11l.35.07s.06,0,.11,0a0,0,0,0,0,0,0c0,.06,0,.08,0,.13a1.35,1.35,0,0,1-.37.42.16.16,0,0,0-.12.09A.76.76,0,0,0,57.6,31.09Zm.32-1.24c0-.06.14-.05.19-.09a.48.48,0,0,0,.19-.05s0,0,0,0a.76.76,0,0,0,.24-.07c.05,0,.05,0,.09,0l0,0a.59.59,0,0,0,.2,0c.12,0,.16-.05.28,0h0s-.07,0-.07.07a.77.77,0,0,0-.18.1s-.06-.05-.07,0a.19.19,0,0,0-.14.07h0s0,0,0,.07-.07,0-.07.09,0,0,0,0l-.05.07c-.1,0-.14,0-.23,0a.44.44,0,0,0-.21-.07s-.1,0-.14,0Zm1.71.68a.12.12,0,0,0-.05,0s0,0,0,0a2.1,2.1,0,0,0-.35.31c-.05.05-.13.06-.18.11s-.05,0-.05,0a1.93,1.93,0,0,0-.41.12.21.21,0,0,0-.12,0,.85.85,0,0,0-.33.16s0,0,0,0-.05,0-.07.05h0a0,0,0,0,0,0,0,.28.28,0,0,0-.19.11s-.05,0-.06,0a.07.07,0,0,0,0-.07.4.4,0,0,0,.12-.16.06.06,0,0,0,0-.05.2.2,0,0,0,.09-.09,2,2,0,0,0,.58-.65s0,0,0,0,.19.13.35.13.42-.22.69-.16C59.66,30.49,59.64,30.5,59.63,30.53Zm1.77-.44a1.6,1.6,0,0,1-.35.11h-.12s0,0,0,0,.12,0,.16-.09,0,0,0,0a.88.88,0,0,1,.35-.06C61.49,30.05,61.43,30.05,61.4,30.09Zm3.1-1.59s0-.14,0-.16A.12.12,0,0,1,64.5,28.5Zm.49.26h-.22s0,0-.07,0,0,0,0,0l0,0,.07-.05c.07,0,.11.08.17.1Zm.09-.37Zm.09-1.87h.14c.07,0,.1,0,.18,0s0,0,0,0v0s0,.12,0,.16-.09-.05-.16-.05v0c-.06-.05-.28,0-.24-.11S65.14,26.51,65.17,26.52Zm-.07.56c0,.05,0,.06,0,.12a3.06,3.06,0,0,1-.52-.33s0,0,0,0S64.92,27,65.1,27.08Zm-.37-.53h0c.1,0,.13.06.18.12a.12.12,0,0,1,0,.07,2.65,2.65,0,0,1-.42-.18h0c-.08,0-.09-.07-.16-.07a.34.34,0,0,1,.16-.06C64.56,26.52,64.62,26.56,64.73,26.55Zm-.51-.7s0,.13.07.14,0,0,0,0,.19,0,.28,0l0,0c0,.06-.06,0-.08.07s-.06,0-.07,0-.11,0-.2,0a.19.19,0,0,1,0-.12.36.36,0,0,0-.07-.18h0S64.2,25.85,64.22,25.85Zm-.33,2.86h0s.15,0,.16,0,0,0,.05,0v0l0,0s.07.07,0,.08-.07,0-.12,0a.38.38,0,0,0-.16,0h-.07C63.82,28.74,63.86,28.73,63.89,28.71Zm-.28-2.86h0s0,0,0,0,.08.07.11.12,0,0,0,0,0-.07-.1-.06S63.53,25.88,63.61,25.85Zm-.09.76s0,.11,0,.15h0a.16.16,0,0,1-.08-.1S63.46,26.59,63.52,26.61Zm-.59,2.87c.08,0,.14-.11.22-.16s.07-.07.15-.07h.12a.34.34,0,0,0,.14-.05c.06,0,.07,0,.12,0h.18c.09,0,0,.13-.07.11a1.83,1.83,0,0,0-.28.1s0,0,0,0,0,0,0,0a.29.29,0,0,0-.14.05,1.84,1.84,0,0,1-.42.1s0,0,0-.08A0,0,0,0,0,62.93,29.48Zm-.51-.6v0a.09.09,0,0,1,0-.09.15.15,0,0,0,.1,0c.1,0,.24-.14.32,0s.08.06,0,.09h0s0,0-.05,0a1,1,0,0,0-.32.12h0s0,0,0,0S62.42,28.91,62.42,28.88Zm-.11.41a.64.64,0,0,0,.16-.11c.08,0,.2-.14.23,0a.19.19,0,0,0,.12.09v0s0,0,0,0a.08.08,0,0,0,0,0,.65.65,0,0,0-.19.24c-.09,0-.23,0-.3,0h0c-.15,0-.23,0-.37,0A4.27,4.27,0,0,1,62.31,29.29Zm-.4-.74s0,0,0,0,.07,0,.1,0,0,.09-.07.14,0-.1-.09-.11,0,0,0,0A0,0,0,0,1,61.91,28.55Zm-.17.39a.38.38,0,0,0,.19-.09s0,0,0,.07-.17,0-.26,0S61.72,28.94,61.74,28.94Zm0,.35a.26.26,0,0,1,.16,0s0,0,0,0,.09,0,.07,0a.46.46,0,0,0-.12.12s0,0,0,0-.16.21-.33.23-.35,0-.44.08a0,0,0,0,0,0,0s-.06,0-.09.05l-.07.05a1.57,1.57,0,0,0-.23.09h0c-.33,0-.48.2-.82.19a.09.09,0,0,1-.09,0h-.1a1.65,1.65,0,0,0-.58.14,1,1,0,0,0-.25-.12v0c0-.05.11-.06.16-.1s0,0,0,0,.05,0,.06,0,0,0,.09,0,.24-.08.38-.09l.05,0a2.23,2.23,0,0,0,.39-.09h0a.16.16,0,0,0,.11,0,.38.38,0,0,0,.16,0s.07,0,.12,0,.07,0,.09,0a.88.88,0,0,0,.28-.12c.08,0,.17,0,.22-.07s.06,0,.07,0C61.22,29.36,61.56,29.45,61.72,29.29Zm-.84-.14c.07,0,.18,0,.15.1s-.05,0-.05.05-.15.05-.21.09-.07,0-.12,0S60.77,29.18,60.88,29.15Zm0-1.28a.68.68,0,0,1,.12.12c0,.05,0,.12-.07.14h0s0-.05,0-.05,0-.07-.07-.09S60.89,27.89,60.93,27.87Zm-.4.87s0-.06.08-.07a.79.79,0,0,1,.23.09l.07,0v0c.05,0,.09,0,.09,0l-.51.14s0-.07,0-.07-.09,0-.13,0S60.5,28.8,60.53,28.74Zm-.14-.66a0,0,0,0,1,0,0c0,.06-.06,0-.09.07S60.4,28.12,60.39,28.08Zm-.28.59c.09,0,.18-.16.28-.14-.1,0-.3.25-.34.18A.07.07,0,0,0,60.11,28.67Zm-.2.77a.68.68,0,0,0,.2-.07h0a.19.19,0,0,1,.26.06s.05,0,0,.07a.84.84,0,0,0-.19.08l-.07,0c-.13.05-.26.08-.39.12h0s-.08,0-.1,0-.12,0-.14,0l-.25,0h0s0,0,0,0,.18-.1.25-.16.07,0,.08-.05a1.34,1.34,0,0,0,.27-.13Zm-.19-.84s0,0,0,0,0,0,.07.05S59.71,28.64,59.72,28.6Zm0-.42a.08.08,0,0,1,0,.11c0-.05-.05-.06-.05-.11Zm-.62,0s0,0,0,0,.12,0,.19,0h.06a.64.64,0,0,1-.18.1v0a.1.1,0,0,0,0,0s0,0,0,.05-.05,0-.07-.05S59.13,28.21,59.14,28.15Zm-.31,0s0,0,0,0,0,0,0,.05-.06-.05-.07-.09,0,0,.06,0h0S58.82,28.09,58.83,28.11ZM58.37,26a1.11,1.11,0,0,1,.19,0c.06,0,.13,0,.16,0s0,.08.05.11,0,0,0,.05a.23.23,0,0,1-.12,0h-.05l-.11,0h0a.26.26,0,0,0-.14,0S58.37,26,58.37,26Zm0,.25c0-.1.17,0,.24,0s0,0,0,0h-.05s-.14-.08-.2,0h0Zm-.13,1.59v0a.37.37,0,0,1,.2,0h0a.41.41,0,0,1,.2.13.35.35,0,0,0-.11,0,.44.44,0,0,1-.28,0s0,0,0,0S58.22,27.87,58.21,27.81Zm.11.74s0,0,0-.05,0,0,.05.1a.13.13,0,0,1,0,.09c-.08,0,0,0,0-.09S58.32,28.57,58.32,28.55Zm-.51,0v0s0,0,0,0H58a.29.29,0,0,1-.16.07h0Zm.42.43a.58.58,0,0,0,.14-.05s0,0,0,0,0,.06.09.07,0,0,0,0a.2.2,0,0,0,.18,0s0,0,0,0a.18.18,0,0,1,.11-.07l0,0a.67.67,0,0,0,.16-.12c.07,0,0,.25.11.26s.36-.22.57-.05l0,0c-.29,0-.32.25-.63.21h0a.43.43,0,0,0-.17,0c-.06,0-.06,0-.13,0s0,0,0,0-.06,0-.11,0h0s-.09,0-.11,0-.1,0-.1,0-.1,0-.13,0a2.34,2.34,0,0,0-.38.09s-.07,0-.07,0-.14,0-.18,0,.07,0,.07-.08A5.08,5.08,0,0,1,58.23,29Zm-.7-.33h-.09s0,0,0,0,0,0,0,0h0a.14.14,0,0,0,0-.07.15.15,0,0,1,.1,0S57.59,28.69,57.53,28.69Zm-.16-1h.06s0,0,0,0,.1,0,.11,0h0a.15.15,0,0,1-.26,0h.08Zm-.14-1.35h.11s-.16.1-.18,0Zm.2,2.84c.09,0,.14-.11.24-.14s-.14.12-.16.21-.22.1-.33.16,0-.11,0-.14,0-.07-.05-.09a.1.1,0,0,0-.06-.05C57.09,29,57.4,29.06,57.43,29.18Zm-.55-3.08V26a.13.13,0,0,1,.14.1s-.07.05-.07.11h0l0,0Zm-.65.07h0s.09,0,.12,0h.14a.06.06,0,0,0,.06,0,.1.1,0,0,0,0,0c.07,0,0,0,0,.07s0,.07-.07.1-.08-.07-.16-.08S56.14,26.22,56.23,26.17Zm.23,1.21c-.06,0-.08-.1-.14-.13h0s0,0,0,0v0h0s0,0,.07-.05,0,.08.1.09,0,0,0,0v.11S56.48,27.38,56.46,27.38Zm0,2h0s0,0,0,0-.06,0-.09.05,0,.07-.11.07a.07.07,0,0,1-.08,0s0-.05,0-.08,0,0,0,0l.07,0s.13,0,.16,0h0Zm-.32-1.18h.07s0,0,0,.07h-.05s-.08,0-.07-.07ZM56,29.81h.07a.2.2,0,0,0,0,.14.4.4,0,0,0,.18-.16s0,0,0,0,.08,0,.11-.07a.78.78,0,0,1,.28-.05c0-.05,0,0,0-.07a.23.23,0,0,0,.11-.18s.09.05,0,.09-.07,0-.07.09,0,.09,0,.08v.11s0,0,0,0l-.24.07s0,0-.06,0h0s-.08,0-.13,0l-.24.07c-.06,0-.06.05-.12,0l-.28.07h0c-.17,0-.17-.17-.26-.24.13,0,.17-.14.28-.19h.05s0,.11,0,.15,0,.1,0,.14.1-.09.16-.12Zm-.6-1.24s0-.12.07-.07.09,0,.14.05,0,.06-.05.05,0,0-.07,0h-.09Zm0,.37h.15c.29,0,.41.21.39.54a.07.07,0,0,1-.09.05l-.19,0v0c0-.16-.08-.27-.18-.33s-.14,0-.17-.11S55.35,29,55.38,28.94Zm0,.49s0,0,.06.07-.1.2,0,.26-.09-.08-.16-.07v0s-.07,0-.14,0,0,0,0-.07A.82.82,0,0,0,55.39,29.43Zm-.26-3.07v0c0,.06,0,.28-.09.22a1.07,1.07,0,0,0-.21-.13,0,0,0,0,1,0-.05A.32.32,0,0,1,55.13,26.36ZM55,29.86v0a.37.37,0,0,1,.26.14h-.16s0-.05-.08-.05c-.28-.14-.68-.17-1-.3a.08.08,0,0,0-.07,0c0-.08.06-.09.09-.14A1.26,1.26,0,0,0,55,29.86Zm-.63-3.39h0c0,.07,0,.07.07.09a.78.78,0,0,1,0,.16.38.38,0,0,0,0,.16s0,0,0,0,0-.05,0-.05-.12-.15-.12-.28h0s0,0,0-.06h0S54.36,26.34,54.38,26.47ZM54.11,26s.07,0,.11,0a1.39,1.39,0,0,0-.11.21v0s-.06,0-.12,0,0,0-.05,0h-.12A.56.56,0,0,1,54.11,26Zm-.26,3a.2.2,0,0,1,.12.1.17.17,0,0,1-.08.06.45.45,0,0,0-.23-.11s-.08,0-.12,0,0,0-.06,0A.78.78,0,0,1,53.85,29Zm0,.33a.43.43,0,0,1,0,.12l-.1-.07a.1.1,0,0,0-.06-.05.07.07,0,0,1,0-.05s.07,0,.12,0v0S53.78,29.32,53.83,29.32Zm-.57-.09h0s.08,0,.09.06,0,0,0,0a.05.05,0,0,1,0,0l-.19-.09S53.22,29.24,53.26,29.23Zm-.2.53s.09,0,.11,0l.07-.08c.07,0,.1,0,.14.05s.06.06.12.07,0,0,.07,0,.08,0,.11-.07,0,0,0,0,.13.09.21.12v0l.72.29h0c0,.06.16,0,.14.11h0s0,.07,0,.07,0,.13,0,.19,0,0,0,0h0s-.09,0-.12,0c-.29-.09-.57-.2-.86-.31,0,0-.07,0-.12-.05s0,0,0,0l-.07,0a.58.58,0,0,0-.21-.09s-.09-.05-.15-.07h0s0,0-.09,0,0,0,0,0L53,29.83l-.07,0a.08.08,0,0,1,.07,0ZM52.85,29a.13.13,0,0,0,.09,0s0,0,0,0a.45.45,0,0,1-.23,0h0s-.08,0-.08-.11h0a.09.09,0,0,0,.09,0v0C52.79,29,52.8,29,52.85,29Zm-.1.36s0,0,0,0a.08.08,0,0,0,.05.05s.08,0,.09.07a.15.15,0,0,1-.1,0,0,0,0,0,0,0,0,.24.24,0,0,0-.09-.08S52.73,29.37,52.75,29.37ZM53,26.11h0s-.05,0,0,.07c-.1.21-.16,0-.4,0A.79.79,0,0,1,53,26.11Zm-.51,3.81h0a.29.29,0,0,0,.12.07c.07.05.15.08.21.13s.07,0,.13.05v0s0,0,.08,0,0,0,.07,0a2.53,2.53,0,0,0,.23.12s0,0,.09,0a.07.07,0,0,0,.07,0,.08.08,0,0,0,.07,0s0,0,0,0a.08.08,0,0,0,.07,0,.93.93,0,0,0,.2.09c.08.06.2.08.29.14s0,0,.07,0,.08,0,.11.06a2.79,2.79,0,0,1,.37.14h0c.08,0,.12.05.2.05s0,0-.09,0-.13,0-.14,0c-.3.06-.34.52-.81.3,0-.06,0-.07,0-.12-.16-.09-.19-.31-.33-.41h0s0,0,0,0a.65.65,0,0,0-.25-.27l-.05,0v0l-.07,0a.23.23,0,0,0-.1,0h0s0,0,0,0,0,0-.05,0a.16.16,0,0,0-.12,0l-.07,0-.06,0a.68.68,0,0,1-.12-.12s0-.06,0-.07-.11-.15-.07-.21ZM52.33,26c.05,0,0,0,.08,0s-.17.2,0,.28-.13,0-.14,0,0-.11-.07-.16A.51.51,0,0,0,52.33,26Zm-.62,3.42s0,0,0-.05a.18.18,0,0,0,.14,0v0l.07,0c.06,0,.08,0,.14,0s0,.11.09.12v0h0c-.05,0-.06,0-.1,0s0,0-.05,0h-.06a.44.44,0,0,1-.21,0Zm-.26.3s.06,0,.07-.07h.07c.06,0,.08,0,.09.05v0a.13.13,0,0,1-.09,0h-.14Zm0,.35c0-.13.17-.12.26-.09a.37.37,0,0,0,.23-.07c.06,0,.07-.13.12-.09s.1.06.14.09-.06,0-.08.05l-.06,0S52,30,52,30s-.07,0-.09,0h0l-.37.07s-.06,0-.07,0Zm-.23-.63s.05,0,.06,0,.06,0,.07,0,0,0,0,0,0,0,0,0h-.11s0,0,0,0S51.22,29.45,51.22,29.43Zm.2,1.1s0,0,0,0v-.07a0,0,0,0,1-.05,0s-.07,0-.09,0,0,0,.09,0c.39.21.64-.11.94-.23,0,0,0,.08.07.09a.57.57,0,0,0,.11.11l.12.1a2.15,2.15,0,0,1,.28.23v0c0,.11,0,.16.09.23A.12.12,0,0,0,53,31,.1.1,0,0,0,53,31a.28.28,0,0,0,.16.12s0,0,0,0a.3.3,0,0,0,.2.07s0-.09-.07-.1-.07-.09-.11-.13,0-.05,0-.07l-.07-.08a.13.13,0,0,0,0-.06.22.22,0,0,1,0-.15h0s0,0,.05,0l.19.14c0,.05.07.05.09.09a.08.08,0,0,0,0,.05s0,0,0,.07.17.22.25.34v.05a2.57,2.57,0,0,0-.49,0h0c-.07,0-.18,0-.23.05a.21.21,0,0,1-.26,0s0,0,0,0a.62.62,0,0,0,.14-.14s0-.05.06-.07-.12-.26-.22-.32a.56.56,0,0,0-.29-.17.22.22,0,0,0-.14-.06.26.26,0,0,0-.14,0,.1.1,0,0,0-.09,0,.08.08,0,0,0-.09,0,.3.3,0,0,0,.18.24.14.14,0,0,0,.12.09s0,0,0,0,.05,0,.11,0a1.22,1.22,0,0,0,.19.12s0,0,0,.07v0a.71.71,0,0,0-.14.1.46.46,0,0,0-.14-.05h0s0,0-.05,0h-.1c-.06,0-.16-.06-.2,0a.26.26,0,0,0,.11.12s0,.05.09.05a.17.17,0,0,0,.1.06h0l0,0a.15.15,0,0,0,.09.14s0,0,0,0a.12.12,0,0,0,.09,0s0,0,0,0,0,0,0,0v.09c-.06,0-.16,0-.19,0h0a.43.43,0,0,0-.24.08.38.38,0,0,0-.09.09.08.08,0,0,0-.05,0c-.07.1-.19.23-.16.37,0-.19.17-.23.28-.33s.08,0,.09,0,.16,0,.19,0a.05.05,0,0,0,0,0s0,0,0,.07,0,0,0,0-.06.08-.07.14,0,0,0,0,0,.06-.06.06,0-.1-.1-.09,0,.24,0,.31,0,0,0,0-.06.07-.09.11-.13-.09-.17,0,.07.06.07.12l-.06,0s0,0,0,0l-.09.07c-.11.09-.19.2-.3.28s-.11.07-.15.11,0,0,0,0,0-.07.05-.09a.42.42,0,0,0,0-.26V33a.2.2,0,0,0,0-.14.29.29,0,0,0,0-.1s0-.05,0-.09,0,0,0-.07,0,0,0-.09,0,0,0-.09,0,0,0,0a.68.68,0,0,0,.07-.37.45.45,0,0,0,0-.24.1.1,0,0,0,0,0s0-.08,0-.09a.06.06,0,0,0,0-.05s0,0,0-.07v0s0-.07,0-.09,0,0,0,0a.23.23,0,0,0,0-.13s0-.05,0-.08,0,0,0-.06.05,0,.06,0,0,0,0-.06,0,0,0,0,.15-.17.3-.19.16.14.24.21a.36.36,0,0,0,.11.1s0,.06.07.05.09-.23,0-.28-.05,0-.09-.05c-.23-.12-.73-.14-.77.16h0a.2.2,0,0,0-.06-.11C51.34,30.85,51.35,30.66,51.42,30.53Zm-.76-1.24h.14c0,.05.05,0,.06.08a.08.08,0,0,0,.1.06s0,0,0,0,0,0,0,0-.34,0-.35-.19Zm-.15-.86s0,0,0,0,0,0,0,0,0,0,0,.05,0,0,0,0,0,.06-.09.05S50.51,28.46,50.51,28.43Zm0,1.29s0,0,0,0v0a0,0,0,0,1,.05,0h.06s0,0,0,.07a.61.61,0,0,1-.07.14c-.08,0-.11,0-.16-.05S50.48,29.77,50.49,29.72Zm-.06.35s0,0,0,0,0,0,0,0,0,0,0,0a.49.49,0,0,0-.14,0s0,0-.07,0S50.37,30.09,50.43,30.07Zm-.64-1.19s.09,0,.1,0a1.08,1.08,0,0,1,.28,0s0,0,0,0H50s-.1,0-.1,0-.14,0-.18,0S49.79,28.91,49.79,28.88Zm.4,1.18s-.11,0-.11,0a.05.05,0,0,0,0,0s0,0,0,0S50.17,30,50.19,30.06Zm-.42-.25,0,0s0,0,.08,0v0a.42.42,0,0,1,0,.12.06.06,0,0,1-.07.07V30s0,0,0,0S49.77,29.85,49.77,29.81Zm-.21-.26c0,.06,0,.09-.07.1s-.06,0,0-.1S49.5,29.56,49.56,29.55Zm-.33.12s0-.05-.07-.05S49.37,29.67,49.23,29.67Zm-.56-.61c.06,0,0-.06.1-.07H49v0c.06,0,.07,0,.11,0s.08,0,.14,0v0s-.15,0-.21,0a1.32,1.32,0,0,1-.35,0S48.67,29.09,48.67,29.06Zm.36.79h0s0,0,0,.06-.05,0-.06,0-.22.07-.33,0-.05,0-.05,0,.33-.32.44-.07Zm-.68-3.46a.66.66,0,0,1,.21,0,.24.24,0,0,1-.09.18c-.07,0-.13-.06-.14-.15ZM48.3,28h.09c0,.06.2,0,.2,0s0,0,0,.09-.14-.08-.23-.11-.07,0-.07,0Zm0,1.64a.07.07,0,0,0,.07,0c.18,0,.17-.13.21-.25h.21a.62.62,0,0,1-.14.14l-.1.09-.2.11a1.67,1.67,0,0,1-.12-.16S48.24,29.65,48.28,29.65ZM48,26c.08,0,.09-.08.19-.07s-.06.05-.07.09-.08.12-.14.07,0,0,0-.09Zm.14,2.5Zm-.3.17a.79.79,0,0,1,.32,0v0c0,.06,0,.07,0,.12s0,0,0,.05-.32-.12-.32-.24Zm.25,1.75v0s0,0-.07,0H48a1.06,1.06,0,0,0-.19,0l-.28,0s0,0-.05,0,0-.06,0-.07a.08.08,0,0,0,0-.05.08.08,0,0,1,0-.05c.07,0,.08,0,.14,0s.19,0,.28,0a.19.19,0,0,1,.12,0h0a.13.13,0,0,0,.14-.12s0-.07.07-.05S48,30.33,48.09,30.39Zm-.55-.4c.05,0,.06,0,.09,0s.06,0,.09,0-.17,0-.19,0h-.14c0-.05,0-.07.07-.1Zm0-.61h0Zm.18.2s.23,0,.24,0-.06.08-.08.12h-.09S47.75,29.63,47.72,29.58Zm-.11-.42h0s.06,0,.07.06,0,0,0,.05-.25-.13-.21-.16l0,0S47.6,29.14,47.61,29.16Zm-.35-.73h.16s.07,0,.09,0v.09h-.33v.05a.25.25,0,0,1-.23.09h0s0-.05,0-.07a.15.15,0,0,0,0-.12s0-.06,0-.07,0,0,0,0S47.18,28.45,47.26,28.43Zm-.45-.49s.12,0,.12,0v0c0,.1,0,.1-.07.14a0,0,0,0,0,0,0,.14.14,0,0,1-.16,0C46.7,28.1,46.73,28,46.81,27.94Zm-.16,1.24s.08,0,.12,0a.49.49,0,0,1,.28-.08h.3v0s0,.06-.05.05-.18-.08-.23,0-.07,0-.07,0h-.12a.21.21,0,0,0-.16.1c0-.05-.08-.05-.1-.1S46.68,29.19,46.65,29.18Zm-.26,1.17s0,0,0,.07,0,0,0,0S46.35,30.31,46.39,30.35Zm-.09-.82v0c-.09,0-.08.16-.19.17s0-.07,0-.14a.23.23,0,0,1,0-.12.26.26,0,0,1,.28,0A.29.29,0,0,1,46.3,29.53Zm.07.32s0,0,.09,0h0c.15,0,.22.06.34.07s0,0,.07,0,.06,0,0,0h-.07a1.79,1.79,0,0,1-.23,0c-.05,0-.11,0-.14,0h0S46.34,29.93,46.37,29.85Zm.54-.3h0c.1,0,.08-.15.19-.14s0,0,.06,0-.06,0-.09.06h0a.39.39,0,0,0-.16.07S46.92,29.56,46.91,29.55Zm-.5-1a.06.06,0,0,0,.06,0c.05,0,.06.05.11.05s0,0,0,0a1.47,1.47,0,0,1-.26-.05h-.07l-.06,0v0h0S46.35,28.59,46.41,28.59ZM46,26.64s.06-.08.1,0,.06,0,.09,0,.06,0,.11,0,0,0,0,0h0a.84.84,0,0,1-.28,0h-.06S46,26.68,46,26.64Zm-.16,3.78c.17-.09.13.18.21.23s.07.07,0,.06h0c-.08,0-.15,0-.14-.14S45.85,30.45,45.81,30.42Zm-.26-.52a0,0,0,0,0,0,0V30s0,0-.09,0-.07-.14-.12-.21.05,0,.05,0,.07,0,.13,0S45.47,29.88,45.55,29.9Zm-.16-3.51s.07,0,.1,0,0,.06-.07.06h0s-.09,0-.11-.08Zm-.12.37c0-.05.07,0,.1,0s.07,0,.09,0-.1,0-.12.05,0-.06-.07-.07Zm-.49,0h0a1.64,1.64,0,0,1,.41.12c0,.09-.16.08-.23.12s0-.1-.11-.12-.08,0-.08,0,0,0,0,0,0,0,0-.1Zm0,2.61h0s0,0,0,0,.13-.09.21-.12.21,0,.23,0,0,0,0,0a.39.39,0,0,0-.19.06C44.88,29.37,44.8,29.36,44.76,29.41Zm.19,1.4s-.1,0-.14,0,0,0,0-.09S45,30.74,45,30.81ZM44.78,27v.12c-.07,0-.09,0-.14,0s0,0-.06,0,0,0,0,0A.64.64,0,0,0,44.78,27ZM44.32,29l0,0h0v0c.07,0,.09,0,.16,0s0,0,0,0v.11h-.05c0-.09-.08-.12-.16-.14s0,0-.09,0S44.16,28.93,44.32,29Zm-.09.49c.09,0,.09,0,.07.07s0,0,0,0,0,0,0,0,0-.1-.07-.12S44.22,29.45,44.23,29.44ZM44,27.1A.11.11,0,0,0,44,27a.08.08,0,0,1,.07,0,0,0,0,0,1,0,0v.14s0,.1,0,.09h0a.15.15,0,0,0,0-.07S44.09,27.12,44,27.1Zm0,3c0-.05-.09,0-.07-.1S44.08,30.07,44,30.09Zm-1.3-3A.27.27,0,0,0,42.9,27s.06,0,.12,0h0s.06,0,.05-.05h.14s.13.13.06.14a1,1,0,0,0-.32.1,0,0,0,0,0,0,0c-.07,0-.1.08-.14.12a.09.09,0,0,0,0,.05s0,0,0,0-.06-.07-.11-.09A.26.26,0,0,1,42.74,27.08Zm.34,3.24s0,0,0,0a.1.1,0,0,0,0,.06s0,0,0,0,0,0,0-.07S43.06,30.28,43.08,30.32Zm.1.81a.65.65,0,0,0-.21-.06s0,0,0,0,0,0-.07,0,0,0-.06,0h0c0-.05-.09,0-.07,0s0-.22.07-.27h0a.44.44,0,0,0,.13.14A.24.24,0,0,0,43,31l0,.05h0v0s0,.05.07.05a.1.1,0,0,0,.05,0S43.2,31.13,43.18,31.13Zm-.09-1.63s-.05.08-.07,0,.08-.16.09-.26.15,0,.12.09S43.12,29.43,43.09,29.5Zm.41.29h-.07c-.07,0-.07.08-.14.07a.06.06,0,0,1,0-.05s0,0,0,0,0,0,0-.07h.09C43.52,29.72,43.52,29.77,43.5,29.79Zm.15-.35a1.15,1.15,0,0,1-.19,0v-.11a.12.12,0,0,1,.12,0c.12,0,.14-.08.23-.09h0v.16h0a.07.07,0,0,1,0,.08ZM44,31.65c0,.06,0,.07,0,.11h0s0,0,0,0,0,0,0,0,0-.06.07-.07Zm-.24-.49v0s0,0,0,0,.19-.07.3-.09.21-.05.27-.12,0,0,0-.09.08-.08.07,0h0c0,.11.06.15.14.18s-.21.07-.25.17,0,0,0,.05h-.12C44,31.17,43.85,31.25,43.76,31.16Zm.77.54h-.05c-.12,0-.12-.12-.18-.17s0,0,0-.05v0h0l.07,0s.06,0,.07,0,0,0,0,0S44.55,31.62,44.53,31.7Zm1.14.09a.26.26,0,0,1-.28,0s0,0-.09,0-.21-.13-.33-.07.11.24.23.3a.37.37,0,0,0,.14.07h0c0,.05.14,0,.2.08v0c0,.08,0,.14.05.23s0,.08,0,.08,0,.08,0,.14h0a4.2,4.2,0,0,0-.53-.22l-.14-.08h0l0,0h0a3.36,3.36,0,0,0-.33-.16l0,0a0,0,0,0,0,0,0v0c-.09-.06-.22-.1-.23-.24h0a.24.24,0,0,0,.25.1h.07l-.16.1h.08s0,0,.07.07,0-.06,0-.07.05,0,.07-.06l0,0a0,0,0,0,0,0,0h0c.1,0,.12-.11.14-.21s-.11,0-.14-.07.08,0,.08-.06.21.05.35,0h0c.18,0,.23.05.32.11s.18,0,.21.08S45.67,31.78,45.67,31.79Zm-.05-.28c0-.05,0-.07,0-.1a.06.06,0,0,1,.09,0h0C45.84,31.47,45.7,31.51,45.62,31.51Zm.22-.3a.3.3,0,0,0-.12,0,2.57,2.57,0,0,0-.49,0h-.07c.1-.08.3-.05.37-.16s0,0,0,0a.06.06,0,0,0,0-.06l.11-.08s0,0,0,0,.16.22.23.12.06-.07,0,0h0v0a1.37,1.37,0,0,1,0,.3s0,0,0,0l0-.07h0a0,0,0,0,0,0,0S45.88,31.23,45.84,31.21Zm4.54,3c0,.05,0,.13-.05.18v0a.75.75,0,0,0-.07.18.29.29,0,0,0,0,.14s0,0,0,0,0,0,0,0,0,.08,0,.1v0s0,0,0,0h0s0-.07,0-.08,0-.08,0-.09,0,0,0-.06,0,0,0,0a.45.45,0,0,0-.06-.12c-.18-.26.14-.6,0-1,.06,0,.07-.1,0-.14a.2.2,0,0,0-.06-.07c0-.07-.11-.11-.14-.19a.1.1,0,0,0,0-.09.47.47,0,0,0,0-.35c-.12,0-.16.17-.21.3h0V33h0s0,.12,0,.15,0,.08,0,.09.08.07.09.12a2.32,2.32,0,0,0,0,.6s-.14,0-.14,0,.12.32.17.49c0,0,0,0,0,0a.19.19,0,0,0,0,.12s0,.05,0,.06,0,.15,0,.23,0,.09,0,.12v0s0,0,0,.06a2,2,0,0,0,0,.24l0,0s-.07,0-.07.1h0s0,0,0,.09v.12c0,.09,0,.23,0,.3a1.55,1.55,0,0,0,.07.23s0,0,0,.07,0,0,0,0,0,.08,0,.12a1.55,1.55,0,0,1,0,.21v.36h0c-.11,0-.13-.11-.21-.15v0s0,0-.09-.06h0c-.05-.06,0-.23,0-.28s0-.09,0-.11v0a.26.26,0,0,0-.17.06.08.08,0,0,1-.07,0c-.06,0-.08-.07-.14-.08a.62.62,0,0,0-.14-.14.08.08,0,0,0,0,0s0,0,0,0,0,0,0,0a.05.05,0,0,0,0,0s0-.08-.09-.1v0c-.06,0-.06-.11-.12-.14a1.21,1.21,0,0,0-.21-.28.25.25,0,0,0-.11-.12c0-.05-.08-.07-.1-.12s0-.07-.05-.07a1.28,1.28,0,0,0-.14-.23s0-.08-.07-.09-.05,0-.06-.09l0,0,0-.06h0l0,0,0,0h0s0-.06,0-.09h-.11l-.06-.08c-.13-.15-.28-.35-.4-.47s-.21-.24-.34-.35l-.22-.21-.16-.26a.57.57,0,0,0,0-.19v0h0v0h0s0-.06,0-.08,0-.1,0-.18-.14,0-.16,0,0,0,0,.09a.37.37,0,0,0,0,.17s-.06,0-.09,0a1,1,0,0,0-.19-.16v0c-.11,0-.12-.12-.14-.23s0-.13,0-.17v0a.49.49,0,0,0,0-.21V32c0-.05,0,0,0-.09.12-.26.41-.41.47-.72,0,0-.06,0-.09.05s0-.05.09-.05h0a.64.64,0,0,0,0-.24c.05,0,.13,0,.18-.07a2.12,2.12,0,0,0,.21-.11s0,0,0,0,0,0,0,0a.26.26,0,0,0,.1-.07.4.4,0,0,0,.21-.29h0a.11.11,0,0,1,0,.06c0,.06-.06.05-.08.08s0,.09,0,.09.17.07.28.07a.64.64,0,0,0,.25,0l.07,0c.08,0,.1,0,.17,0s0,0,.09,0l.07,0s.11,0,.12,0,0-.22.05-.31.07.05.11.07a.23.23,0,0,0,.07.07c0,.05.15,0,.1.08s0,.1,0,.11h0v.07s0,.13,0,.14-.1,0-.12.05.15.34.19.13c.07,0,0-.11,0-.16l.07,0h0s0,0,0,0,.11-.14,0-.19-.07-.15-.15-.11,0-.09.1-.09.17.13.23.11l0,0c.08,0,.08.11.19.09s0-.13.12-.12a.28.28,0,0,1,.14.12.44.44,0,0,1-.17.07c-.06,0-.14,0-.16.09h0a.29.29,0,0,1-.1.12v0s0,.06,0,.1a.11.11,0,0,1,0,.11c0,.07.05.14.14.14s0,0,0,0v0s0,0,0,0,0-.07.11-.05a.22.22,0,0,0,0,.17c.1,0,.12-.06.11-.15l-.07,0a1.6,1.6,0,0,1,.1-.23s0,0,.07,0,.18,0,.28,0,0,.1,0,.14-.07.16,0,.21.29,0,.35-.12.05,0,.07,0,.07,0,.06.08,0,.15,0,.18a.1.1,0,0,0,0,.09.12.12,0,0,0,.24-.06s0,0,0,0,0-.05.06-.09,0-.1.05-.12.12.17.21.22,0,0,0,0a1,1,0,0,1,.19.35v0s0,.06,0,.08l-.1.14c-.07.06,0,.18,0,.27s-.36-.2-.47,0-.08.16,0,.23a.77.77,0,0,0,.09.28c0,.07,0,.1,0,.18v0a.61.61,0,0,0,0,.19c0,.05-.07.06-.1.09s0,.1,0,.18v.29c0,.06,0,.08,0,.14v.09a.38.38,0,0,1,0,.16s0,0,0,.07S50.36,34.12,50.38,34.19Zm.32-1.89.26.07c0,.05,0,.05,0,.09a0,0,0,0,0,0,0c0,.05,0,.05,0,.1v0c0,.09,0,.14,0,.23s0,0,0-.07a.5.5,0,0,0-.07-.26v0C50.74,32.43,50.69,32.39,50.7,32.3Zm1.5,8a.08.08,0,0,0-.05,0s0,0,0,0a.1.1,0,0,0-.05-.06s0,0,0,0,0,0,0-.06a.08.08,0,0,0-.05,0s0-.07-.07-.09a.14.14,0,0,0-.07-.1.51.51,0,0,0-.09-.16.31.31,0,0,0-.05-.1l-.24-.46a0,0,0,0,0,0,0,.27.27,0,0,0-.07-.13l0,0a.89.89,0,0,0-.11-.26v0c0-.06-.05-.08-.07-.14a.67.67,0,0,0-.09-.14l0,0s0,0,0,0a.88.88,0,0,0-.12-.19s0,0,0,0,0-.05,0-.08l-.06-.09c0-.06-.06-.1-.08-.16a.68.68,0,0,1-.07-.42v0a3.12,3.12,0,0,0,0-.44h0V36.7a.86.86,0,0,1,.14-.25s0,0,0-.07,0,0,0-.05-.15-.3-.23-.46,0-.07,0-.1a.55.55,0,0,0,.19-.18c0-.06.1-.09.14-.15s0-.09,0-.11a.39.39,0,0,0,.07-.23s0-.14,0-.15v-.06s0-.08,0-.12,0,0,0-.09v-.21a.24.24,0,0,0,0-.16s0,0,0-.05,0,0,0,0,0,0,0-.07A.78.78,0,0,0,51,34s0-.16.07-.17.09,0,.11,0,.08-.07.14-.1.08,0,.1-.09.11-.06.14-.12a.4.4,0,0,0,.16-.12.44.44,0,0,0,.14-.13,1.58,1.58,0,0,0,.3-.28s.05-.07.08-.1,0,0,0,0a1.41,1.41,0,0,0,.23-.35s0,0,0,0,0,0,0,0a1.18,1.18,0,0,0,.11-.19h0c0-.08.06-.11.08-.16s0,0,0-.05,0,0,0,0l0,0c.06,0,.06,0,.12,0a0,0,0,0,0,0,0,2.52,2.52,0,0,1,.21.25c-.09.09-.25.1-.35.19a.83.83,0,0,0,0,.42,2.71,2.71,0,0,0,.12.51.15.15,0,0,0,0,.12.32.32,0,0,0,0-.21.26.26,0,0,1,.05-.24s0,0,0,0,.11-.1.11-.21-.17-.07-.23-.12,0,0,0-.09.4-.12.35-.44c0,0,0,0,0-.1a1.13,1.13,0,0,1,.54.5.43.43,0,0,0,0,.07.13.13,0,0,0,0,.11c0,.08.05.16.07.25s-.34.37-.25.71a1,1,0,0,1-.14.41s0,0,0,.08-.06.08-.09.11a.78.78,0,0,0-.17.26.08.08,0,0,0,0,0s0,.11-.07.15v0a.37.37,0,0,1-.12.23v0s0,0,0,0,0,0,0,0a.16.16,0,0,0-.07.12.29.29,0,0,0-.07.12s-.05,0,0,.11,0,.06,0,.07a2.34,2.34,0,0,1-.11.4.12.12,0,0,0,0,.09s0,.06,0,.12,0,0,0,.11,0,.09,0,.14v.07a.62.62,0,0,0,0,.33v0c0,.11,0,.14-.07.21s0,.07-.07.09-.29.37-.13.53l.06.1c0,.09.05.19.08.28a2.6,2.6,0,0,1,0,.56,3.33,3.33,0,0,0,0,.46,1.06,1.06,0,0,0,0,.26s0,.07,0,.07v.32a.61.61,0,0,0-.07.24.14.14,0,0,0,0,.11v0a.93.93,0,0,0,0,.21s0,.07,0,.1,0-.05-.09,0S52.23,40.27,52.2,40.25Zm-3,3.68v-.27a.19.19,0,0,1,0-.16.26.26,0,0,1,.21,0,1.18,1.18,0,0,0,.87-.06.23.23,0,0,0,.06.12s0,.07.06.1a.67.67,0,0,0,.09.14.05.05,0,0,0,0,0,.46.46,0,0,0,.16.2.56.56,0,0,1,.1.43v0l-1.65.06v0a1.61,1.61,0,0,1,0-.39C49.18,44.06,49.2,44,49.17,43.93Zm-.4.59a1.56,1.56,0,0,0,.1-.61c0-.07,0-.17.06-.19s0,.11,0,.11a.75.75,0,0,1,0,.22s0,.05,0,.08,0,.08,0,.14a2.18,2.18,0,0,1,0,.29h-.28A.07.07,0,0,0,48.77,44.52Zm-2.45-1.64v-.07s0,0,0,0v0s0,0,0,0v0c0,.09,0,.22.09.3v0a1.57,1.57,0,0,0,0,.23,5.75,5.75,0,0,1,.11,1v.36h-.13a.73.73,0,0,1,0-.27s0,0,0-.08c0-.34-.07-.65-.09-1Zm-2.08-1.3v-.22h0c0-.1,0-.13,0-.24s.09,0,.15,0a.84.84,0,0,0,.28,0,.31.31,0,0,1,.28,0,.57.57,0,0,1,.19.24c0,.06.05.07.05.13h0c0,.08.05.11.06.17s0,.09.07.11v0s0,0,0,0,0,.07,0,.11,0,.09.07.11a.56.56,0,0,0,.09.19.79.79,0,0,0,0,.09s0,.09.06.11,0,.09,0,.11a.26.26,0,0,0,.06.13,4.37,4.37,0,0,1,.2.67.37.37,0,0,0,0,.24c0,.25.06.45.06.71v0a3,3,0,0,1,0,.44l-1.57.1v0c0-.06-.05-.14-.09-.19a6,6,0,0,1-.19-1.19V43a.72.72,0,0,0,0-.22c0-.18-.11-.25-.09-.45Zm-.45,3.2v0s0-.13,0-.13c0-.22,0-.37,0-.58V42.92a.59.59,0,0,0-.06-.32c0-.15-.08-.24-.09-.39s0-.05,0-.09,0-.14,0-.17v-.72s0,0,0,0,0,0,0,.06a2.5,2.5,0,0,1,.11.39c0,.06,0,.12,0,.18s0,0,0,0v0a2.32,2.32,0,0,1,.08.67c-.05,0,0,.15,0,.22a.29.29,0,0,0,0,.17v0c0,.06,0,.11.05.13s0,0,0,0a1.16,1.16,0,0,1,.13.41s0,.07,0,.13a5.27,5.27,0,0,1,.11.93h0v.24h0l-.38,0A.38.38,0,0,0,43.79,44.78Z" transform="translate(-26.36 -25.19)"/>
    </g>
  </g>
</svg>
