<svg id="Layer_1" data-name="Layer 1" xmlns="http://www.w3.org/2000/svg" xmlns:xlink="http://www.w3.org/1999/xlink" viewBox="0 0 1920 615.32"><defs><style>.cls-1{fill:url(#linear-gradient);}.cls-2{fill:url(#linear-gradient-2);}.cls-3{fill:url(#linear-gradient-3);}</style><linearGradient id="linear-gradient" x1="960" y1="2.23" x2="960" y2="617.55" gradientTransform="matrix(1, 0, 0, -1, 0, 790)" gradientUnits="userSpaceOnUse"><stop offset="0" stop-color="#e7dad3"/><stop offset="1" stop-color="#debea9"/></linearGradient><linearGradient id="linear-gradient-2" x1="107.15" y1="578.42" x2="107.15" y2="578.74" gradientTransform="matrix(1, 0, 0, -1, 0, 790)" gradientUnits="userSpaceOnUse"><stop offset="0" stop-color="#e7dad3"/><stop offset="1" stop-color="#ddbfae"/></linearGradient><linearGradient id="linear-gradient-3" x1="155.28" y1="590.7" x2="155.28" y2="591.68" xlink:href="#linear-gradient-2"/></defs><title>section_2_bg_2</title><g id="_1" data-name=" 1"><path class="cls-1" d="M1920,787.77V189.36s-191.07-54.87-390.4,33.06S1098.09,334.49,983,331.58s-106.87-95.22-265.1-54.06-179.09-3-326.61,35.66S166.49,184.5,0,189.36V787.77Z" transform="translate(0 -172.45)"/><path class="cls-2" d="M107.08,211.41c0,.21,0,.22.13.07C107.13,211.27,107.08,211.15,107.08,211.41Z" transform="translate(0 -172.45)"/><path class="cls-3" d="M155,199.3l.56-.92C155.53,198.27,155.26,198.21,155,199.3Z" transform="translate(0 -172.45)"/></g></svg>