<svg id="Layer_1" data-name="Layer 1" xmlns="http://www.w3.org/2000/svg" xmlns:xlink="http://www.w3.org/1999/xlink" viewBox="0 0 1920 775.97"><defs><style>.cls-1{fill:url(#linear-gradient);}.cls-2{fill:url(#linear-gradient-2);}.cls-3{fill:url(#linear-gradient-3);}.cls-4{fill:url(#linear-gradient-4);}.cls-5{fill:url(#linear-gradient-5);}.cls-6{fill:url(#linear-gradient-6);}</style><linearGradient id="linear-gradient" x1="960" y1="775.99" x2="960" y2="0.02" gradientUnits="userSpaceOnUse"><stop offset="0" stop-color="#e7dad3"/><stop offset="1" stop-color="#e6ccba"/></linearGradient><linearGradient id="linear-gradient-2" x1="1683.17" y1="26.8" x2="1683.17" y2="26.8" gradientUnits="userSpaceOnUse"><stop offset="0" stop-color="#e7dad3"/><stop offset="1" stop-color="#ddbfae"/></linearGradient><linearGradient id="linear-gradient-3" x1="1682.26" y1="30.86" x2="1682.26" y2="29.6" xlink:href="#linear-gradient-2"/><linearGradient id="linear-gradient-4" x1="1806.59" y1="16.86" x2="1806.59" y2="16.7" xlink:href="#linear-gradient-2"/><linearGradient id="linear-gradient-5" x1="1775.18" y1="8.85" x2="1775.18" y2="8.22" xlink:href="#linear-gradient-2"/><linearGradient id="linear-gradient-6" x1="1814.36" y1="33.99" x2="1814.36" y2="33.99" xlink:href="#linear-gradient-2"/></defs><title>section_2_bg_1</title><g id="_1" data-name=" 1"><path class="cls-1" d="M1764.38,105c1.21-5.56.12-7.2-.56-10.86-.77-4.11.26-8,3.08-13.61s.52-10.53,3.34-13.87,7.45-5.4,7.19-10.53-1-8.74,2.32-9c2.85-.21,6.27,2.38,9.61,2.81.09.17.21.24.33.22s0-.12.07-.18a5.57,5.57,0,0,0,1.29,0h.16c.39.69.75,1.89,1,1.27.35-.25.58-.07.58-.15,0,.16.3-.43.8.26.57.89,1.17.56,1.77,1.06a12.35,12.35,0,0,0,1.85.66,18.33,18.33,0,0,0,1.89.65c.64.19,1.28,0,1.92.46a2.88,2.88,0,0,0,1.91.31c.63-.08,1.26.62,1.87-.18.62-.15,1.22.22,1.81-.71.59-.08,1.16.66,1.72-.47.55-.89,1.08.29,1.59-1.44.51-.63,1-1.32,1.45-1.41.44-2.13.81.18,1.17-.83.36-1.72.61-.47.7-1,.13,2.12.4-1.63.71-1.24a5.22,5.22,0,0,1,.49-1.6c.17-1.64.34-1.71.49.12.43-2.64.79-1.88.84-1.73,0-.06-.06-.22-.14-.6-.2-1.12-.75.35-1.45-.11-.71-.77-1.57-.08-2.26,0-.47,1.08-.93.35-1.39-.08-.46-.13-.92-1.83-1.37,0-.45,1.47-.9.26-1.33,0-.44.34-.87.54-1.29-.44-.43-.24-.84.2-1.24-.24a3.52,3.52,0,0,0-.15-.42c.22.24.44.31.65-.34.56-.27,1.1-.59,1.64.41.54-.42,1.08-.84,1.63-.48.54-1.21,1.09,0,1.64.17.28-.52.55.22.86-.81.41-.34.77-2.1,1.09-1.45v.21c.31-.15.57-1.88.78-1.21.22.3.39-1.32.52-1.65.13.34.22-1.73.28-1.59a12.44,12.44,0,0,0,.08-1.37c0-1.18-.11-.69-.27-1.66s-.38-2.37-.61-1.8c-.22,0-.47.74-.63-1.69a2.41,2.41,0,0,1-.37-1.33c-.06-3.15-.41-.17-.91-.93-.25,2.77-.53,1.73-.84-.11-.31.47-.64-.12-1-1.22-.33,1.18-.67.4-1,.16-.32,1.25-.63-.84-.92-1.44-.56-.4-1-1.52-1.21-1s-.57-1.32-1-.32c-.44.23-1-.56-1.44-.91-.49-1.92-.93.27-1.26-.84-.21.94-.27.65-.4.14,0-.89.08-1.5.48-.25a2.25,2.25,0,0,1,1.48-1.8c.27,0,.54-1.57.79-.88.25-1.3.49-1,.69-1.17.27.82.48.26.59,0a10.36,10.36,0,0,1-.47-1.46c-.34-.91-.83-.13-1.38.73-.55-1.35-1.17-.63-1.79-1-.62.55-1.24.64-1.79-.27-.55,0-1,.43-1.37.5a12.82,12.82,0,0,1-.55-1.19c0,.51-.34-.61-.83,0-.5-.74-1.17-.21-1.83,0s-1.33-1.81-1.83.53c-.49.58-.83-.71-.83-.53,0-.36-.43-1-1.08,0-.64-.23-1.51.15-2.37,0-.43-1.86-.86.23-1.27-.08-.4,1.2-.78,1.07-1.1.15-.65.79-1.08,1.29-1.08-.07,0-.67-1-1.23-2,.79-.45-.12-.91-.22-1.37-.3-.38.08-.63.33-.63,1.1,0-1.28-.34,1.1-.87-.25-.52-.68-1.21-.46-1.78-.53-1.17.27-1.17,1.18-1.17-1.26,0,0-.21,1-.21.63a10.78,10.78,0,0,0-1.67-3.25c-.54,0-1.16-.92-1.93-2.19a.32.32,0,0,0,.06.23c-.73,0-1.15-2.41-1.57-2.63a8.58,8.58,0,0,0-.69-1.35c-.26-.39-.56-.21-.94-.86s-.6-.59-.81-1.45c-.22-.14-.37.14-.37.69,0-.19-.33.13-.83.13-.49-2.3-1.19.15-1.82-.13-.67-1-1.33-1.38-1.83.09a.5.5,0,0,1-.7.07.51.51,0,0,1-.13-.16c0,1.59-.21,1.55-.54.85-.32,0-.75-1-1.19-.85-.86-1-1.72,1.36-1.72,0a1.67,1.67,0,0,0-2.13,0c-1.06,1.48-2.12.61-2.12,0,0-.12-.38-1.46-1-.31-.29.41-.63.28-1-.18-.37-.17-.76.21-1.16,1-.4-.55-.8-.91-1.19-.45-.38-.51-.75.49-1.07.45-.65,1-1.13-.58-1.26-.5-.13-.28-.45-1.27-.85-.86s-.88-.76-1.34-.56c-.93-1.14-1.79-1.51-1.79-.43,0-.28-.32-2.88-.79-.21-.48.11-1.11.46-1.74-.46s-1.26,1-1.73-.38c-.48-1.63-.79.53-.79-.28,0-1.13-.3.29-.75.26-.45-.51-1,.91-1.64.8-.6-.33-.9.45-1.23-.07-.17,1.57-.59.59-.8-.12-.62-.42-.2,1.7-.62.84-.52-.12-1.06-.29-1.62-.46s-1.13-.77-1.7-.39c-1.15-.9-2.32-.1-3.42.17s-2.14,1.56-3,1.51c-.2.16-.2.43-.41-.83-.42,1.9-1.67.52-2-.12-.87-1.57-1.73.43-2.13,0-.2-1.08-.55,2.38-1,.61-.41-.49-.88-.52-1.33.69-.9.77-1.69,2.1-1.69,1.09,0-.4-.22.62-.55.81-.34-1.24-.8.4-1.28,1.28-.48,2-1,.36-1.42,1.19-.44-1.36-.8-.28-1,.71-.13.71-.53.35-1.1,0-.58,1.61-1.32-.07-2.15.22-.41-1.22-.84-.75-1.29-.54-.44-.62-.89,1.27-1.34.76-.45-.71-.89.52-1.32-.07-.43.19-.85,1.37-1.24.55-.78.06-1.46-1.31-2-.29-.48,1.78-.77,0-.77.69,0-.58-.46.08-1,1.43s-1,2.67-1.16,2c-.07-.41-.32.15-.65,1.33-.17-.71-.36-.36-.56.44s-.41,1.92-.62,1.66c-.52.37-1,2.26-1.5,1.08-.52-.32-1.1.87-1.82.68-.73.77-1.36.24-2,1.18-.66,0-1.36.89-2.24,1.32-.46,1.06-.75.19-1,1.2-.4-1.11-1.26,0-2.12-.89a.94.94,0,0,1-1.24.3c-.37-.12-.69-.19-.89.59-.2,1.31-.55-.23-1,1.41-.41-1-.9-.07-1.39,1.76-.48-1.1-1,2.63-1.34,1.74v-.07c0,.37-.13,1.16-.39,1.25-.83.31-.21-.38-.62-.83a7.8,7.8,0,0,0,.1,1.45,10.14,10.14,0,0,1,.11,1.46v.42c0,.31.07.69.11,1.14a3.15,3.15,0,0,1,.22,1h0c.06.4.09.78.09.8.36-.71.1-.81-.06-.81h.06c.32-.07.37.13.39,1.12a4.09,4.09,0,0,0,.2,1.43c0,.16.06.65.12,1.66.07.12.13,1.34-.08.79-.57-.25-1.2-.58-1.82.17s-1.24.24-1.8-.23c-.56-1.08-1.06-.74-1.45-1.06-.38-1.55-.66-1-.76-1.8-.52-1-.73,2.32-1,2.08a1.7,1.7,0,0,1-1.67.84c-.41.61-1-2.22-.83-2.09-.63,0-1.2.85-1.56.66-.37,1.13-.52.77-.31,1.43-.42-.85-.63-.21-.73-1.2a10.84,10.84,0,0,1-.11-1.51c-.31.1-.47,1.35-.54,2.19a19.77,19.77,0,0,0-.08,2.18c-.42-.77-.42-2.13-.63-1.66v1.66c0,.07,0-1-.2-1,0,.82,0,.08-.1,1.79-.48-2.18-.58.37-1,.65-.2-.68-.78-1-1.54-.1-.38,1.68-.8.28-1.25.4s-.9.49-1.36-.3c-.91-.93-1.8.33-2.46.43-.66-1.16-1.09-1-1.09-.43v2.93c0,.87.22-.3.54.92s.75,2,1.19,1.47c.43.53.86,1.64,1.18,1.94.33.8.54.48.54.45,0,.2.27.81.69.55.42.41,1-1.16,1.6.15a9.39,9.39,0,0,1,.94-.84c.31,1,.63-.29.92.94.58-.27,1.1-.16,1.43.79.22.45.6.6,1.07.1.47.32,1,1.46,1.65.43a1.84,1.84,0,0,0,1.89.35c.63.5,1.25-.67,1.78.36a1.09,1.09,0,0,1,1.53-.08h0a1,1,0,0,1,.29.42,5.12,5.12,0,0,0,.87-.59,11,11,0,0,1,1.92-1c.67.51,1.33-.48,1.85-1.14,1.93,1.22,4.66,2.71,6.07,2.39,2.31-.51,9-1,9.76-1.79a5.4,5.4,0,0,1,4.88-1c1.74.39,4.49.63,6.84,1a.31.31,0,0,0,.39.16l.1-.07c.59.12,1.16.25,1.66.4l.49.15c.14.12.27.18.41.12,3.47,1,11.88,3.59,13.74,6.15a25.34,25.34,0,0,1,3.6,7.32c.77,2.19,4.11,7.07,5.91,9.12s3.08,5.91,8.73,8a14.69,14.69,0,0,1,9.25,9.76,37.22,37.22,0,0,0,2.37,5.46c.9,1.92,1.61,3.78,1.22,5.07-.77,2.57-2.56-2.83-2.56-2.83l-1.8,3.09s1,2,1.28,2.82a13.59,13.59,0,0,1-.62,3.85C1688.92,129,1633.87,153.72,1590,142.34c-76.78-19.91-216.62,39.83-309,72.89s-201,35.52-324.31-6.87-116.92-30.84-218.62,0S479.71,255,377.21,197.59,0,142.12,0,142.12V776H1920V84.6C1863.1,79.28,1811.15,90.69,1764.38,105ZM1805,41.74c-.28-.16-.56.37-.83-.18C1804.44,41,1804.72,41.37,1805,41.74Zm-110,5.14c-2.32,1.8-9.25.51-9.25.51h-.08a3.2,3.2,0,0,1,.15-.61c.5-1.68,1-1.29,1.5-1.25.47-1.39.89-1,1.15-.81s.52-.87,1-.9c.45-.27,1,.2,1.58-.3a15.67,15.67,0,0,1,1.85-1c.61.63,1.22-.41,1.74-.64h0a1.71,1.71,0,0,0,.62.44,21,21,0,0,0,2.81,1.76C1699.34,44.54,1697.29,45.05,1695,46.88Zm3.31-6.3c.36-.12.76-.36,1.16-.22.76-1.62,1.52.73,2.09-.37.58-.89,1,.49,1-.07,0,1.49.27.57.57.4.26,0,.55-.2.79-.64l.74,2c0,1,0-.47.14,1.47.07.36.17.87.3,1.31a57.41,57.41,0,0,1-6.81-3.91Zm11.18-6.83a.79.79,0,0,1-.66.34c.32-.53.65-1,1-.71l.29.11c-.23.31-.44.65-.65.23Zm2.57-1c-.31,1-.62.48-.92.29,0-.1.1-.22.16-.36.27-.45.56-.14.85,0Zm75.41,14.33-5.39-1.53h-1.8a17.16,17.16,0,0,1,8.67-2.09c0,.44,0,.74.06,1.52,0,.21.06-.63.08,2.1Zm-19.29-10c.29,0,.59-.15.88-1.13.62-.47,1.24.37,1.86.83l.18.12a7.65,7.65,0,0,0-2.12,2.79c-.57,1.59-1-.47-.82-2.64ZM1759,42.25c.45-1.54,1-3,1.43-4.29l.11,0c.6-.21,1.32.62,2,.32.64.7,1.22.79,1.53.14.49-.78,1-.87,1.56-1.27a1.19,1.19,0,0,0,.65-.37l-.06.29c-.51,2.31,1.29,4.88,1.29,6.16s-2.32,4.63-2.57,7.71a16.11,16.11,0,0,1-2.57,6.42s1.54-6.94-1.29-8.22-3.39-2.6-2.1-7Zm-17-9.6c.62-1.35,1.21-2.64,1.78-1.5.21.72.84-1,1.44-.61h0a14.23,14.23,0,0,1,1.38,2c.77,1.54,1.54,1.54,1,3.86a27.64,27.64,0,0,0-.52,7.7c.26,1.54-4.88-5.91-4.88-5.91V33.31l-.43-.56Zm-12.47,2.65c.73.79,1.46-.59,2.19.6.73.2,1.46-.28,2.17.19.72-.63,1.44.46,2.14-.62.7-.74,1.39-.43,2.07-.94a6.08,6.08,0,0,0,1.26-.3,6,6,0,0,1,.83,3.37c-.26,1.8,1.54,5.39,1.54,5.39s3.08,3.86,3.34,5.14,1.8,6.68,1.8,6.68-2.06-5.91-5.14-7.45-2.57-3.08-6.17-2c-2,.57-4.77-.21-6.85-1a1.33,1.33,0,0,1,.38-.18c.6-.6,1.2-3.86,1.64-1.64.45-.52.75.88.75-.75,0-.76-.33.13-.66-1.73-.34-1.48-.67-2.21-.67-1.72-.47-.74-.76-1.32-1.13-1.84-.38.08-.85-1.38-1.68-1.33.73-.56,1.46-.07,2.19.18Zm20.16,41.6c-2,2.83-6.94-3.85-7.45-4.62S1733.47,62,1733,60.72s-.77-6.68-5.65-9.25a66.43,66.43,0,0,0-8.28-4l.21-.26c.55.14,1.09.65,1.61-.43.42-.38.89-1.07,1.35-.27.46,1.91.9,1.9,1.28,0,.8,1.39,1.6,1.7,2.19,0,.58,1.08,1,1.44,1,.15a28.32,28.32,0,0,0,5.78,1c1.8,0,5.39-.26,7.19,1.8s5.4,5.39,5.4,6.42.77,5.65,2.31,7.83,4.11,3.47,4.11,6.3.26,4.07-1.8,6.87Zm.26-17.21c-.26-2.31-.77-7.7,0-10.27s0-8.22-.41-9.25.15-3.85,1.18-5.4a11.81,11.81,0,0,0,.92-1.85c.35.65.66,1.61.92,1.24.63,2.35,1,1.36,1,1.46s.86-.42,2,1.29c.57,1.72,1.2,2,1.83,1.51a1.71,1.71,0,0,1,.84,0c-.6,2-1.25,4.17-1.55,5.08a7,7,0,0,0,1.79,6.68,6.72,6.72,0,0,1,1.29,7.7c-1.29,2.06.77,6.43-.51,8.48s-2.83,4.37-2.83,4.37-.8-4.37-2.2-5.65-4-3.08-4.22-5.39ZM1754.27,81c-.77-1.54,1.8-5.39,3.6-7.19s4.11-4.37,4.37-6.68.77-6.42,1.8-8.22,3.08-6.42,3.34-8.22a28.45,28.45,0,0,1,2.56-7.45c1.21-2.41,1.5-5.27,3.66-6.46.33.27.67.69,1,.74.61-.07,1.21-2.36,1.79.35.59,1.43,1.16,1.44,1.71.14.72-1.45.93-1.79,1.32-2,.19-.45.42-1.22.79-1.14a4,4,0,0,1,1.57.2c.54.84,1,.84,1.45.29.4-2.65.81-1.12,1.23,0,.41.21.83,0,1.23.7.79,2.13,1.52,1.47,2,.66.27,2,.55.2.85.94a1.65,1.65,0,0,0,.93,1.17c.32.16.65,1.11,1,.86.07-.18.14-.21.21-.17a3.75,3.75,0,0,0-.55,1.47c-.49-.51-1-.46-1.21.13q-1.92,0-3.84.12c-3.08.25-5.66,1.54-6.68,3.08s-3.34,5.65-3.34,8.22,1.29,4.88-1.8,6.94-3.59,3.33-5.65,6.67-2.82,2.83-2.57,7.2.23,6.42-2.19,8.73-2.43,6.17-2.69,7.45-5.07-7-5.85-8.53Z" transform="translate(0 -0.02)"/><path class="cls-2" d="M1683.17,26.8" transform="translate(0 -0.02)"/><path class="cls-3" d="M1682.16,29.88c0,.82.16,1.38.2.63C1682.25,29.59,1682.16,29.34,1682.16,29.88Z" transform="translate(0 -0.02)"/><path class="cls-4" d="M1806.64,16.8c0-.17,0-.09-.08,0S1806.64,16.88,1806.64,16.8Z" transform="translate(0 -0.02)"/><path class="cls-5" d="M1775,8.25l.36.6C1775.18,8.15,1775,8.18,1775,8.25Z" transform="translate(0 -0.02)"/><path class="cls-6" d="M1814.36,34" transform="translate(0 -0.02)"/></g></svg>