<svg xmlns="http://www.w3.org/2000/svg" xmlns:xlink="http://www.w3.org/1999/xlink" viewBox="0 0 588.62 690.3"><defs><style>.cls-1{fill:none;}.cls-2{fill:#8b5539;}.cls-3{clip-path:url(#clip-path);}.cls-4{fill:#9e634a;}.cls-5{fill:#eca45f;}.cls-6{fill:#513632;}.cls-7,.cls-8,.cls-9{isolation:isolate;}.cls-8,.cls-9{font-size:54px;fill:#fff;font-family:Montserrat-ExtraBold, Montserrat;font-weight:800;}.cls-9{letter-spacing:-0.01em;}</style><clipPath id="clip-path" transform="translate(-48.41 26.41)"><rect id="Rectangle_5" data-name="Rectangle 5" class="cls-1" x="126.01" y="128.11" width="374" height="423" rx="22"/></clipPath></defs><title>ethiopia_map</title><g id="Layer_1" data-name="Layer 1"><rect id="Rectangle_5-2" data-name="Rectangle 5" class="cls-2" x="77.6" y="154.51" width="374" height="423" rx="22"/><g class="cls-3"><path class="cls-4" d="M105.63,237.85c11.8-10.76,23.17-22.06,35.57-32.08,6.81-5.51,15.35-8.88,24.76-14.13-1.62,11.54-2.88,20.9-4.33,30.24-.13.84-1.3,1.66-2.17,2.21-5.92,3.77-11.9,7.46-18.4,11.51l-5-5.44c3.91-8.94,17.83-8,18.19-19.55l-1.52-1.9c-7.23,5.36-14.89,10.24-21.57,16.21s-12.63,13.23-20.4,21.53l-5.12-7.31Z" transform="translate(-48.41 26.41)"/><path class="cls-4" d="M437.67,83c-1.1,4.84-2.46,9.64-3.24,14.53-1.68,10.55-2.87,21.18-4.64,31.72-.93,5.57,2.44,7.65,6.47,9.44a9.57,9.57,0,0,0,4.38.9c8.74-.6,13.25,3.14,14.59,12,.32,2.12,4.64,4.35,7.52,5.19,4.54,1.32,7,2.89,7.6,8.31,2.16,18.73,3.64,15.11,17.3,13.81,13-1.23,25.82-3.43,38.73-5.15.72-.1,1.51.24,3.4.58-1.79,1.5-2.76,2.42-3.83,3.19C514.16,186,502.49,194.73,490.5,203c-4.86,3.33-3.8,7-2.06,11.06a11.37,11.37,0,0,0,2.73,3.54c6.12,5.71,7.68,11.42,1.83,18.66-1.3,1.6,0,6.51,1.55,8.94,2.9,4.49,2.66,7.61-.68,11.87-10,12.76-9.83,14.31,3.05,24.23,10.28,7.92,21.07,15.2,33.24,23.92-4-.54-6.47-.85-8.92-1.22-13.95-2.11-27.87-4.34-41.85-6.2-1.53-.21-4.13,1.28-4.88,2.7-1.55,2.94-3.16,6.42-3,9.58.37,7.7-2.76,11.78-10.31,12.18-5.66.29-6.22,4.54-6.78,8.43-.74,5.09-3.19,7.66-8.36,7.55a6.92,6.92,0,0,0-1.28.11c-16.68,2.73-16.11,4.73-14.1,18.34,2,13.24,4.17,26.44,6.54,41.41-1.92-2.54-3-3.88-4-5.27-8.15-11.26-16.35-22.49-24.39-33.83-3.72-5.25-8-4.85-12.73-1.8a17.17,17.17,0,0,0-3.56,2.75c-5.13,5.76-10.65,6.28-16.39,1.12-4.05-3.64-7.28-.71-10.24,1.31-4.08,2.79-7.05,2.79-11.3-.32C340.4,351.6,340,351.68,329.34,365.5,322.82,374,317.05,383,311,391.77c-1.11,1.6-2.14,3.25-3.21,4.88l-1.61-.72c1.4-6.95,3-13.85,4.13-20.84,1.31-8.24,1.88-16.6,3.36-24.8,1.19-6.59-2.65-8.82-7.64-10.39a18.49,18.49,0,0,0-5.1-.58c-6.62-.12-11.54-2-11.85-9.87-.18-4.65-3.64-6.45-7.76-7-5.93-.77-8.35-4.26-8.44-10a28.75,28.75,0,0,0-1-5.69c-1.71-7.72-4.14-9.82-11.78-8.73-13.3,1.9-26.53,4.3-39.79,6.45a9,9,0,0,1-5.55-.72c1.39-1,2.76-2.08,4.16-3.09,11.09-8,22.06-16.22,33.34-24,5.21-3.6,4.47-7.62,2.21-12.19a9.9,9.9,0,0,0-2.19-3.15c-6.65-5.73-7.09-11.56-1.55-18.6,1.2-1.53,0-6.13-1.46-8.33-3.26-4.78-3.67-8.71.66-12.87a25.91,25.91,0,0,0,3.46-4.62c4.43-6.75,4.2-10.52-2.16-15.32-10.41-7.84-21.2-15.19-31.82-22.75a10.24,10.24,0,0,1-4.23-4.86c1.28.14,2.58.21,3.85.42,14.14,2.25,28.3,4.42,42.41,6.85,6.18,1.06,8.37-2.67,9.92-7.4a13,13,0,0,0,.52-4.45c-.22-7.71,2.84-12.39,11.09-13,5.52-.39,5.62-5.3,6.4-9.07.87-4.15,2.55-6.44,7.1-6.38,2.53,0,5.08-.7,7.61-1.15,7.79-1.4,10.37-4.53,9.21-12.22-2.05-13.52-4.43-27-6.64-40.49a6.54,6.54,0,0,1,.93-4.83c1.09,1.57,2.14,3.17,3.25,4.71,7.89,10.93,15.94,21.73,23.62,32.79,3.91,5.65,8.25,4.9,13.16,2a14.28,14.28,0,0,0,3.09-2.3c4.9-5.12,9.95-7.72,16.25-2,3.9,3.58,7.72,1.33,11-1.1,3.83-2.8,6.7-2.71,10.68.33,14.12,10.78,15.18,10.62,25.64-3.43,6.76-9.08,12.92-18.62,19.39-27.92a35.14,35.14,0,0,1,2.67-3.07Zm43.79,156.23a110,110,0,1,0-220,.91c0,60.54,49.78,109.56,111.19,109.57C432.43,349.7,481.57,299.8,481.46,239.21Z" transform="translate(-48.41 26.41)"/><path class="cls-4" d="M437.08,68.84,400.73,117l-14.45-10.87c4.33-2.57,5.6-8.64,12-6.38,1,.35,3.51-2.29,4.65-4,8.18-12.26,16.43-24.48,24.11-37,2.25-3.68,3.82-4.94,7.91-3.08,7,3.19,14.12,6.19,21.39,8.72,5.21,1.82,4.91,4.34,3.73,9.12-3.48,14.08-6,28.39-8.88,42.61-1,5,.43,7.58,6.15,7.54,5.09,0,10.18,1,15.78,1.55v11.38c-10.5-1.19-20.65-2.13-30.71-3.72-1.31-.21-3.14-3.85-2.94-5.71,1.58-14.65,3.05-29.36,5.64-43.85C447.2,71.84,447.89,72,437.08,68.84Z" transform="translate(-48.41 26.41)"/><path class="cls-4" d="M436,411l11.17-4.55c-2.08-11.05-4.38-21.63-6-32.32-1.08-7.17-1-14.51-1.75-21.74-.49-4.62,1.07-6.72,5.82-6.82,3.17-.07,6.32-.8,10.22-1.34-.87,4.68,2.95,9.56-3.29,12.65-.92.46-1,3.59-.72,5.35,2.76,16.36,5.7,32.7,8.92,50.87-8.25,3.31-18.19,7.49-28.35,11.08-1,.36-3.73-2.63-5-4.52-7.9-11.9-15.61-23.94-23.41-35.93-3.29-5.07-6.84-5.45-11.28-1.07-3.47,3.41-7.5,6.26-11.81,9.8l-7.91-8.3c8.45-6.7,16.34-13.2,24.61-19.19,1.08-.78,5,.47,6.1,1.92,10.12,12.94,19.93,26.13,29.79,39.27A52.52,52.52,0,0,1,436,411Z" transform="translate(-48.41 26.41)"/><path class="cls-4" d="M544.56,149.25l13.27,31.9c-17.19,8.74-33.72,17.64-47.31,32,4.53,5.76,9,11.42,13.86,17.59l-7.62,8.32-21.65-27.19a184.9,184.9,0,0,1,48.17-36.31c-1.65-4.09-3.13-7.77-4.59-11.41-10.24,2-20,4.19-29.88,5.63-8,1.18-16.21,1.25-24.29,2.16-4.74.53-6.66-1.33-6.88-5.88-.15-3-.73-5.94-1.25-10,4.27.22,8.4-2.69,12.23,2.32,1,1.34,4.21,1.88,6.17,1.52,14.28-2.64,28.5-5.59,42.72-8.51C539.57,151,541.56,150.18,544.56,149.25Z" transform="translate(-48.41 26.41)"/><path class="cls-4" d="M249.55,268.72c-14.84,10.9-28.07,21.39-42.16,30.59-5.66,3.69-7.71,6.38-4,12.15a14.3,14.3,0,0,1,1.19,2.61l60-8.35c1,6.65,1.72,11.61,2.57,17.39-4.79-.84-9.68,2.95-12.67-3.43-.42-.89-3.64-1-5.4-.64-14.86,2.91-29.76,5.68-44.46,9.25-4.3,1-6.11.64-7.69-3.4-3.49-8.92-7.33-17.72-11.06-26.64,8.84-5,17.25-9.27,25-14.42,7.63-5,14.64-11,22.71-17.17l-14.74-18.54,8.23-7.7Z" transform="translate(-48.41 26.41)"/><path class="cls-4" d="M238.43,224.87c-2.49-4.12-8.82-4.93-6.41-11.51.37-1-2.05-3.61-3.7-4.72-12.4-8.32-24.78-16.67-37.5-24.49-3.64-2.24-4.89-3.83-3.09-7.9,3.8-8.57,7.19-17.32,11.09-26.82,18.28,5.68,36.22,11.16,56.06,10.7.91-7.39,1.81-14.69,2.72-22.16h11.15c-1.25,11.43-2.45,22.36-3.71,33.87a188.65,188.65,0,0,1-59.2-8.08,12.94,12.94,0,0,0-1.68,2.1c-4.41,9.22-4,8.64,4.28,14.51,12.52,8.88,24.39,18.69,36.57,28.06,2.71,2.09,3.28,4.06.75,6.86S241.13,221.3,238.43,224.87Z" transform="translate(-48.41 26.41)"/><path class="cls-4" d="M357.34,373.32c-4.62,2.6-6,8.24-12.09,6.05-1-.36-3.55,2.19-4.67,3.87-8.07,12.06-16.26,24.07-23.73,36.5-2.66,4.41-4.77,5.64-9.45,3.44-6.38-3-12.94-5.68-19.59-8-5.06-1.78-6.3-4.13-4.38-9.47,5.58-15.57,9.21-31.59,8.86-49.18-4.43-.56-8.79-1.29-13.18-1.63-10-.8-10.05-.72-8.25-12.25,10.23,1.14,20.55,2.13,30.79,3.69,1.05.15,2.45,3.8,2.22,5.64-2.18,16.92-4.67,33.8-7.09,50.69-.15,1-.4,2-.57,2.89.49.54.71,1,1.05,1.13,10.22,4.62,9.64,4.2,15.92-4.77,8.32-11.89,17.73-23,26.54-34.55,3-3.93,5.72-4.48,9.32-.72C351.2,368.88,353.93,370.61,357.34,373.32Z" transform="translate(-48.41 26.41)"/><path class="cls-4" d="M297.55,72.53c2.21,17.94,4.14,34.86,6.44,51.74.93,6.83-1.35,10-8.38,9.68-2.24-.1-4.52.57-7.44,1,.64-4.88-2.45-9.7,3.34-12.9.95-.52,1-3.64.66-5.41-2.87-14.64-5.63-29.32-9.09-43.83-1.05-4.37-.95-6.58,3.53-8.28,8.92-3.37,17.67-7.18,25.2-10.28,10.12,14.68,19.52,28.34,29,42,1.09,1.57,2.36,3,4,5.13l18.41-14.71L370.76,95l-26.49,21.06c-11.76-10.69-21.08-22.81-29.45-35.74-.58-.9-1.1-1.84-1.64-2.76C307.11,67.22,307.11,67.22,297.55,72.53Z" transform="translate(-48.41 26.41)"/><path class="cls-4" d="M538.42,315.37c1.63-3.92,3.15-7.58,4.27-10.26L494.35,268.5l10.51-14.2c2.9,3.9,9,4.94,6.67,11.7-.35,1,2.22,3.49,3.89,4.66,13.47,9.39,27,18.63,41.76,28.73-3.43,8.24-7.37,18.09-11.8,27.72-.47,1-3.88,1.36-5.72,1-14-2.87-27.88-6.46-41.95-8.87-9-1.54-9.12-.81-10.17,7.94-.53,4.45-.94,8.92-1.44,13.81H474.68c1.3-11.36,2.55-22.31,3.84-33.63C499.15,306.61,518.67,309.8,538.42,315.37Z" transform="translate(-48.41 26.41)"/><path class="cls-4" d="M183.14,189.88A87.83,87.83,0,0,1,215,207.6a297.39,297.39,0,0,1,24.38,24.56c6.73,7.48,6.36,7.81-1.86,15.83-12.17-16.72-25.75-31.91-45.05-40.74-2.7,4.1-2.62,6.77,2,9.44,6.07,3.49,11.56,8,17.94,12.53l-8.14,7.38c-8-5.08-16.33-10.22-24.47-15.61-.88-.58-1.32-2.63-1.14-3.88C180,208.28,181.55,199.49,183.14,189.88Z" transform="translate(-48.41 26.41)"/><path class="cls-4" d="M271.06,150.47c2.93-20.36,4-40.66-3.26-60.79-4.52,1.47-6.56,3.42-5.28,8.43,1.72,6.73,2.53,13.69,3.83,21.1H255.44c-2.12-9.48-4.28-18.78-6.18-28.14a4.49,4.49,0,0,1,1.52-3.67C258.11,82,265.6,76.74,273.63,71a107.16,107.16,0,0,1,10.68,43.43c.38,8.93-.39,17.93-1.09,26.87C282.47,150.79,281.93,151,271.06,150.47Z" transform="translate(-48.41 26.41)"/><path class="cls-4" d="M282.61,340.41c-20.56-3.32-40.65-4.09-60.52,3,.94,5,3.19,6.51,8.12,5.32,6.79-1.63,13.77-2.41,20.58-3.54,2.77,10.44,2.22,11.07-6.86,12.43-6.11.92-12.09,2.73-18.19,3.74-2,.34-5.28.24-6.23-1-5.57-7.22-10.62-14.83-16.2-22.81a112.36,112.36,0,0,1,44.88-10.65c8.51-.31,17.1.43,25.62,1.16C282.61,328.78,283.53,330.24,282.61,340.41Z" transform="translate(-48.41 26.41)"/><path class="cls-4" d="M461.13,138.58c20.27,3.79,40.34,4.07,60.25-2.88-1.26-5-3.63-6.55-8.83-5.15-6.5,1.75-13.31,2.39-20.52,3.6V123.21c9.32-2.08,18.61-4.22,27.94-6.17a4.07,4.07,0,0,1,3.41.94c5.67,7.66,11.15,15.45,17,23.64C515,152.69,490,154.8,464.48,149.91c-2.29-.43-3.56-6.18-5.31-9.46Z" transform="translate(-48.41 26.41)"/><path class="cls-4" d="M551.33,272c2.33-5,1.27-7.58-3-10-5.86-3.35-11.13-7.72-17.26-12.08l8.32-7.34c7.7,4.88,15.84,9.93,23.83,15.19a4.58,4.58,0,0,1,1.62,3.7c-1.3,9-2.86,18-4.67,28.94-9.15-5-17.74-8.27-24.45-13.8a355.84,355.84,0,0,1-31.89-30.38c-6.6-7-6-7.51,2.27-15.08C518.16,248,531.83,263,551.33,272Z" transform="translate(-48.41 26.41)"/><path class="cls-4" d="M488.17,359.54c2,9.4,4,18.14,5.63,26.95.31,1.72-.31,4.5-1.53,5.45C485.2,397.38,477.82,402.43,470,408a89.6,89.6,0,0,1-10.11-35.71A260.77,260.77,0,0,1,460.4,337c.61-8.83,1.83-9.23,12.23-8.47-3.44,20.42-4.25,40.78,3,60.76,5.36-1.28,6.49-4.12,5.06-9.4-1.76-6.53-2.37-13.37-3.53-20.39Z" transform="translate(-48.41 26.41)"/><path class="cls-4" d="M322.19,428.06c4.62-14.86,12.57-26.69,22.17-37.32,6.27-6.94,13.44-13.12,20.59-19.18,7.34-6.22,8-5.92,15.2,2.31-14.86,10.61-28.39,22.58-37.52,38.7-1.13,2-2.08,4.11-3.25,6.45,4.6,2.51,7.18,1.57,9.69-2.56,3.61-5.94,8-11.41,12.32-17.5l7.44,8.16c-4.94,7.7-9.92,15.63-15.13,23.4-.77,1.14-2.74,2.36-4,2.18C340.7,431.38,331.72,429.71,322.19,428.06Z" transform="translate(-48.41 26.41)"/><path class="cls-4" d="M381.56,81c-2.19-2.77-3.3-4.72-4.9-6.06-2.66-2.22-2.15-3.93-.32-6.46C380.74,62.46,384.64,56,389,50c1.19-1.64,3.62-3.71,5.21-3.5,8.86,1.13,17.63,2.9,27.28,4.61a96.91,96.91,0,0,1-19,33.24,247.43,247.43,0,0,1-22.91,22.42c-7.92,7-8.21,6.65-16.57-1.39,17.11-12.11,32.3-25.94,41.15-45.47-5.08-2.46-7.8-.64-10.3,3.47C390.47,69,386.38,74.21,381.56,81Z" transform="translate(-48.41 26.41)"/><path class="cls-4" d="M381.44,86.28c-1.84,1.73-4.26,4-8,7.53-8.42-10.59-16.72-20.51-24.35-30.92-2.77-3.78-5.18-5.33-11-2.55,6.55,8.83,12.93,17.43,19.72,26.6l-8,7.13c-12.28-12.44-21.8-26.06-28.38-43l28.73-5Z" transform="translate(-48.41 26.41)"/><path class="cls-4" d="M257,341l10.41.6c-1.55,13.32-2.8,26.15-4.64,38.89-.69,4.78-.15,7.89,6.25,9.17,1.54-10.57,3.05-21,4.6-31.66h10.78a127,127,0,0,1-10.36,50.49c-8.21-5.94-15.9-11.43-23.46-17.11-.75-.56-1.05-2.31-.89-3.4C252,372.61,254.45,357.3,257,341Z" transform="translate(-48.41 26.41)"/><path class="cls-4" d="M560.23,189.4c1.68,9.75,3.3,18.52,4.6,27.35A5.35,5.35,0,0,1,563,221c-6.47,4.55-13.41,8.46-19.66,13.27-6.07,4.67-11.51,10.16-17.77,15.78l-7.84-8.9c10.49-8.34,20.41-16.64,30.81-24.29,3.76-2.76,5.34-5.12,2.38-10.79l-26.45,19.42c-2.19-2.35-4.59-4.93-7.32-7.88C529.67,205.71,542.85,195.82,560.23,189.4Z" transform="translate(-48.41 26.41)"/><path class="cls-4" d="M192.79,273.11,219,253.45l6.67,7.48c-7.87,10.57-30.25,25.47-42.63,28-1.53-9.39-3.11-18.75-4.51-28.14-.12-.74.83-1.92,1.59-2.47,12.71-9.31,25.47-18.54,38.8-28.21-.87-.38-.41-.32-.16,0,6.81,7.1,6.94,7.27-.71,13.82q-11.21,9.6-23,18.52C190.14,266.17,189.94,265.89,192.79,273.11Z" transform="translate(-48.41 26.41)"/><path class="cls-4" d="M489.4,337.59c.29-3.51.54-6.69.86-10.62,17.23.06,33.53,2.92,50.41,10.31-5.89,8.21-11.25,15.81-16.84,23.24-.66.88-2.66,1.28-3.91,1.09-15.14-2.33-30.27-4.81-46.09-7.36v-9.71c9.26.62,18.34,1.09,27.4,1.9a87.57,87.57,0,0,1,12.63,2.19c4.62,1.13,6.61-1.07,8.35-6.29Z" transform="translate(-48.41 26.41)"/><path class="cls-4" d="M362.29,392.37l7.8-6.83c8.47,10.61,16.68,20.65,24.6,30.91,3.53,4.57,3.27,4.78,10.66,2.23l-19.57-26.41,7.77-7.34c12.24,12.52,22,25.92,28.42,43.27-9.82,1.54-18.79,3.08-27.81,4.2-1.34.16-3.39-1.31-4.35-2.6C380.76,417.7,371.88,405.47,362.29,392.37Z" transform="translate(-48.41 26.41)"/><path class="cls-4" d="M486.34,138l-10.08-.6c1.47-13.41,2.51-26.35,4.49-39.13.77-4.91-.33-7.29-6.13-9-1.57,10.84-3.11,21.43-4.74,32.69l-10.57-.75a119.53,119.53,0,0,1,10.17-50.45C477.62,76.52,485.39,82,493,87.61c.75.56,1.09,2.29.92,3.37C491.53,106.33,489,121.66,486.34,138Z" transform="translate(-48.41 26.41)"/><path class="cls-4" d="M221.25,136.65l32.17,4.71v10.13c-13.74,1.59-38-3.2-50.2-10.07,5.29-7.55,10.45-15.09,15.87-22.43a5.4,5.4,0,0,1,4.35-1.64c15.32,2.37,30.61,5,46.35,7.56,1.47,8.75.76,9.85-8.85,9.12-10.21-.77-20.41-2-30.57-3.26C224.83,130.06,224.86,129.8,221.25,136.65Z" transform="translate(-48.41 26.41)"/><path class="cls-4" d="M567,334.31c.69,4.35,5.48,7.49.25,11.39-.55.41.45,3.65,1.39,5.16C576.23,363,584,375,592.47,388.35c-5.59,7.16-12.19,15.75-19,24.17a6.9,6.9,0,0,1-4.43,2c-7,.58-14,.87-20.81,1.26-2.09-8.73-1.83-9.94,6-9.27,13.4,1.16,19.16-7.94,25.26-16.88.71-1,.12-3.54-.65-4.92-6.48-11.54-13.4-22.85-19.66-34.51-4.53-8.43-4.17-8.63,4.16-13.76C564.26,335.87,565.17,335.38,567,334.31Z" transform="translate(-48.41 26.41)"/><path class="cls-4" d="M321.14-21.78c9-1.17,19.57-2.65,30.17-3.78a7.93,7.93,0,0,1,5.17,2c5.25,4.37,10.27,9,15.92,14L366.12-3c-3.67-3-7.08-5.88-10.5-8.7-4.41-3.64-21.6-4.73-25.95-1.34-1.07.84-1.23,2.93-1.66,4.49-3.57,12.74-7.27,25.46-10.59,38.27-1.74,6.69-5.42,8.47-11.62,6-1.35-.54-2.79-.87-4.71-1.46,2.48-3,.87-8.9,7.5-7.91.7.1,2.35-2.78,2.74-4.47C314.61,7.8,317.7-6.34,321.14-21.78Z" transform="translate(-48.41 26.41)"/><path class="cls-4" d="M418.59,33.93c-10-1.54-18.64-2.78-27.23-4.28a6.63,6.63,0,0,1-4.05-2.5c-3.9-5.84-7.52-11.87-11.45-18.18L382,2.75c3.73,5.38,6.77,10.46,10.54,14.92,1.94,2.3,5.19,3.5,8.43,4.3C393.9,4.05,380.36-8,366.16-19.56A16,16,0,0,1,367.81-22c1.36-1.34,2.82-2.58,4.83-4.39C392.49-10.17,409.05,8.27,418.59,33.93Z" transform="translate(-48.41 26.41)"/><path class="cls-4" d="M371.31,487.69l6.44-5.58c1.79,1.52,3.88,2.73,5.21,4.52,8.15,11,19.05,7.92,29.65,5.83,1.23-.25,2.5-2.53,2.95-4.1,3.71-13.12,7.47-26.24,10.72-39.48,1.58-6.43,5.07-7.63,10.69-5.7,1.41.48,2.88.76,4.88,1.27-1.71,3.48.08,9.21-7.05,8.21-.57-.08-1.9,2.18-2.18,3.51C429.88,469.08,427,482,424.87,495c-.63,3.91-1.69,5.7-5.45,6.16-4,.5-8,1.36-12.05,1.83C387.81,505.29,384.87,504.06,371.31,487.69Z" transform="translate(-48.41 26.41)"/><path class="cls-4" d="M195.45,63.84c1.71,8.24,1.22,9.83-6.4,9C175.26,71.29,170,81,163.92,89.92c-.68,1,.18,3.49,1,4.92,6.22,11,13,21.6,18.81,32.78,5.53,10.65,4.85,11.44-7,16.5-1.47-3.49-5-6.64-.54-10.7.58-.53-.28-3.3-1.12-4.61-6.83-10.56-13.41-21.33-20.95-31.36-3.09-4.1-3.46-6.64-.33-10.34,2.63-3.1,5.36-6.27,7.19-9.84C168.6,62.35,181.91,63,195.45,63.84Z" transform="translate(-48.41 26.41)"/><path class="cls-4" d="M614.32,234.28c1.39-2,2-3.46,3.13-4.31,9.86-7.53,10.75-17.32,8.21-28.57-.95-4.16-2.55-5.21-6.46-6.14-14.92-3.53-29.68-7.71-45-11.78,1-5.88,1.79-10.1,2.7-15.28,3.87,2.8,9.28,2,8.36,8.25-.09.62,2.57,2.09,4.1,2.41,12.52,2.64,25,5.4,37.65,7.44,4,.65,6.3,1.44,6.58,5.82a42.84,42.84,0,0,0,1.67,9.47c5,16.4-.9,28.54-15,37.62-.29-.23-1-.72-1.61-1.26C617.33,236.86,616,235.74,614.32,234.28Z" transform="translate(-48.41 26.41)"/><path class="cls-4" d="M547.64,63.75h-8.27c-.43-3.59-1.47-7-1.11-10.28,1.41-13-9.81-16.21-17.22-22.22-.81-.66-4,1.27-5.89,2.35-13.29,7.61-26.52,15.31-40.08,23.15l-8.79-12.44c4.54-.43,7.42-5.77,11.5-.55.45.58,3.28-.06,4.53-.86,10.58-6.82,21.25-13.52,31.43-20.9,3.86-2.8,6.61-4.13,10.49-.65a38.28,38.28,0,0,0,8.24,6.11C547.87,35,549.25,48.4,547.64,63.75Z" transform="translate(-48.41 26.41)"/><path class="cls-4" d="M195.79,415.59h8.32c.23,1.47.8,2.94.62,4.3-1.8,13.28,5.73,21,16.09,26.92a7.27,7.27,0,0,0,6-.24c11.76-6.48,23.46-13.1,35-20,6-3.59,9.82-2.19,12.49,3.93.58,1.33,1.37,2.56,2.33,4.32-3.94.94-7,5.27-11.06.35-.48-.58-3.67.44-5.16,1.4-10.56,6.85-21.19,13.61-31.36,21-3.53,2.56-5.78,3.38-9.3.43a127.52,127.52,0,0,0-15.4-11.55c-6.71-4.09-8.68-10-8.56-17.21C195.84,425,195.79,420.69,195.79,415.59Z" transform="translate(-48.41 26.41)"/><path class="cls-4" d="M166.87,310.22c-4.15-1.83-9-1.29-8.67-7.42,0-.79-2.46-2.21-4-2.54-11.64-2.57-23.24-5.54-35-7.15-6.26-.85-9.94-2.25-9.88-9.17,0-3-.89-5.91-1.23-8.88-2.29-19.71-1.3-22.06,15.63-36.07,1.73,1.85,3.54,3.81,6.25,6.74-14.26,9.64-16,22.3-10.89,35.56,14.27,4.29,28,8.74,42,12.49,6.91,1.86,9.22,5.19,6.63,11.87A28.65,28.65,0,0,0,166.87,310.22Z" transform="translate(-48.41 26.41)"/><path class="cls-4" d="M325.16,445.34c9.93,1.39,18.77,2.54,27.57,3.94a5.79,5.79,0,0,1,3.42,2.43c3.86,5.87,7.51,11.87,11.38,18.06L361.76,475c-8.45-3.79-7.43-18.32-20.72-18,8.49,17.62,21.85,30,36.17,41.44-5.46,7.58-5.95,7.81-12.25,2.22-16-14.19-29.63-30.19-38-50.16C326.4,449.18,326,447.78,325.16,445.34Z" transform="translate(-48.41 26.41)"/><path class="cls-4" d="M211.48,73.74c.12-2.46.24-4.94.41-8.55,5.18.83,10,1.3,14.59,2.41s9.24,2.29,12.49-3.4c-17.68-6.59-35.93-5.71-54.57-3.77V51.86c18.42-5.34,59.64,0,74.14,9.8C251,67.38,243.61,73,236.13,78.56a4.13,4.13,0,0,1-3,.31C226.06,77.27,219,75.55,211.48,73.74Z" transform="translate(-48.41 26.41)"/><path class="cls-4" d="M205.88,399.6h-7.66c-3.12-9,7.55-18.55-2.77-28.71-1.57,10.59-3.42,19.53-4.1,28.57s-.14,17.9-.14,27.06c-7.14,2.11-7.9,1.76-8.59-5.74-1.88-20.51.11-40.61,6.95-60.12a62.75,62.75,0,0,1,2.85-6.46c.24-.51.89-.82,1.43-1.29,5.43,7.26,10.85,14.39,16.1,21.66a5.81,5.81,0,0,1,1,4.14C209.43,385.57,207.65,392.38,205.88,399.6Z" transform="translate(-48.41 26.41)"/><path class="cls-4" d="M548.69,106.16c1.2-9.07,2.86-18.1,3.48-27.21.6-8.88.13-17.82.13-26.86,7.88-1.38,8.42-1,8.8,7,1,21.77-.11,43.24-8.94,63.63a23.88,23.88,0,0,1-1,2.31c-.19.33-.65.51-1.41,1.08-5.58-7.47-11.21-14.9-16.67-22.46-.59-.83-.46-2.44-.2-3.59,1.48-6.65,3.11-13.26,4.78-20.3h7.29c4,8.56-7.3,18.36,1.32,26.43Z" transform="translate(-48.41 26.41)"/><path class="cls-4" d="M577.78,285.74c1.4-9.86,2.64-19.1,4.11-28.32.16-1,1.46-2,2.46-2.6,5.75-3.66,11.57-7.22,18.53-11.54L607.6,249c-3.89,8.85-18.36,7.88-18.29,21,17.81-8.4,30.17-21.8,41.58-36.16,7.8,5.37,7.88,6,1.85,12.64-14.31,15.84-30.09,29.73-50.25,37.78C581.18,284.8,579.78,285.12,577.78,285.74Z" transform="translate(-48.41 26.41)"/><path class="cls-4" d="M531.61,405.3v8.63c-5.92-1-11.62-1.46-17-3-4.57-1.33-7.24.22-10.17,4,17.94,6.59,36,5.44,53.94,3.9,2.56,8.07,1.92,9-5.43,9.7a142.34,142.34,0,0,1-58.33-6.32c-3.35-1.11-6.55-2.72-10.41-4.34,8-6,15.18-11.39,22.46-16.63a5.73,5.73,0,0,1,4-1C517.59,401.77,524.39,403.53,531.61,405.3Z" transform="translate(-48.41 26.41)"/><path class="cls-4" d="M223.41,30.3c-4.86,4.64-14.12,6.43-14.75,16.79h-8.38c-1.34-6.16-.84-11.42,5.31-15.31,5.41-3.41,10.46-7.42,15.52-11.34,3-2.36,5.1-1.9,8.27.42,10.14,7.43,20.76,14.21,31.14,21.33,3.47,2.37,5.77,1.52,7.71-2,2.27-4.08,4.77-8,7.55-12.68l8.79,4c-4.85,7.58-9.25,14.84-14.16,21.74-.74,1-4.27,1.24-5.74.43C251,46.17,237.58,38.38,223.41,30.3Z" transform="translate(-48.41 26.41)"/><path class="cls-4" d="M453.92,21.76l3.63,8.91c-8.93,1.92-17.2,3.91-25.57,5.29-1.27.21-4-2.19-4.4-3.82-3.72-13.59-6.93-27.33-10.69-40.91-.57-2.05-3.05-4.86-4.87-5-6.4-.63-13.42-5.18-19.3,2.74l-6-6.67c3.49-5.07,7.27-8.62,14.18-7.11a169.38,169.38,0,0,0,19.05,2.76c4.19.44,5.47,2.37,6.09,6.5,1.8,12,4.32,24,6.5,35.94.89,4.88,3.36,6.34,8.18,4.67C444.69,23.63,448.94,23,453.92,21.76Z" transform="translate(-48.41 26.41)"/><path class="cls-4" d="M534.68,431.81H543c1.2,6,1.33,11.12-4.66,15.08-6.75,4.47-13.06,9.61-19,14l-40.49-27.22-11.4,17.76-8.55-3.83c4.94-7.77,9.44-15.17,14.39-22.26.62-.88,4-.82,5.38,0,12.24,7,24.46,14.06,36.37,21.59,3.11,2,5,2.08,7.87.08C533.09,440,533.72,439.36,534.68,431.81Z" transform="translate(-48.41 26.41)"/><path class="cls-4" d="M589.69,321.62l-8.84,3.44c-2-9.05-4.05-17.44-5.46-25.95-.19-1.16,2.62-3.69,4.43-4.19,12.34-3.42,24.72-6.82,37.24-9.48,5.41-1.15,8.81-2.31,8.94-8.85.11-5.66,3-11.45-3.23-16.21,2.37-2.2,4.5-4.19,6.45-6,6.38,4,8.7,8.89,6.89,16a108.1,108.1,0,0,0-2.61,17.11c-.38,4.19-2.06,5.4-6.29,6-12,1.79-23.93,4.47-35.9,6.73-4.59.87-6.83,2.71-4.88,7.9C587.93,312.09,588.47,316.41,589.69,321.62Z" transform="translate(-48.41 26.41)"/><path class="cls-4" d="M327.26,491.89c16.25,4,16.85,4,23.83-1.14l5.73,6c-3.93,6.84-9.37,8.54-16.52,7s-14.32-2.35-20.81-3.37c-2.87-14.12-5.75-27.65-8.31-41.23-1.05-5.56-3.68-6.87-8.89-5.08-4,1.37-8.23,2-13,3.13-1-2.7-1.93-5.19-3.26-8.74,8.94-2,17.14-4.08,25.45-5.52,1.25-.22,3.92,2.24,4.39,3.89,3.53,12.51,6.69,25.12,9.91,37.72C326.45,487,326.81,489.56,327.26,491.89Z" transform="translate(-48.41 26.41)"/><path class="cls-4" d="M154,157.48l8.64-3.6c2.08,9.17,4.14,17.61,5.74,26.13.19,1-2,3.21-3.36,3.59-13.61,3.68-27.23,7.33-41,10.42-3.72.84-6,1.83-6,5.82-.11,6.26-4.9,13,3,18.85l-6.7,6c-6.84-3.81-8.41-9.28-6.89-16.45s2.23-14.32,3.21-20.92l47.92-9.44C156.8,170.09,155.42,163.92,154,157.48Z" transform="translate(-48.41 26.41)"/><path class="cls-4" d="M565.74,132.2l18.15,11.39-4,8.62c-7.61-5-15-9.52-21.93-14.59-.95-.69-.74-4.4.17-6,6.67-11.69,13.41-23.36,20.69-34.67,2.4-3.73,2.78-6.45-.11-9.57-4-4.34-5.74-11.62-14.31-10.46V68.17c5.66-1.39,10.84-1.4,14.78,4.56,3.65,5.52,7.74,10.78,11.87,16,2.48,3.1,1.84,5.23-.42,8.3C582.26,108.31,574.35,119.93,565.74,132.2Z" transform="translate(-48.41 26.41)"/><path class="cls-4" d="M179.19,402.35v8.52c-6.57,1.83-11.66.87-15.48-5.28a137,137,0,0,0-11-15c-2.75-3.31-2.06-5.51.33-8.77,8.31-11.28,16.17-22.9,24.59-34.95-4.68-3.05-8-5.36-11.41-7.4-7.12-4.23-7.15-4.18-2.33-12.36l25,15.76c-8.18,13.43-15.87,26.63-24.22,39.39-2.46,3.75-2.79,6.23.12,9.38C168.85,396,170.57,403.23,179.19,402.35Z" transform="translate(-48.41 26.41)"/><path class="cls-4" d="M617.64,168.29c.76-5.64-1.55-7.63-6.29-8.22-5.19-.64-10.3-2-16.21-3.24,1.62-3.63,2.79-6.27,3.8-8.55,7.55,1.18,14.51,2.13,21.4,3.45a5.36,5.36,0,0,1,3.46,3c2.5,7.68,4.68,15.48,7.17,23.94-18.16.77-34.15-3.94-49.58-11.12-3.1-1.45-5.91-3.55-9.07-4.79-7-2.76-6.39-7.26-3.17-13.31C584.07,159,599.19,167.58,617.64,168.29Z" transform="translate(-48.41 26.41)"/><path class="cls-4" d="M174.23,329.51c-15-9.44-30.07-18.26-48.45-18.54-.94,7.41,3.68,7.7,8.62,8.26,4.39.5,8.69,1.81,13,2.75-1.67,9.47-1.67,9.46-10.25,7.48-1.87-.44-3.82-1.37-5.62-1.15-10,1.22-13.29-4.62-14.84-13.05-.87-4.75-2.55-9.36-4.11-14.88,12.15-.86,23,1.23,33.37,4.82,8.43,2.91,16.32,7.33,24.57,10.81C176.89,318.7,178.25,322.75,174.23,329.51Z" transform="translate(-48.41 26.41)"/><path class="cls-4" d="M289.61,15.6c-7.28-1.06-10.86-3.4-7.75-10.23a7.89,7.89,0,0,0,.77-3.74c-1.08-12.39,6.54-16.4,16.94-18,3.75-.59,7.4-1.78,11.72-2.84a93.66,93.66,0,0,1-5.92,35.69c-2.72,7.59-6.79,14.7-10,22.12-2.68,6.15-6.6,7.91-13.29,3.7,8.76-14.8,18.11-29.73,18.47-48.3-4.74-1.19-7.41.48-8.14,5.63S290.59,10,289.61,15.6Z" transform="translate(-48.41 26.41)"/><path class="cls-4" d="M596.17,362.93c4.47-3.75,4-6.92.8-10.76s-5.8-8.37-9-13.14l8.8-3.65c4.51,6.21,9,12.11,13.11,18.24.71,1.07.42,3.41-.27,4.72-3.65,7-7.57,13.86-11.75,21.39-11.66-11.05-19.42-23.86-25.14-38-1.92-4.74-3.12-9.77-4.86-14.59-2.28-6.35-.4-10.2,7-11.54C579,332.46,583.28,349.42,596.17,362.93Z" transform="translate(-48.41 26.41)"/><path class="cls-4" d="M248.15,464.14c3.8,4.32,6.92,4,10.75.74s8.36-5.71,13.16-8.91l3.76,8.55c-6.12,4.46-11.69,8.71-17.5,12.59a6.08,6.08,0,0,1-5.13.38c-7.05-3.48-13.92-7.33-22.29-11.82,5.4-4.53,9.39-9.21,14.45-11.84,12.43-6.47,25.33-12,38.08-17.88,6.13-2.81,10.26-1,12.23,6.75C278.77,446.86,261.58,451.08,248.15,464.14Z" transform="translate(-48.41 26.41)"/><path class="cls-4" d="M155.62,140.15l-8.9,3.57c-4.47-6.17-8.65-11.79-12.62-17.54-.73-1.06-1.33-3-.84-4,3.9-7.53,8.07-14.92,12.44-22.88,12.91,12.51,21.16,26.76,26.8,42.65,1.21,3.42,2.08,7,3.34,10.36,2.29,6.16.27,9.72-7.19,11.12-4.13-16.76-8.29-33.79-21.18-47.16-3.65,2.83-5.06,5.52-1.5,9.79C149.34,130.14,152,134.79,155.62,140.15Z" transform="translate(-48.41 26.41)"/><path class="cls-4" d="M495.34,15.14c-3.41-4.24-6.46-4.42-10.44-1.18s-8.72,5.93-13.15,8.88c-4.73-8.56-4.65-8.43,2.79-13.17,4.33-2.75,8.34-6,13.26-9.56L512,13.17A86.57,86.57,0,0,1,483.85,34c-7.88,3.77-16.28,6.54-24.62,9.21-7.59,2.44-8.39,1.7-11.19-7C465.16,32.38,481.94,27.67,495.34,15.14Z" transform="translate(-48.41 26.41)"/><path class="cls-4" d="M461.78,436.83c-9.92,15.2-18.37,30.4-18.93,48.65,5.36.31,7.94-1.24,8.23-6.67.27-5,1.88-10,3.05-15.73l8.74,3.45c-1.22,7.6-2.25,14.54-3.55,21.43a4.66,4.66,0,0,1-2.39,3.16c-7.84,2.59-15.77,4.91-24.44,7.55-.88-17.41,3.61-32.42,9.9-47a119.28,119.28,0,0,1,5.67-10.79C452.42,433,452.5,433,461.78,436.83Z" transform="translate(-48.41 26.41)"/><path class="cls-4" d="M194.46,125.59c-7.43-16-10.57-31.87-11.59-48.93l8.88-.78c1.51,10.13,3,19.88,4.53,30.35,4.87-2.91,5.65-5.78,5-10.19-1.29-8.42-1.78-17-2.28-25.51-.52-8.83-.35-8.84,9-8.17.5,7.51-.13,15.39,1.78,22.6,3.22,12.2,1.33,22.19-8,30.88C199.08,118.35,197.26,121.78,194.46,125.59Z" transform="translate(-48.41 26.41)"/><path class="cls-4" d="M123.05,236.63l7.46-6.31c6.41,5.49,12.4,12.17,19.77,16.53,8.8,5.21,13.23,11.6,13.07,21.82-.08,4.8,1.36,9.62,2.3,15.64-16.63-5.9-29.82-15.24-42.84-26.41l5.77-6.75,23.91,17.6,2.2-1.77c-1.64-2.7-2.76-6-5-8C141.24,251.5,132.44,244.45,123.05,236.63Z" transform="translate(-48.41 26.41)"/><path class="cls-4" d="M257.84,416.9c-16,7.42-31.83,10.63-49.11,11.58-.15-3.18-.28-6-.41-8.8l29.8-4.65c-3.58-6.32-8.08-4.93-12.55-4.47-10.15,1-20.32,1.78-31,2.67v-9.69c8.72-.68,17.65-.3,26-2.33,9.63-2.34,17.14-1.24,24.09,6.1C248.12,410.92,252.83,413.31,257.84,416.9Z" transform="translate(-48.41 26.41)"/><path class="cls-4" d="M389.94,488.38l-6.78-5.78L401.33,458c-5.48-1.4-8.06.23-10.74,3.67-6.79,8.71-14.1,17-21.78,26.16L362.07,482c8.44-11,15.8-20.61,23.28-30.17a6.37,6.37,0,0,1,3.51-2.44c8.82-1.32,17.68-2.39,27.38-3.66C410.43,462,401.39,475.4,389.94,488.38Z" transform="translate(-48.41 26.41)"/><path class="cls-4" d="M327,33.53A132.64,132.64,0,0,1,353.49-9.15l6.86,5.58-17.64,24,1.74,2.2c2.66-1.62,5.9-2.72,7.88-4.95,7.5-8.4,14.59-17.17,22.21-26.25l6.85,6.45c-6.56,8-13.7,15.17-19,23.53-4.2,6.65-9.27,9-16.54,9.41C340,31.16,334.14,32.47,327,33.53Z" transform="translate(-48.41 26.41)"/><path class="cls-4" d="M549.58,74.65c-13.13,1.76-25.35,3.47-37.6,4.95a7.37,7.37,0,0,1-4.7-1.42c-6.88-5-13.61-10.25-21.16-16,15.49-7.75,31.61-10.41,48.39-11.68a24.11,24.11,0,0,1,.73,3.41c.11,1.87,0,3.76,0,5.5L505.4,63.85c2.61,5.22,5.82,5.54,10.1,5,11-1.28,22-2,33.57-3C549.29,69.77,549.44,72.25,549.58,74.65Z" transform="translate(-48.41 26.41)"/><path class="cls-4" d="M577.92,194.83c16.43,6,30,14.94,42.89,26.5L615.09,228l-24.34-17.82-2.12,1.76c1.69,2.73,2.88,6,5.15,8.07,6.44,5.9,13.53,11.1,20,17s6.14,6-.47,12c-7.29-6.12-14-13.1-22-18.11-7-4.4-10.42-9.46-10.69-17.59C580.34,207.4,578.92,201.57,577.92,194.83Z" transform="translate(-48.41 26.41)"/><path class="cls-4" d="M551.77,403c-1.54-10.2-3-19.8-4.42-29.4l-3-.24c-.68,3.33-2.11,6.71-1.93,10,.62,10.83,1.82,21.62,2.86,33.14l-9.29.5c-1-10.2-1.12-20.12-3.25-29.58-1.7-7.53-.47-12.91,4.71-18.41,4.2-4.45,7.37-9.87,11.51-15.56,7.54,15.76,10.44,31.71,11.63,48.9Z" transform="translate(-48.41 26.41)"/><path class="cls-4" d="M448.92,19c-8.15,4.25-8.74,4-11.29-4-3.49-11-6-22.09-5.78-34.9,8.94,2.69,17.06,5.07,25.11,7.65a4.25,4.25,0,0,1,2.25,2.68c3.21,12.1,6.28,24.24,9.58,37.13l-9.06,2.68c-3.36-11.07-6.37-21.69-9.9-32.13-.85-2.52-3.43-4.45-5.21-6.65L441.83-7C444.15,1.51,446.48,10,448.92,19Z" transform="translate(-48.41 26.41)"/><path class="cls-4" d="M246.66,15.56l23.75,13.51c-3.09,8.91-3.09,8.91-11.35,4.84-12.35-6.1-22.49-13.55-27.56-20.6,7.31-4,14.48-8.09,21.82-11.83,1.16-.59,3.36-.09,4.66.64,10.73,6.08,21.36,12.33,32.47,18.79-1,2-2.37,4.75-4.27,8.58C275.85,24,266,19.06,256.41,13.51,252.77,11.4,250.26,11.19,246.66,15.56Z" transform="translate(-48.41 26.41)"/><path class="cls-4" d="M124.94,169.63l26.84-7.36,2.76,10-40.12,8.55-1.85-2.13c2.53-8.4,5-16.82,7.71-25.15.27-.81,2.1-1.27,3.28-1.59,11.72-3.12,23.45-6.18,36-9.48.67,1.87,1.69,4.72,3.19,8.87-11.23,3.49-21.85,7.17-32.71,10C125.74,162.48,124.5,164.33,124.94,169.63Z" transform="translate(-48.41 26.41)"/><path class="cls-4" d="M595.7,114.76c-4.4,7.72-8.79,15.44-13.55,23.78l-8-3.84a101.11,101.11,0,0,1,23.6-36c4.37,8,8.4,15.22,12.19,22.55a5,5,0,0,1-.27,4.06C603.41,136.19,597,147,590.58,157.88c-8.46-2.82-8.64-2.91-4.74-11,3.71-7.68,8.07-15,11.72-22.75,1.18-2.49,1-5.62,1.43-8.47Z" transform="translate(-48.41 26.41)"/><path class="cls-4" d="M472.76,449.81l4.66-9.29,35.11,22.72-.42,2.47c-7.42,4.05-14.81,8.16-22.3,12.08a4.37,4.37,0,0,1-3.54-.27c-10.89-6.27-21.69-12.67-33.09-19.36l3.91-8.53c10.21,5.37,20.14,10.19,29.62,15.78,3.91,2.31,6.54,2.31,10.34-1.72Z" transform="translate(-48.41 26.41)"/><path class="cls-4" d="M170.72,345.4c-8,12.25-15.41,23.55-22.8,34.86l-2.39-.49c-4-7.4-8.16-14.76-12-22.26-.51-1-.08-2.85.55-3.95,6.13-10.71,12.38-21.34,19-32.68l8.33,4.25c-5.16,9.91-9.72,19.54-15.15,28.64-2.33,3.91-3.16,6.7,1.27,10.92l14-24.2Z" transform="translate(-48.41 26.41)"/><path class="cls-4" d="M631,299.63c-2.42,8.5-4.53,16.32-7,24a5.58,5.58,0,0,1-3.42,3c-11.9,3.35-23.87,6.5-36.53,9.9l-3.39-8.89c11-3.4,21.39-7,32-9.71,4.29-1.1,6.59-2.53,6-8.48l-26.93,7.19-2.66-8.39C602.5,302.6,615.93,299.31,631,299.63Z" transform="translate(-48.41 26.41)"/><path class="cls-4" d="M274.58,451.66l9-3c3.36,10.84,6.92,21.08,9.6,31.55,1.08,4.22,2.6,6.49,8.5,6.53-2.39-9-4.68-17.67-7.21-27.19l8.66-2.68c5.18,13.56,8.95,26.74,8.27,42.08-8.66-2.63-16.62-4.93-24.45-7.56-1.17-.39-2.22-2.29-2.61-3.69C281.1,476,278,464.29,274.58,451.66Z" transform="translate(-48.41 26.41)"/><path class="cls-4" d="M359.35,433.75c4.6-6.82,8.2-12.17,12.62-18.71l12.31,18.71Z" transform="translate(-48.41 26.41)"/><path class="cls-4" d="M196.49,239.54,177.56,251.9V227.19Z" transform="translate(-48.41 26.41)"/><path class="cls-4" d="M518.47,368.09l-17.93,17.76-4.67-22.39Z" transform="translate(-48.41 26.41)"/><path class="cls-4" d="M359.19,45.19h25L372,64.24Z" transform="translate(-48.41 26.41)"/><path class="cls-4" d="M243.39,385l-17.12-15.18L227,368l20.9-4.34C246.2,371.63,244.85,378.08,243.39,385Z" transform="translate(-48.41 26.41)"/><path class="cls-4" d="M495.75,115.54c1.72-8.32,3-14.5,4.73-22.89l15.36,18.65Z" transform="translate(-48.41 26.41)"/><path class="cls-4" d="M547.1,239.49l18.84-12.35v24.5Z" transform="translate(-48.41 26.41)"/><path class="cls-4" d="M243.57,95.69c1.15,5.39,2.52,11.75,4.21,19.64L225.34,111Z" transform="translate(-48.41 26.41)"/><path class="cls-4" d="M381.21,28.94H364.69l8.37-14Z" transform="translate(-48.41 26.41)"/><path class="cls-4" d="M468.23,472.87,482,481.64l-16.42,6.87C466.51,482.89,467.26,478.49,468.23,472.87Z" transform="translate(-48.41 26.41)"/><path class="cls-4" d="M527.58,97.31,515.72,85.37l15.63-3.84C530,87.34,528.91,91.73,527.58,97.31Z" transform="translate(-48.41 26.41)"/><path class="cls-4" d="M138.48,336c-3.27,5-5.75,8.8-9,13.79-2.35-5.83-4.19-10.38-6.55-16.22Z" transform="translate(-48.41 26.41)"/><path class="cls-4" d="M621,332.64l-6.86,16.56-9-13Z" transform="translate(-48.41 26.41)"/><path class="cls-4" d="M481.74-2.78,468.4,6.38c-1.16-5.64-2.06-10-3.28-16Z" transform="translate(-48.41 26.41)"/><path class="cls-4" d="M604.89,143.1l9-13.55,7,16.07Z" transform="translate(-48.41 26.41)"/><path class="cls-4" d="M262,482l12.86-9.42c1.26,5.7,2.26,10.18,3.56,16.07Z" transform="translate(-48.41 26.41)"/><path class="cls-4" d="M514.41,395.18l11.69-11,3.68,15.17Z" transform="translate(-48.41 26.41)"/><path class="cls-4" d="M160.78,247l-13.55-8.7,13.55-8.08Z" transform="translate(-48.41 26.41)"/><path class="cls-4" d="M378.82,450.35c-2.84,4.64-5.13,8.38-8.27,13.49l-8.45-13.49Z" transform="translate(-48.41 26.41)"/><path class="cls-4" d="M138.62,143l-15.91,3.13c2.43-6,4.32-10.55,6.69-16.34Z" transform="translate(-48.41 26.41)"/><path class="cls-4" d="M216,382.13,226.5,394.3l-14.54,3C213.44,391.82,214.56,387.61,216,382.13Z" transform="translate(-48.41 26.41)"/><path class="cls-4" d="M275.29,6.37,261.71-2.42l16.22-7C277-3.63,276.24.64,275.29,6.37Z" transform="translate(-48.41 26.41)"/><path class="cls-4" d="M596.6,240.79l-13.71,8.1V232.35Z" transform="translate(-48.41 26.41)"/><path class="cls-4" d="M217.3,95.13c-1-4.78-2-9.16-3.19-14.94l15.33,3.69Z" transform="translate(-48.41 26.41)"/><path class="cls-4" d="M603.12,280.31l15.72-11C619.09,280,620.48,278,603.12,280.31Z" transform="translate(-48.41 26.41)"/><path class="cls-4" d="M238.36,47.4l-20.08-3.58C223.93,36.34,226.4,36.79,238.36,47.4Z" transform="translate(-48.41 26.41)"/><path class="cls-4" d="M176.77,84.93c1.23,6.84,2.31,12.82,3.44,19C171,96.83,169.85,91.54,176.77,84.93Z" transform="translate(-48.41 26.41)"/><path class="cls-4" d="M125.39,277.34l-1.88-10.07,16.57,11.59-.49,1.17Z" transform="translate(-48.41 26.41)"/><path class="cls-4" d="M342.52,487.18c-11.35-1.4-9.26,2.37-12.59-17.64C334.49,475.94,338.33,481.32,342.52,487.18Z" transform="translate(-48.41 26.41)"/><path class="cls-4" d="M567.58,85.29c7,7.72,6.41,10.42-3.5,20.36C565.26,98.8,566.34,92.47,567.58,85.29Z" transform="translate(-48.41 26.41)"/><path class="cls-4" d="M563.33,374.77c10.46,10.09,10.9,12.58,3.43,19.33Z" transform="translate(-48.41 26.41)"/><path class="cls-4" d="M331.08,9.9C333.42-8,333.42-8,343-7.56Z" transform="translate(-48.41 26.41)"/><path class="cls-4" d="M124.24,210.15c.41-10.57,1.31-11.23,16.94-12Z" transform="translate(-48.41 26.41)"/><path class="cls-4" d="M400.3,486.89l11-16C412.94,482.59,410.22,486.7,400.3,486.89Z" transform="translate(-48.41 26.41)"/><path class="cls-4" d="M175.94,393.4c-7.41-7-7.36-7.26,3.33-20-.64,4.21-1.05,7.1-1.53,10C177.21,386.49,176.62,389.6,175.94,393.4Z" transform="translate(-48.41 26.41)"/><path class="cls-4" d="M237.29,430.91c-11.43,10.67-13.07,11-20,3.71Z" transform="translate(-48.41 26.41)"/><path class="cls-4" d="M527.5,44.45l-19.59,3.32-.6-1.16,12.17-8.14Z" transform="translate(-48.41 26.41)"/><path class="cls-4" d="M602.54,199.55c16.63,1.95,16.89.66,16.52,11.51Z" transform="translate(-48.41 26.41)"/><path class="cls-4" d="M412.57,8.18,401.63-7.54C411.26-8,413.49-4.71,412.57,8.18Z" transform="translate(-48.41 26.41)"/><path class="cls-4" d="M505.6,431.84l19.09,3.36C519.39,443.37,519,442.44,505.6,431.84Z" transform="translate(-48.41 26.41)"/><path class="cls-4" d="M390.86,302.53l3-6.14c7.1,3.85,14.25,7.17,20.76,11.46,4.21,2.76,7.27,2.82,10.74-.56,1.53-1.48,3.48-2.56,4.91-4.11,3.91-4.24,9.68-8.17,10.82-13.12.94-4.08-3.68-9.43-5.82-14.23-.42-.93-.75-1.9-1.08-2.78,4.29-3.63,7.37-2.93,9.6,1.93a24.71,24.71,0,0,0,2,3.28c6.83,10.36,7.33,10.81-1.23,20.26-6.53,7.22-14.45,13.21-21.95,19.51-1.12.94-3.8,1.38-5,.71C408.82,313.65,400.18,308.22,390.86,302.53Z" transform="translate(-48.41 26.41)"/><path class="cls-4" d="M398.82,309.61c-1.24,6-2.83,11.13-3.25,16.38-.33,4-2.41,5.43-5.54,5.47-12.31.19-24.63.26-36.93-.13-1.8-.06-4.55-2.58-5.09-4.47-2.69-9.4-4.79-19-7.26-29.14l6.36-2.36c2.36,7.74,5.24,14.9,6.59,22.34,1.07,5.93,3.76,8,9.33,7.8,2.12-.09,4.27.48,6.4.38,5.32-.25,10.89.15,15.89-1.31,6.17-1.8,2.81-8.94,5.46-13,.76-1.17,1-2.68,1.64-4.46Z" transform="translate(-48.41 26.41)"/><path class="cls-4" d="M442,212.58c4.91,1,9.09,2.43,13.29,2.51,6.22.12,8.26,3.23,9.15,8.83,1.87,11.8,2,23.48-1.14,35-.45,1.68-2.16,3.85-3.7,4.27-9.64,2.63-19.4,4.83-29.63,7.3l-2.29-6.38c8.33-2.45,16.17-4.95,24.12-7,3.25-.85,5.51-1.84,5.47-5.67-.07-7.87,0-15.75,0-23.63,0-3.59-1.52-5.22-5.37-5.54s-7.86-1.72-12.61-2.84C440.3,216.89,441.16,214.71,442,212.58Z" transform="translate(-48.41 26.41)"/><path class="cls-4" d="M402.72,181.47l-6.43,2.19c-2.55-8.64-4.85-17-7.61-25.31-.56-1.68-2.76-3.93-4.29-4a242.33,242.33,0,0,0-24.85,0c-1.64.09-3.84,2.59-4.54,4.45-1.55,4.11-2.3,8.51-3.52,13.35l-6.62-2.56c1.09-6,1.86-11.66,3.32-17.17a7.16,7.16,0,0,1,4.24-4.38,75.18,75.18,0,0,1,38.66-.08c1.66.43,3.85,2.08,4.26,3.59C398,161.15,400.17,170.88,402.72,181.47Z" transform="translate(-48.41 26.41)"/><path class="cls-4" d="M352.54,176.34c-.53,1.24-1.34,3.12-2.69,6.29-7.71-4.12-15.17-7.67-22.12-12-3.36-2.09-5.75-2.32-8.44.32q-8,7.88-15.9,15.8c-2.93,2.94-2.64,5.75-.1,9,2.34,3,4.09,6.43,6.22,9.86-4.22,3.52-7.39,4.16-9.65-1.33a15.42,15.42,0,0,0-1.71-2.71c-7.41-10.86-7.9-11.29,1.07-21.33,6.34-7.1,14.12-12.94,21.55-19,1.25-1,4.42-1,6-.1C335.31,165.88,343.65,171,352.54,176.34Z" transform="translate(-48.41 26.41)"/><path class="cls-4" d="M303.78,259.49c-.43,5.38-1.91,8.19-7.28,6.06a28.78,28.78,0,0,0-5-1.13c-11.19-2.29-11.39-2.26-12.94-13.64a79.74,79.74,0,0,1,2.33-33.71l32.47-8.61c.59,1.38,1.39,3.23,2.68,6.25-8.48,2.63-16.44,5.51-24.62,7.43-3.68.86-5.29,2.35-5.35,5.77-.13,7.48-.13,15-.16,22.45,0,4.09,2,6.05,6.11,6.59C295.81,257.45,299.53,258.54,303.78,259.49Z" transform="translate(-48.41 26.41)"/><path class="cls-4" d="M337.81,301.72c3.56,4.27,4.43,7.32-.89,9.51a24.45,24.45,0,0,0-3.85,2.32c-10.3,6.74-10.8,7.3-19.91-.84-7.42-6.63-13.58-14.7-20-22.39-1-1.14-1-4.09-.22-5.49,4.93-8.69,10.22-17.17,15.7-26.22l6.1,3.15c-3.83,7.15-7,14.22-11.22,20.55-3,4.43-2.94,7.66.69,11.18,5.06,4.89,10.16,9.75,15.19,14.66,2.56,2.5,4.86,2.59,7.8.29C330.37,306,334,304.1,337.81,301.72Z" transform="translate(-48.41 26.41)"/><path class="cls-4" d="M434.78,220.25a18.47,18.47,0,0,1-2.17-.83c-.94-.44-1.81-1-3.79-2.16,3.79-7.07,7.05-14.22,11.31-20.71,2.76-4.2,2.87-7.15-.62-10.58-1.82-1.79-3.1-4.15-5-5.88-3.91-3.63-7.63-7.78-12.21-10.31-5.79-3.2-8.36,4.33-13.09,5.47a25.62,25.62,0,0,0-4,1.7c-3.57-4.26-3.07-7.35,2.11-9.35a12.21,12.21,0,0,0,2.13-1.43c11.23-7.59,11.64-8.06,21.85,1,6.95,6.16,12.7,13.75,18.62,21a6.82,6.82,0,0,1,.6,6.17C445.59,203,440.19,211.46,434.78,220.25Z" transform="translate(-48.41 26.41)"/><path class="cls-4" d="M405.14,296.45c1.14-2.16,2.12-4,3.39-6.39l11.9,5.56,6.34-7.42c-3.1-8.05-6.35-16.12-9.3-24.29-1.62-4.52-.62-8,4-8.58,4.74,10.31,9.4,20.27,13.83,30.33.56,1.25.12,3-.17,4.51-.15.73-1,1.32-1.59,2C421.69,305.94,421.69,305.94,405.14,296.45Z" transform="translate(-48.41 26.41)"/><path class="cls-4" d="M298.45,244c8.4,3.82,16.11,7.45,23.93,10.84,5.06,2.2,5.53,5.22,2.75,8.91l-34-13.81c0-5.59-.14-12.79.15-20,0-1.16,1.8-2.81,3.11-3.27,4.2-1.46,8.55-2.47,13.42-3.81.83,2.27,1.6,4.36,2.57,7C302.62,232,294.43,233.62,298.45,244Z" transform="translate(-48.41 26.41)"/><path class="cls-4" d="M435.78,256.3c-.88-2.36-1.54-4.11-2.47-6.57,2-.93,3.75-1.9,5.64-2.62s4-1.25,6.25-1.92v-10.1c-8-3.57-16-6.87-23.79-10.72-5.59-2.78-5.42-3.11-3.11-8.63,10.54,3.85,21.52,6.78,31.23,12,2.93,1.59,2.94,9.64,3.15,14.78.13,3.28,1.8,8.07-3.49,9.73C444.93,253.63,440.65,254.85,435.78,256.3Z" transform="translate(-48.41 26.41)"/><path class="cls-4" d="M420.76,184.51c-8.81,3.31-17,6.4-25.14,9.43-4.7,1.74-7.31,0-7.88-3.93,10.44-5,20.47-9.92,30.6-14.58,1-.48,2.85.12,4,.76a18.76,18.76,0,0,1,3.86,3.34c13.87,14.12,12.07,8.82,2.6,26.13-4-.93-8.22-2-4.44-7.31C429.11,191.76,425.65,188,420.76,184.51Z" transform="translate(-48.41 26.41)"/><path class="cls-4" d="M314.86,272.81l6.24,3.28a44.69,44.69,0,0,1-2.65,6c-2.29,3.69-2.43,6.35,1.1,9.91s6.14,1.85,9.52.4c6.06-2.59,12.23-5,18.51-7,5.46-1.76,5.55-1.48,9,4.7-2,.67-3.91,1.19-5.73,2-7.81,3.31-15.73,6.43-23.33,10.18-3.07,1.51-5,2.21-7.82-.41-4.72-4.31-9.95-8.08-15-12.08l1.86-2.23Z" transform="translate(-48.41 26.41)"/><path class="cls-4" d="M389.05,175.47l-7.74,2.46c-1.85-7.73-3.76-15.9-13.94-11.69-3.77,8.23-7.47,16.09-11,24-1.9,4.33-4.7,5-9.4,2.5.72-1.6,1.49-3.2,2.15-4.84,3.33-8.27,6.51-16.61,10.05-24.8.76-1.75,2.75-3,4.23-4.39.25-.24.83-.18,1.25-.16,6,.2,13.16-1.53,17.55,1.21C386.06,162.2,386.73,169.63,389.05,175.47Z" transform="translate(-48.41 26.41)"/><path class="cls-4" d="M338.18,182.42l-2.78,6.64c-2.17-1-4.11-1.68-5.86-2.69-3.53-2.05-6.18-3-10,.68-4,3.85-2.16,6.37-.57,10,2.56,5.85,4.31,12.05,6.87,17.9,2.35,5.37.49,8-3.72,8.92l-14-30.33c-.09-.2-.31-.37-.32-.56-.13-7,6.06-9.69,10-13.68,2-2,5.94-3.88,8.37-3.28C330.36,177,334,180.06,338.18,182.42Z" transform="translate(-48.41 26.41)"/><path class="cls-4" d="M382.13,320.26c-5.26,0-11.63-.11-18,0-3.31.08-5-1-5.63-4.48-.73-3.93-2.15-7.73-3.46-12.26l6.8-2.33c1,2.42,2.15,4.28,2.47,6.28.75,4.7,3.18,6.06,7.88,6.09s5.36-2.35,6.62-5.88A161,161,0,0,1,387.06,289c2.61-5.12,2.9-5,9-3Z" transform="translate(-48.41 26.41)"/><path class="cls-4" d="M416.51,269.57c.76,1.84,1.56,3.76,2.35,5.69l-1.62-.84L401,297.36l-5.85-2.64C401.18,284.92,402.16,272,416.51,269.57Z" transform="translate(-48.41 26.41)"/><path class="cls-4" d="M351.6,301.26c-.49-1.36-1.25-3.5-2.25-6.34,11.08-2.48,20.86-11.08,32.72-2.5l-2.4,5.67-.57-1.74Z" transform="translate(-48.41 26.41)"/><path class="cls-4" d="M424.59,229.09l5.4,2.44c0,5-.56,9.54.15,13.9.74,4.55,2.71,8.9,4.31,13.85L427.19,262C424.72,250.85,416.18,241.18,424.59,229.09Z" transform="translate(-48.41 26.41)"/><path class="cls-4" d="M402,195.08c4.59-3.36,7.07-2.42,9.62,2.48,1.45,2.79,5.37,4.42,8.36,6.26s6.38,3.41,10.38,5.5l-3.48,6.32C406.72,207.27,405.08,205.91,402,195.08Z" transform="translate(-48.41 26.41)"/><path class="cls-4" d="M391.62,176.9l2.48,7c-10.93,2.68-20.79,11.15-32.58,2.89.88-4.66,2.45-6.69,7.82-5.31,3.53.91,7.79-.55,11.63-1.36C384.47,179.39,387.85,178.08,391.62,176.9Z" transform="translate(-48.41 26.41)"/><path class="cls-4" d="M318.94,249.82l-6.58-2.63c5.63-9.83-1.48-18.19-3.05-27.56l6.68-2.48C318.77,227.92,327.28,237.47,318.94,249.82Z" transform="translate(-48.41 26.41)"/><path class="cls-4" d="M341.7,284.45l-6.77,2.33c-2.15-8.71-9.67-11.09-16.36-14.13-5.3-2.41-5.55-5-1.39-9.41C326.09,269,339.13,269.76,341.7,284.45Z" transform="translate(-48.41 26.41)"/><path class="cls-4" d="M326.8,209.51c-.7-2.27-1.3-4.23-1.89-6.18l1.94.92,15.48-22.55,6.06,2.6C342.3,193.94,341.58,206.92,326.8,209.51Z" transform="translate(-48.41 26.41)"/><path class="cls-4" d="M288.4,196.75l7.93,11.2-14.05,3.24Z" transform="translate(-48.41 26.41)"/><path class="cls-4" d="M455.13,196.38c2.2,5.33,3.8,9.19,6,14.52l-13.68-2.53Z" transform="translate(-48.41 26.41)"/><path class="cls-4" d="M455.16,282.58c-3-4.33-5.1-7.4-8-11.62L461,268C458.91,273.24,457.33,277.16,455.16,282.58Z" transform="translate(-48.41 26.41)"/><path class="cls-4" d="M403.18,164c-1.06-4.58-1.9-8.23-3.21-13.92l14.66,6.24Z" transform="translate(-48.41 26.41)"/><path class="cls-4" d="M400.11,329.19c1.15-5.67,1.9-9.32,2.86-14l11.7,7.61Z" transform="translate(-48.41 26.41)"/><path class="cls-4" d="M288.46,282.7l-6-14.59,13.74,2.57Z" transform="translate(-48.41 26.41)"/><path class="cls-4" d="M328.75,156.26l14.28-6c-.9,5.26-1.53,9-2.36,13.87Z" transform="translate(-48.41 26.41)"/><path class="cls-4" d="M328.51,322.85l11.91-7.71c.94,4.84,1.67,8.58,2.65,13.6Z" transform="translate(-48.41 26.41)"/></g><g id="Layer_1-2" data-name="Layer 1"><path id="Path_618" data-name="Path 618" class="cls-5" d="M532.71,496.16c-18.22-2.93-37.61-12.66-55.11-18.57-14.54-4.87-36.15-8.44-49.11-15.67-4.7-2.68-8.56-10.75-13.73-12.35-2.19-.69-4.7-.48-7-2.88-4.09-4.28-5.39-13.11-8.23-16l-4.06-1.13c-1.83-1.35-16.3-23.8-16.14-24.82.28-1.93,7.49-9.4,7.29-12.54a2.79,2.79,0,0,0-.19.33L386,391c-10.31-5.54-13.68-.61-26,.63-1.68.17-10.63,2.18-11.57.42-.37-.7.1-1.56.16-2.4a50.48,50.48,0,0,0,.45-7.17c-.25-3-2.13-5.93-2.21-8.9-.22-8.7,8-15.67,12.18-23.21,1.69-3.13,4-9.4,7.44-12.3l-.11-.13c-4.7-4.82-10.37-8.44-15-12.8-3.64-3.35-4.39-9.4-7.65-12.92C338.45,306.61,329.81,304,324,299s-8.49-15-15.45-19.26c-3.27-2-8.08-1.57-11.53-3.31-4.42-2.17-7.18-6.6-12.4-7.41-3-.48-4.7,1.08-7.26,1.35-3,.31-10-5-12.78-4.45-1.88.34-3,2.51-4.88,3.13-1.11.33-2.35-.89-3.45-.51L254.18,271c-.85-.41-5-10.83-7.84-7.52-.5.58.52,1.66.16,2.35-1.74,3.35-13.71,6.67-17.24,6.27-6-.66-5.18-6.82-8.52-9.3-1.73-1.28-6.49-.23-8.6-1.56l-2.48-3.48c-4-1.07-9.5,26.11-11.5,26.84-1.31.47-7-11.5-9.26-12.83-5.74-3.4-5.74,4.29-7.62,6.06-2.77,2.62-8.43-1.75-11.45-1.56-2,.12-4.83,1.78-6.69,2.47-.16,3.78-2.81,7.52-2.82,11.28-.1,14.36-.27,8.26-5.79,20.78-3,6.9-.92,14.1-2.42,20.88-1.2,5.4-11.52,1.49-15.25,4.23-6.52,4.8-7.84,17.14-11.6,23.22-1.73,2.76-5.91,4-7.84,6.61-2.3,3.23.28,7.26-.15,10.64-.9,7.2-4.83,13.37-4.36,20.75l1.83,2.93c-3,10.7-11.09-.23-13.27-.44-3.65-.31-10.17,8.92-10.55,12-.39,3.34,2.57,7.24,2.68,10.61.14,4.28-7.94,18.05-8.43,24.92-.77,10.5,6.27,24.71,2.17,34.86-5.35,13.3-22.35-.15-31.75,5-3.29,1.82.8,8.12-.33,10.64-.93,2.14-6,3.51-6.79,7.17-1.39,7,19.37,6.75,23.51,8.68,3,1.45,12,7.58,13.6,10.54.41.77,0,1.78,0,2.67s-.46,1.93,0,2.66c1.11,1.57,4,.91,5.28,2.34l.67,4.12c2.23,2.52,7.84,2.13,10,4.7l.67,4.12c2.22,2.91,7.46,2.77,9.4,6.47,5.78,10.84,6.46,24.38,12.35,34.9,1.11,2,5.61,2.6,6.47,4.7s-1.22,3.14,1.27,4.7c2.9,1.93,2.48-1.66,4.61-2.4,1.23-.44,12.53,2.81,13.44,4.06.61.78-2.14,9.48-2.13,10.84.14,6.93,3,12.15,6.71,17.65,3,4.53,24.12-.53,29.66,1,7.15,2,35.53,21.22,42.31,26.55,1.32,1.05,2,2.91,3.56,3.57,3.83,1.57,10.45-.61,13.92-1.27l2.9,1.17c4.43.4,7.32,2.81,11.66,3.51,3.13.54,6.6-.26,10,.3,1.75.33,8.85.26,9.76.8s.57,3.86,2.92,2.37c5.62-3.53,6.26-11.27,10.18-15.59,2.4-2.63,28.55-15.67,31.53-15.14,6.9,1.36,8,11.91,18.71,11.83l17.9-.12,1.66-1.21a3.3,3.3,0,0,0-.28.49c2.27-1.93,5.53-7.26,9.12-8.33,7.63-2.36,16.08-.92,23.82-3.8,4.27-1.57,2.3-4.91,4.44-7.84,5.28-7.27,18.91-11.86,27.14-14.31,11.47-3.41,34.38,2.67,40.85-.14,5.1-2.22,11.33-13.29,15-17.6,12.78-15,25.08-30.54,38.4-45.1,7.4-8.11,43-44.94,44.11-48.87,1.16-4.33-26.28-.85-31-1.57" transform="translate(-48.41 26.41)"/><path id="Path_619" data-name="Path 619" class="cls-6" d="M322.57,530.23l2.76-1.1,2.8-1.28,2.65-1.44,2.63-1.57,2.42-1.65,2.55-1.77,2.29-2.08,2.19-2,1.82-2.7,1.57-2.8,1.31-2.81,1-2.9.54-3.24.23-3.32-.22-3.31-.55-3.45-.73-2.21-1-2.13-1.15-2-1.3-1.84L342.82,483l-1.57-1.47-1.8-1.35L337.62,479l-2.43-1-2.53-.66-2.55-.47-2.52-.28-2.66-.13h-2.79l-2.66.14-2.76.15-2.65.5-2.74.52-2.71.61-2.6.68-2.71.61-2.55.56-2.57.77-2.5.72-1.72.52-1.66.67-1.68.67-1.57.57-1.81.83-1.57.81-1.65.77-1.67,1-1.57.94-1.57,1-1.45,1.08-1.46,1.08-1.43,1.17-1.34,1.15-1.26,1.11-1.13,1.27-1.42,1.82-1.3,1.88-1.3,2-1.08,2-.85,2.21-.75,2.18-.53,2.3v2.53l.14,1.73.25,1.79.33,1.77.5,1.73.65,1.56.77,1.65.94,1.56,1.08,1.46,1.12,1.26,1.27,1.12,1.31,1,1.44,1.07,1.66.91,1.57.95,1.71.72,1.79.68,2.17.77,2.13.58,2.29.45,2.42.31,2.49.2h2.44l2.57-.09,2.57-.2,2.93-.49,2.92-.58,2.91-.58,3-.69,2.84-.83,3-.88,2.7-1Zm-6.72-23.78-2.06.31-2.13.36-2,.41-2,.4-2,.58-2.1.82-1.93.75-1.88.93-.58.54-.58.25L298,512l-.55.35-1.72.8-1.83.72-1.74.8-1.76.7-1.94.66-1.9.56-1.8.54-2,.58-1.84.44-2,.3-2.08.23h-1.76l-2,.13h-1.94l-1.93-.19-1.88-.38-.25-.2-.26-.3-.35-.17-.25-.22,2.43.31h2.45l2.33-.31,2.34-.6,2.21-.73,2.13-1,2.19-1.12,2.08-1.17,2.23-1.32,2.08-1.17,2.06-1.26,2.28-1.14,2.2-1.11,2.21-.74,2.18-.83,2.3-.41h.83l.69-.2h.73l.69-.2.69-.2.6-.17.73-.13.6-.17,2.16-.26L312,503l2.23-.38,2.11-.42,2.17-.55,2.07-.61,2.14-.64,2.15-.63,2-.69,2.1-.8,2.1-.81,2-.69L335,496l2-1,2.08-.89,2-.87.94-.64.91-.38.76-.58.93-.65h1.19l-1.05,1.8-1.3,1.56-1.57,1.57-1.77,1.27-1.85,1.3-2.1,1.46L334.27,501l-1.94,1.33-2.05,1-2,.58-2.05.61-2,.58-2.08.24-2.18.55-2.08.23Z" transform="translate(-48.41 26.41)"/><path id="Path_620" data-name="Path 620" class="cls-6" d="M368.41,527.44l-.33-1.41-.41-1.37-.53-1.37-.61-1.25-1-1.38-1.16-1.22-1.26-1.15-1.28-1-1.41-1-1.57-.93-1.57-.84-1.56-.87-1.57-.64-1.69-.64-1.71-.6-1.66-.53a49.81,49.81,0,0,1-11,12.75l.47.25.45.13.41.23.45.13.46.12.39.11.42.19.39.11,1.29.6,1.35.57,1.36.54,1.32.5,1.38.44,1.34.38,1.4.39,1.41.39,1.35.32,1.44.28,1.42.28,1.37.31,1.33.19,1.46.17,1.45.22,1.4.2h.73l.63.11h1.35l.69.38-1.21.63-1.27.42-1.41.33-1.41.09-1.47.08-1.66.08h-3l-1.46-.17-1.28-.36-1.35-.38-1.29-.35-1.23-.6-1.38-.43-1.22-.6-1.26-.52-1.24-.53-1.3-.54-1.25-.48-1.25-.47-1.29-.36-1.44-.27-1.33-.24-1.34-.14-.36.08a75.49,75.49,0,0,1-17.1,7.5l.64.68,1.1,1,1.22,1,1.3,1,1.33.86,1.46.83,1.47.77,1.79.73,1.8.69,1.8.69,1.88.65,1.85.51,2,.55,1.81.38,2,.39,1.9.34,2,.26,2,.12h2l1.9-.08,2-.09,2-.36,1.91-.38,1.94-.84,1.83-1,1.7-1.1,1.56-1.32L364.7,539l1.27-1.76,1-1.9.88-2,.34-1.47.19-1.57v-2.85Z" transform="translate(-48.41 26.41)"/><g id="ETHIOPIA" class="cls-7"><text class="cls-8" transform="translate(104.6 472.51)">ETHIO</text><text class="cls-9" transform="translate(282.69 472.51)">P</text><text class="cls-8" transform="translate(321.95 472.51)">IA</text></g></g></g></svg>