<svg id="Layer_1" data-name="Layer 1" xmlns="http://www.w3.org/2000/svg" viewBox="0 0 139.31 100.07"><defs><style>.cls-1{fill:#ffffff;}.cls-2{fill:#ffffff;}</style></defs><title>Kaffa_Logo</title><path class="cls-1" d="M283.07,368.6a.19.19,0,0,1,.19.17.19.19,0,0,1-.15.21,24.11,24.11,0,0,1-3.77.29,29.38,29.38,0,0,1-4.49-.36,3.61,3.61,0,0,0-.28,1.52h44.66a10.06,10.06,0,0,0-.41-2.35c-.35-1-2.24-1.74-2.24-1.74a6.71,6.71,0,0,1-.38-4.43c.7-2.13.9-5.13-1.7-8.77-2.31-3.24-13.08-2.55-13.08-2.55a17,17,0,0,1,1.05-4,39.43,39.43,0,0,1,2.9-4.77h-4l-3.75-2.67-3.28,2.34.85,0c.75,0,1.53.05,2.3.11a.2.2,0,0,1,.19.2.21.21,0,0,1-.19.21c-.41,0-.81.06-1.22.06a22.58,22.58,0,0,1-3.15-.27h-3.27s.32.54.92,1.72l.84.05a39.85,39.85,0,0,1,4.08.35.16.16,0,0,1,.14.17.17.17,0,0,1-.16.16h-.28c-1.27,0-2.55-.12-3.79-.23l-.61-.06c.1.21.21.42.32.66s.37.73.58,1.17l.84.1c.88.1,1.79.2,2.68.34a.18.18,0,0,1,0,.35h0c-.9-.08-1.81-.2-2.68-.31l-.62-.08c.18.37.35.78.51,1.2h0a16,16,0,0,0,2.05.15c.45,0,.92,0,1.39.06a.15.15,0,0,1,.13.14.16.16,0,0,1-.11.15,5.85,5.85,0,0,1-1.26.12,13,13,0,0,1-2.06-.2,12.9,12.9,0,0,1,.38,1.33h.1a26.4,26.4,0,0,1,2.66.18.16.16,0,0,1,.15.19.18.18,0,0,1-.18.18h-.21c-.81,0-1.63-.07-2.43-.14h0a9.15,9.15,0,0,1,.16,2.3l.51,0a5.46,5.46,0,0,0,.57,0,3.69,3.69,0,0,1,.88,0,.15.15,0,0,1,.13.12.16.16,0,0,1-.07.18,2.61,2.61,0,0,1-1.31.3,4.74,4.74,0,0,1-.75-.06,8,8,0,0,1-.34,1.55,16.1,16.1,0,0,1,2.69.05.17.17,0,0,1,.15.16.17.17,0,0,1-.15.17,11.32,11.32,0,0,1-1.43.08c-.47,0-.94,0-1.41,0a14.73,14.73,0,0,1-.71,1.58,22.13,22.13,0,0,1,3.36,0,.18.18,0,0,1,.17.18.18.18,0,0,1-.17.18,14.41,14.41,0,0,1-1.62.08c-.61,0-1.23,0-1.83-.05h-.13c-.3.58-.64,1.14-1,1.69l2.09-.06c1.35-.05,2.74-.1,4.11-.07a.2.2,0,0,1,.18.19.17.17,0,0,1-.15.18,26.59,26.59,0,0,1-3.69.23c-.93,0-1.87,0-2.79-.07-.44.66-.88,1.28-1.29,1.84l1.8-.11c2.34-.14,4.75-.29,7.13-.29h.08a.22.22,0,0,1,.22.21.22.22,0,0,1-.21.24,67.71,67.71,0,0,1-7.41.33h-1.88c-.53.69-1,1.26-1.31,1.64,2.2,0,4.12,0,6-.08.88,0,1.8-.09,2.68-.14a41.8,41.8,0,0,1,4.88-.13.2.2,0,0,1,.18.18.18.18,0,0,1-.15.19,34.37,34.37,0,0,1-6,.39l-1.26,0h-1.9c-1.56,0-3.12,0-4.66-.09l-.16.17s-4.51.07-7.07-1.75a59.66,59.66,0,0,1-4.83-3.9,10.16,10.16,0,0,0-3.57-.32,9.66,9.66,0,0,0-3.42.93,8,8,0,0,1,4.21,2.4c.42-.2.84-.39,1.27-.55a.16.16,0,0,1,.22.09.17.17,0,0,1-.07.23c-.37.19-.75.36-1.12.52a15,15,0,0,1,1,1.14c.47-.12.95-.24,1.41-.39a.22.22,0,0,1,.18.4,4.79,4.79,0,0,1-1.21.47c.24.33.46.65.65,1l.51-.16.47-.17a4.85,4.85,0,0,1,1.08-.34.16.16,0,0,1,.18.09.17.17,0,0,1,0,.19,4.35,4.35,0,0,1-1.94.8,11.37,11.37,0,0,1,.61,1.2c.49-.13,1-.28,1.47-.45l.23-.07a.21.21,0,0,1,.25.12.2.2,0,0,1-.09.27A6.15,6.15,0,0,1,276,365a7.33,7.33,0,0,1,.27.84,4.91,4.91,0,0,0,1.41-.48.19.19,0,0,1,.25.08.18.18,0,0,1-.06.24,3.78,3.78,0,0,1-1.52.56,5.28,5.28,0,0,1,.09.93c1.12.1,2.35.14,3.87.13a.22.22,0,0,1,.22.21.21.21,0,0,1-.2.23c-.54.05-1.1.08-1.67.08a23.17,23.17,0,0,1-2.43-.14,4.73,4.73,0,0,0-1.15.81l-.05.07A49.37,49.37,0,0,0,283.07,368.6Zm23.8-15.08a12.62,12.62,0,0,1,2.44.22c.1-.14.21-.29.3-.44l.09-.16a2.56,2.56,0,0,1,.22-.35.15.15,0,0,1,.27.12,1.79,1.79,0,0,1-.52.9,8.91,8.91,0,0,1,1.23.39l.6-.62a2.05,2.05,0,0,1,.52-.44.15.15,0,0,1,.18,0,.17.17,0,0,1,0,.19,2.08,2.08,0,0,1-.45.53l-.5.48c.19.1.37.2.54.31l.08-.05a4.34,4.34,0,0,1,1.47-.63.14.14,0,0,1,.17.09.16.16,0,0,1,0,.19,3.84,3.84,0,0,1-1.28.68,4.3,4.3,0,0,1,.58.54l.13,0a4.69,4.69,0,0,1,1.45-.3.16.16,0,0,1,.16.13.14.14,0,0,1-.07.17,4.18,4.18,0,0,1-1.38.41,3.56,3.56,0,0,1,.31.52l.64-.1a1.69,1.69,0,0,1,.71,0,.16.16,0,0,1,.13.15.18.18,0,0,1-.08.18,1.89,1.89,0,0,1-.69.17l-.53.06a3.57,3.57,0,0,1,.2.89,6.1,6.1,0,0,0,.72-.14l.44-.1a.17.17,0,0,1,.2.1.18.18,0,0,1-.06.22,2,2,0,0,1-1.22.34h-.06c0,.3,0,.59,0,.87l.48,0,.24,0a1.38,1.38,0,0,1,.7,0,.15.15,0,0,1,.11.12.18.18,0,0,1-.05.16,1.21,1.21,0,0,1-.75.23h-.78a6.65,6.65,0,0,1-.23,1.13,7.83,7.83,0,0,1,1.36-.13.19.19,0,0,1,.05.37,7.4,7.4,0,0,1-1.49.17h0a5.49,5.49,0,0,1-.65,1.25l.59.07.43,0a4.38,4.38,0,0,1,.88.09.14.14,0,0,1,.11.14.16.16,0,0,1-.12.15,3.39,3.39,0,0,1-.64.06,7.6,7.6,0,0,1-1.5-.19c-.16.18-.33.35-.51.52l-.11.09a4.75,4.75,0,0,0,.63.14l.32.05a2.28,2.28,0,0,1,.77.18.16.16,0,0,1,.09.17.16.16,0,0,1-.12.15,1,1,0,0,1-.34.05,3.42,3.42,0,0,1-.63-.09l-.11,0a8.24,8.24,0,0,1-1-.29c-.71.6-.35.24-.35.24s-7.47-1.84-8.49-4.1a10.46,10.46,0,0,1-1-3.56S301.64,353.52,306.87,353.52Z" transform="translate(-227.53 -339.1)"/><path class="cls-1" d="M308.21,372.71a7.13,7.13,0,0,1,2.68.17.21.21,0,0,1,.15.25.2.2,0,0,1-.2.17h0a20.35,20.35,0,0,0-2.74-.14l-.22.71a8.82,8.82,0,0,1,3.11.24.19.19,0,0,1,.13.2.17.17,0,0,1-.15.16,9.81,9.81,0,0,1-1.45.1c-.6,0-1.22,0-1.82-.09l-.28.93a13.43,13.43,0,0,1,3.1,0,.2.2,0,0,1,.17.2.21.21,0,0,1-.17.21,11.4,11.4,0,0,1-1.74.12c-.53,0-1,0-1.51-.07l-.26.88a8.31,8.31,0,0,1,3.17.52.22.22,0,0,1,.13.26.18.18,0,0,1-.18.14h0c-.35,0-.7-.1-1-.16s-.47-.09-.71-.12-.48-.06-.72-.08-.51,0-.76-.08l-.25.83-.33-1a.24.24,0,0,1,0-.1v0L304.59,372h-15.1l-.28.94a6.7,6.7,0,0,1,2.47.14.19.19,0,0,1,.14.21.2.2,0,0,1-.19.17h-.12c-.38,0-.77,0-1.14,0s-.86,0-1.3,0l-.33,1.11a5.31,5.31,0,0,1,2.21,0,.18.18,0,0,1,.13.19.18.18,0,0,1-.14.17,7.64,7.64,0,0,1-1.36.1h-1l-.23.77h0a10,10,0,0,1,2.55-.11.19.19,0,0,1,.17.19.21.21,0,0,1-.16.22,6.61,6.61,0,0,1-1.56.15l-1,0h-.18l-.29,1,.79,0,.8,0h.39a3,3,0,0,1,1.19.13.2.2,0,0,1,.14.2.2.2,0,0,1-.14.19,1.83,1.83,0,0,1-.74.13,5.67,5.67,0,0,1-.73-.06l-.25,0a10.85,10.85,0,0,1-1.57-.24l-.15.51-2-6.05h-11s.11.48.29,1.23a17,17,0,0,1,3.77.16.18.18,0,0,1,.15.2.19.19,0,0,1-.19.19h-.49c-1.05,0-2.1-.05-3.14-.1l.3,1.27a10.93,10.93,0,0,1,3.28,0,.19.19,0,0,1,.17.21.23.23,0,0,1-.21.23c-.63,0-1.45.1-2.31.1l-.81,0c.08.31.15.63.23,1a15.23,15.23,0,0,1,3.81-.1.18.18,0,0,1,.17.18.19.19,0,0,1-.17.19,24.35,24.35,0,0,1-3,.14h-.75c.1.43.2.86.3,1.27a10.42,10.42,0,0,1,3.63-.07.21.21,0,0,1,.17.21.24.24,0,0,1-.21.23,24,24,0,0,1-2.82.12h-.65l.37,1.55a11.4,11.4,0,0,1,3.95.11.2.2,0,0,1,0,.39h-.82c-.54,0-1.08,0-1.61,0s-.91,0-1.37,0c.13.5.23.92.3,1.19l.12.42a33.42,33.42,0,0,1,5.39.13.21.21,0,0,1,.19.21.21.21,0,0,1-.19.19q-.93.06-1.86.06c-1.05,0-2.1-.05-3.13-.1h-.24c.48,1.34,1.22,2.27,2.69,2.27h14.69l1.85-6.13,2,6.13h14.36c1.83,0,2.66-1.23,3.43-2.66S319.23,372,319.23,372H308.42Z" transform="translate(-227.53 -339.1)"/><path class="cls-1" d="M242.52,413.61l3.69-17c.09-.44.26-.6.69-.6s.49.13.49.32a3.28,3.28,0,0,1-.08.44L243,415.87a.71.71,0,0,1-.67.55h-.89c-.49,0-.64-.33-.75-.77l-3.32-16.78-3.5,17a.69.69,0,0,1-.66.55h-.9c-.49,0-.63-.33-.75-.77l-4-18.9a1.05,1.05,0,0,1,0-.25c0-.29.18-.51.61-.51h1.07c.46,0,.55.32.66.76l3.52,16.86,3.35-16.86c.09-.38.26-.76.7-.76h1.18c.46,0,.61.38.66.76Z" transform="translate(-227.53 -339.1)"/><path class="cls-1" d="M255.3,395.74c3.9,0,5.49,4.69,5.49,10.49s-2.22,10.46-5.72,10.46c-4.3,0-6.29-4.11-6.29-10.46S251.41,395.74,255.3,395.74Zm.18,19.7c2.36,0,4.07-4.06,4.07-9.18s-1.27-9.35-4.07-9.35c-2.34,0-4,4.25-4,9.35S253.14,415.44,255.48,415.44Z" transform="translate(-227.53 -339.1)"/><path class="cls-1" d="M276.15,415.65a.68.68,0,0,1-.73.77h-.86c-.49,0-.75-.39-.93-.77l-8.16-15.6v16c0,.22-.09.33-.29.33h-.64c-.2,0-.29-.11-.29-.33l0-19.34A.69.69,0,0,1,265,396h1c.47,0,.55.32.78.76l8.14,16.45V396.31c0-.21.09-.32.29-.32h.64c.2,0,.29.11.29.32Z" transform="translate(-227.53 -339.1)"/><path class="cls-1" d="M280.1,409.33v-6.07c0-4.47,2.63-7.27,7.3-7.27H289c.46,0,.67.3.67.76v18.9c0,.47-.21.77-.67.77h-.89a.69.69,0,0,1-.75-.77v-5.23h-4.91v5.23c0,.47-.2.77-.66.77h-.9a.69.69,0,0,1-.75-.77v-5.23h-.26c-.49,0-.81-.08-.81-.54s.32-.55.81-.55Zm2.31,0h4.91V397.84c0-.46-.2-.76-.67-.76-3,0-4.24,2.31-4.24,6.81Z" transform="translate(-227.53 -339.1)"/><path class="cls-1" d="M302,409.63h-1.82c-.49,0-.8-.08-.8-.54s.31-.55.8-.55h3.5c.49,0,.8.19.8.63V410c0,3.71-2,6.68-5.13,6.68-2.51,0-6.24-2.24-6.24-9.51,0-7.43,3.49-11.47,6.79-11.47,2.1,0,3.57,1.2,3.57,4.2,0,.46-.05.76-.54.76s-.61-.3-.61-.76c0-2.13-.9-2.94-2.34-2.94-2,0-4.21,3.67-4.21,10.08s2.19,8.44,4,8.44,2.65-2.75,2.65-5.42A.4.4,0,0,0,302,409.63Z" transform="translate(-227.53 -339.1)"/><path class="cls-1" d="M311.74,416.69c-3.09,0-4.39-2.64-4.39-5.89,0-.62.15-.92.64-.92s.52.3.52.95c0,2.73,1.38,4.61,2.91,4.61,1.73,0,2.74-1.83,2.74-3.71,0-5.56-6-6.05-6-10.84a4.94,4.94,0,0,1,4.62-5.18c2.51,0,3.29,1.48,3.29,4.47,0,.46-.06.76-.55.76s-.6-.3-.6-.76c0-2.12-.64-3.21-1.91-3.21s-2.28,1.41-2.28,2.86c0,4.44,6,5.53,6,10.81C316.73,414.24,314.57,416.69,311.74,416.69Z" transform="translate(-227.53 -339.1)"/><path class="cls-1" d="M322.36,408.9v5.61a.74.74,0,0,0,.75.82h4c.5,0,.81.05.81.51s-.31.58-.81.58H320.8a.69.69,0,0,1-.75-.77v-18.9c0-.46.21-.76.67-.76h5.86c.49,0,.81.11.81.57s-.32.52-.81.52H323c-.47,0-.67.3-.67.76v10h3.35c.49,0,.81.08.81.54s-.32.55-.81.55Z" transform="translate(-227.53 -339.1)"/><path class="cls-1" d="M338.87,409.63h-1.81c-.49,0-.81-.08-.81-.54s.32-.55.81-.55h3.49c.49,0,.81.19.81.63V410c0,3.71-2,6.68-5.14,6.68-2.51,0-6.24-2.24-6.24-9.51,0-7.43,3.5-11.47,6.79-11.47,2.1,0,3.58,1.2,3.58,4.2,0,.46-.06.76-.55.76s-.61-.3-.61-.76c0-2.13-.89-2.94-2.34-2.94-2,0-4.21,3.67-4.21,10.08s2.19,8.44,4,8.44,2.66-2.75,2.66-5.42C339.34,409.77,339.16,409.63,338.87,409.63Z" transform="translate(-227.53 -339.1)"/><path class="cls-1" d="M347.27,408.9v5.61a.74.74,0,0,0,.76.82h4c.49,0,.8.05.8.51s-.31.58-.8.58h-6.35a.69.69,0,0,1-.75-.77v-18.9c0-.46.2-.76.66-.76h5.86c.49,0,.81.11.81.57s-.32.52-.81.52h-3.55c-.46,0-.67.3-.67.76v10h3.35c.49,0,.81.08.81.54s-.32.55-.81.55Z" transform="translate(-227.53 -339.1)"/><path class="cls-1" d="M358.94,416.42h-1.85a.69.69,0,0,1-.75-.77v-18.9c0-.46.2-.76.66-.76h2.89c4.76,0,7,3.73,7,9.45C366.85,412.36,363.24,416.42,358.94,416.42Zm.89-19.34h-.52c-.46,0-.66.3-.66.76v16.67a.69.69,0,0,0,.75.76c2.65,0,4.94-3.4,4.94-9.89C364.34,400.32,363.47,397.08,359.83,397.08Z" transform="translate(-227.53 -339.1)"/><path class="cls-1" d="M279.48,438.7c0,.29-.11.47-.38.47h-.52a.41.41,0,0,1-.44-.47V427a.42.42,0,0,1,.44-.47h.52c.27,0,.38.19.38.47Zm4.63-.13a.88.88,0,0,1,.15.37c0,.13-.08.23-.27.23h-.74a.58.58,0,0,1-.57-.38l-2.51-4.24a1.15,1.15,0,0,1-.25-.62,1.64,1.64,0,0,1,.24-.69l2.91-6.46c.06-.14.11-.22.3-.22h.28c.07,0,.16,0,.16.1a.67.67,0,0,1-.05.19l-2.63,6a1.05,1.05,0,0,0-.13.38.51.51,0,0,0,.05.19Z" transform="translate(-227.53 -339.1)"/><path class="cls-1" d="M285.72,434.8v-3.75c0-2.76,1.53-4.49,4.26-4.49h.91c.27,0,.38.19.38.47V438.7c0,.29-.11.47-.38.47h-.52a.41.41,0,0,1-.44-.47v-3.23h-2.86v3.23c0,.29-.12.47-.39.47h-.52a.42.42,0,0,1-.44-.47v-3.23h-.15c-.28,0-.47-.05-.47-.33s.19-.34.47-.34Zm1.35,0h2.86v-7.1c0-.28-.12-.47-.39-.47-1.73,0-2.47,1.43-2.47,4.21Z" transform="translate(-227.53 -339.1)"/><path class="cls-1" d="M295.14,434.53v4.17c0,.29-.11.47-.38.47h-.53a.41.41,0,0,1-.43-.47V427c0-.28.12-.47.38-.47h3.75c.29,0,.48.07.48.35s-.19.32-.48.32h-2.4c-.27,0-.39.19-.39.47v6.16h2.12c.29,0,.47.05.47.34s-.18.33-.47.33Z" transform="translate(-227.53 -339.1)"/><path class="cls-1" d="M301.6,434.53v4.17c0,.29-.12.47-.39.47h-.52a.41.41,0,0,1-.43-.47V427c0-.28.11-.47.38-.47h3.75c.29,0,.47.07.47.35s-.18.32-.47.32H302c-.27,0-.39.19-.39.47v6.16h2.12c.29,0,.47.05.47.34s-.18.33-.47.33Z" transform="translate(-227.53 -339.1)"/><path class="cls-1" d="M306,434.8v-3.75c0-2.76,1.53-4.49,4.26-4.49h.9c.27,0,.39.19.39.47V438.7c0,.29-.12.47-.39.47h-.52a.41.41,0,0,1-.43-.47v-3.23h-2.86v3.23c0,.29-.12.47-.39.47h-.52a.41.41,0,0,1-.44-.47v-3.23h-.15c-.29,0-.47-.05-.47-.33s.18-.34.47-.34Zm1.35,0h2.86v-7.1c0-.28-.12-.47-.39-.47-1.73,0-2.47,1.43-2.47,4.21Z" transform="translate(-227.53 -339.1)"/><path class="cls-1" d="M229.43,424.05c11.1.52,22.61-1.31,33.73-1.77s22.52-.71,33.79-.71q16.4,0,32.77.65c11.58.46,23.19,1.81,34.76,2.07.56,0,.72-.92.14-1-10.78-1.46-22-1.54-32.85-2q-17.4-.68-34.82-.62-16.9,0-33.79.78c-11,.47-22.94.16-33.74,2.47-.06,0,0,.09,0,.09Z" transform="translate(-227.53 -339.1)"/><path class="cls-2" d="M322.94,383.56a.79.79,0,0,1-.34-.29,4.25,4.25,0,0,1-.34-.52,1.86,1.86,0,0,0-.3-.47q-.15-.21-.3-.21h0c-.2,0-.29,0-.29.05a5.79,5.79,0,0,0,.1.92,1.13,1.13,0,0,0,.12.44l-.1.07h-.19l-.1,0c-.14-1.28-.21-2.16-.21-2.62a.19.19,0,0,1,0-.08.13.13,0,0,1,.09-.05.36.36,0,0,1,.18,0,4.32,4.32,0,0,1,1.06.1c.27.07.41.17.41.3v.31c0,.05-.06.12-.16.21a3.27,3.27,0,0,1-.36.25l-.17.1c.09.14.28.4.56.77s.44.56.47.58l0,0,.08.05c.06,0,.09.07.09.1s0,.06-.14.06Zm-1.09-1.68a.87.87,0,0,0,.31-.2.75.75,0,0,0,.21-.41.24.24,0,0,0,0-.15.34.34,0,0,0-.11-.14,1.19,1.19,0,0,0-.74-.14.15.15,0,0,0-.1,0,.09.09,0,0,0,0,.07,3.89,3.89,0,0,0,0,.51c0,.15,0,.32,0,.5h0A1.06,1.06,0,0,0,321.85,381.88Z" transform="translate(-227.53 -339.1)"/><path class="cls-2" d="M321.83,379.64a2.75,2.75,0,0,0-2.57,2.57c-.26,1.49,1.16,2.36,2.57,2.57a2.4,2.4,0,0,0,2.57-2.57C324.19,380,323.12,379.64,321.83,379.64Zm0,4.76a2.19,2.19,0,0,1,0-4.38c1.21,0,2.19.22,2.19,2.19A2.19,2.19,0,0,1,321.83,384.4Z" transform="translate(-227.53 -339.1)"/></svg>