<svg id="Layer_1" data-name="Layer 1" xmlns="http://www.w3.org/2000/svg" viewBox="0 0 55.98 45.92"><defs><style>.cls-1{fill:#ffffff;}.cls-2{fill:#ffffff;}</style></defs><title>Kaffa_Logo_Only</title><path class="cls-1" d="M292.47,402.6a.17.17,0,0,1,.19.17.17.17,0,0,1-.14.2,23.12,23.12,0,0,1-3.77.3,29.45,29.45,0,0,1-4.5-.37,3.81,3.81,0,0,0-.28,1.52h44.66a9.5,9.5,0,0,0-.41-2.35c-.35-1-2.24-1.74-2.24-1.74a6.69,6.69,0,0,1-.38-4.42c.71-2.14.9-5.13-1.7-8.78-2.3-3.23-13.08-2.55-13.08-2.55a17.58,17.58,0,0,1,1.05-4.05,39.43,39.43,0,0,1,2.9-4.77h-4L307,373.09l-3.29,2.34.85,0c.76,0,1.54.05,2.3.1a.22.22,0,0,1,.2.2.2.2,0,0,1-.19.21,10.13,10.13,0,0,1-1.23.06,21.15,21.15,0,0,1-3.15-.27h-3.26s.32.55.91,1.73l.85,0a40.34,40.34,0,0,1,4.08.35.16.16,0,0,1,.13.17.16.16,0,0,1-.16.16h-.27c-1.27,0-2.56-.12-3.8-.24l-.6-.05c.1.2.2.42.32.65s.36.73.57,1.17l.84.1c.88.1,1.79.21,2.69.35a.15.15,0,0,1,.13.19.16.16,0,0,1-.16.15h0c-.89-.08-1.8-.2-2.68-.32l-.61-.07q.26.56.51,1.2h0a15.83,15.83,0,0,0,2,.15c.45,0,.91,0,1.38.07a.13.13,0,0,1,.13.14.16.16,0,0,1-.11.15,6.54,6.54,0,0,1-1.25.12,13.07,13.07,0,0,1-2.07-.2,12.71,12.71,0,0,1,.39,1.32h.09a23.93,23.93,0,0,1,2.67.17.18.18,0,0,1,.15.19.19.19,0,0,1-.19.18H305c-.81,0-1.63-.07-2.42-.14h0a9.76,9.76,0,0,1,.17,2.31l.51,0a5.27,5.27,0,0,0,.56,0,3.78,3.78,0,0,1,.89,0,.17.17,0,0,1,.13.13.16.16,0,0,1-.08.17,2.55,2.55,0,0,1-1.3.31,4.88,4.88,0,0,1-.76-.07,8.25,8.25,0,0,1-.34,1.56,16.08,16.08,0,0,1,2.69,0,.17.17,0,0,1,0,.34,11.32,11.32,0,0,1-1.43.08c-.47,0-.94,0-1.4,0-.2.52-.45,1-.71,1.58a22.16,22.16,0,0,1,3.36,0,.18.18,0,0,1,0,.36,14.53,14.53,0,0,1-1.62.08c-.62,0-1.23,0-1.84,0h-.12c-.31.57-.65,1.14-1,1.68.7,0,1.4,0,2.09-.06,1.35-.05,2.74-.1,4.1-.06a.18.18,0,0,1,.18.18.16.16,0,0,1-.15.19,26.5,26.5,0,0,1-3.69.22c-.93,0-1.86,0-2.79-.07-.43.67-.87,1.29-1.28,1.84l1.79-.1c2.34-.15,4.76-.29,7.13-.29h.08a.21.21,0,0,1,.22.2.22.22,0,0,1-.2.24,68,68,0,0,1-7.42.33h-1.88c-.53.7-1,1.27-1.31,1.65,2.2,0,4.13,0,5.95-.09.89,0,1.8-.08,2.68-.14a41.85,41.85,0,0,1,4.88-.12.18.18,0,0,1,.18.18.18.18,0,0,1-.14.19,35.55,35.55,0,0,1-6,.39h-3.16c-1.55,0-3.11,0-4.66-.09a2.21,2.21,0,0,0-.15.18s-4.52.06-7.08-1.76a56.19,56.19,0,0,1-4.82-3.9,10,10,0,0,0-3.57-.31,9.45,9.45,0,0,0-3.42.92,8,8,0,0,1,4.2,2.4c.42-.19.85-.38,1.28-.55a.18.18,0,0,1,.22.1.18.18,0,0,1-.08.23c-.37.18-.74.35-1.12.51.33.34.67.72,1,1.14.48-.11.95-.24,1.42-.39a.21.21,0,0,1,.26.13.21.21,0,0,1-.09.28,5.2,5.2,0,0,1-1.21.47c.25.33.47.64.66.94.17,0,.34-.1.5-.15l.47-.18a6.77,6.77,0,0,1,1.08-.34.17.17,0,0,1,.18.1.16.16,0,0,1,0,.19,4.47,4.47,0,0,1-1.94.8c.25.43.45.83.62,1.2.49-.13,1-.29,1.47-.45l.22-.07a.2.2,0,0,1,.26.12.22.22,0,0,1-.09.27,6,6,0,0,1-1.68.57,8.56,8.56,0,0,1,.26.84,5.26,5.26,0,0,0,1.42-.47.17.17,0,0,1,.24.07.18.18,0,0,1-.06.25,3.89,3.89,0,0,1-1.51.56,4.3,4.3,0,0,1,.08.92c1.13.1,2.36.15,3.88.14a.2.2,0,0,1,.21.2.23.23,0,0,1-.2.24c-.54.05-1.09.07-1.67.07a23,23,0,0,1-2.42-.14,4.74,4.74,0,0,0-1.15.82l-.06.06A50.43,50.43,0,0,0,292.47,402.6Zm23.81-15.08a12.68,12.68,0,0,1,2.44.21c.1-.14.2-.28.29-.43l.1-.17a3.13,3.13,0,0,1,.21-.34.18.18,0,0,1,.19-.06.17.17,0,0,1,.09.17,1.82,1.82,0,0,1-.52.91,7.73,7.73,0,0,1,1.23.39l.59-.62a2,2,0,0,1,.52-.44.16.16,0,0,1,.21.21,1.92,1.92,0,0,1-.44.53l-.51.49a4.52,4.52,0,0,1,.54.3l.08,0a4.25,4.25,0,0,1,1.47-.64.18.18,0,0,1,.18.09.17.17,0,0,1,0,.19,4.1,4.1,0,0,1-1.29.69,3.78,3.78,0,0,1,.58.54l.14-.05a4.63,4.63,0,0,1,1.45-.3.2.2,0,0,1,.16.13.17.17,0,0,1-.08.18,4.37,4.37,0,0,1-1.37.41,4,4,0,0,1,.31.52l.64-.11a1.82,1.82,0,0,1,.7,0,.19.19,0,0,1,.14.15.18.18,0,0,1-.09.18,1.71,1.71,0,0,1-.69.17l-.52.07a4,4,0,0,1,.19.88,6.26,6.26,0,0,0,.73-.14l.44-.1a.18.18,0,0,1,.14.32,2,2,0,0,1-1.22.34h-.07a8.12,8.12,0,0,1,0,.86,3.75,3.75,0,0,0,.48,0l.24,0a1.39,1.39,0,0,1,.7,0,.2.2,0,0,1,.12.13.17.17,0,0,1-.05.15,1.12,1.12,0,0,1-.76.23h-.08l-.39,0h-.3a8.07,8.07,0,0,1-.23,1.13,7.84,7.84,0,0,1,1.36-.14.2.2,0,0,1,.18.18.19.19,0,0,1-.14.2,9.06,9.06,0,0,1-1.48.17h-.06a5,5,0,0,1-.65,1.26l.59.06.44,0a5.21,5.21,0,0,1,.87.08.16.16,0,0,1,.12.15.14.14,0,0,1-.12.14,2.81,2.81,0,0,1-.65.06,7.7,7.7,0,0,1-1.5-.19,4.16,4.16,0,0,1-.51.52l-.1.1.62.14.33,0a2.08,2.08,0,0,1,.77.19.17.17,0,0,1,.09.16.18.18,0,0,1-.13.16,1.26,1.26,0,0,1-.33.05,2.59,2.59,0,0,1-.63-.1l-.12,0a7.1,7.1,0,0,1-1-.29c-.7.61-.34.25-.34.25s-7.48-1.84-8.49-4.11a10.36,10.36,0,0,1-1-3.56S311.05,387.52,316.28,387.52Z" transform="translate(-277.84 -373.09)"/><path class="cls-1" d="M317.62,406.7a7.31,7.31,0,0,1,2.67.17.22.22,0,0,1,.15.26.2.2,0,0,1-.2.17h0a18.72,18.72,0,0,0-2.74-.15l-.21.72a8.84,8.84,0,0,1,3.11.23.21.21,0,0,1,.13.2.18.18,0,0,1-.15.16,8.73,8.73,0,0,1-1.46.1c-.6,0-1.21,0-1.82-.08l-.28.92a14.14,14.14,0,0,1,3.11,0,.21.21,0,0,1,0,.4,11.57,11.57,0,0,1-1.74.12c-.54,0-1.05,0-1.51-.07l-.27.88a8.17,8.17,0,0,1,3.18.53.22.22,0,0,1,.13.25.2.2,0,0,1-.19.15h0l-1-.17-.72-.12-.72-.07c-.25,0-.51-.05-.76-.09l-.25.83-.32-1a.16.16,0,0,1-.05-.11v0L314,406H298.9l-.29,1a6.89,6.89,0,0,1,2.47.13.21.21,0,0,1,.14.22.2.2,0,0,1-.19.17h-.12l-1.14,0c-.42,0-.86,0-1.3,0l-.33,1.1a5.66,5.66,0,0,1,2.21,0,.18.18,0,0,1,.14.19.16.16,0,0,1-.15.17A6.75,6.75,0,0,1,299,409h-1l-.24.76h0a9.64,9.64,0,0,1,2.56-.11.19.19,0,0,1,.16.19.22.22,0,0,1-.15.22,6.75,6.75,0,0,1-1.57.15l-1,0h-.18l-.29,1,.79,0c.27,0,.53,0,.8,0h.39a3,3,0,0,1,1.19.14.2.2,0,0,1,.13.19.2.2,0,0,1-.13.2,2.09,2.09,0,0,1-.74.12,6,6,0,0,1-.74-.06l-.24,0a12.43,12.43,0,0,1-1.57-.24l-.15.5-2-6.05h-11l.29,1.24a16.42,16.42,0,0,1,3.77.15.2.2,0,0,1,0,.39h-.5c-1,0-2.1-.05-3.14-.11.09.39.2.82.3,1.28a10.6,10.6,0,0,1,3.28,0,.21.21,0,0,1,.18.21.25.25,0,0,1-.21.23c-.64.05-1.46.1-2.32.1-.26,0-.53,0-.8,0,.07.32.15.64.23,1a15.73,15.73,0,0,1,3.81-.11.19.19,0,0,1,.16.19.18.18,0,0,1-.16.18,22.72,22.72,0,0,1-3,.14h-.75c.1.42.21.85.31,1.27a10.39,10.39,0,0,1,3.62-.08.2.2,0,0,1,.17.22.24.24,0,0,1-.2.23c-.93.1-1.89.11-2.82.12h-.65c.13.55.25,1.07.37,1.54a11.65,11.65,0,0,1,4,.12.19.19,0,0,1,.14.2.19.19,0,0,1-.19.18l-.81,0c-.55,0-1.09,0-1.62,0l-1.36,0c.12.51.23.92.3,1.2l.12.41a35.88,35.88,0,0,1,5.39.13.22.22,0,0,1,.18.21.19.19,0,0,1-.19.19c-.61.05-1.23.06-1.85.06-1,0-2.11,0-3.14-.09h-.23c.48,1.34,1.22,2.28,2.68,2.28h14.7l1.84-6.13,2,6.13h14.36c1.83,0,2.66-1.24,3.43-2.66S328.63,406,328.63,406H317.82Z" transform="translate(-277.84 -373.09)"/><path class="cls-2" d="M332.34,417.56a1,1,0,0,1-.34-.29,3.41,3.41,0,0,1-.33-.53,2.05,2.05,0,0,0-.3-.47q-.17-.21-.3-.21h0c-.19,0-.29,0-.29.06a6.13,6.13,0,0,0,.11.91,1,1,0,0,0,.11.44l-.1.07h-.18l-.11,0c-.13-1.29-.2-2.16-.2-2.63,0,0,0-.06,0-.07a.18.18,0,0,1,.08-.06.42.42,0,0,1,.18,0,4.39,4.39,0,0,1,1.07.11c.27.07.4.17.4.3v.3c0,.05-.05.13-.16.21a2.31,2.31,0,0,1-.36.25l-.17.1c.1.15.29.4.57.77s.43.56.46.59l0,0,.09.05c.06,0,.09.07.09.1s-.05.06-.15.06Zm-1.09-1.68a.89.89,0,0,0,.31-.21.73.73,0,0,0,.21-.4.35.35,0,0,0,0-.16.42.42,0,0,0-.11-.13,1.19,1.19,0,0,0-.74-.15.14.14,0,0,0-.11,0,.1.1,0,0,0,0,.07,3.73,3.73,0,0,0,0,.5c0,.15,0,.32,0,.51h0A1.23,1.23,0,0,0,331.25,415.88Z" transform="translate(-277.84 -373.09)"/><path class="cls-2" d="M331.23,413.63a2.76,2.76,0,0,0-2.57,2.57c-.26,1.49,1.17,2.37,2.57,2.57a2.39,2.39,0,0,0,2.57-2.57C333.6,414,332.52,413.63,331.23,413.63Zm0,4.76a2.19,2.19,0,1,1,0-4.38c1.21,0,2.19.22,2.19,2.19A2.19,2.19,0,0,1,331.23,418.39Z" transform="translate(-277.84 -373.09)"/></svg>