<svg id="Layer_1" data-name="Layer 1" xmlns="http://www.w3.org/2000/svg" viewBox="0 0 743.41 743.52"><defs><style>.cls-1{fill:#f1e8e3;}</style></defs><title>section_2_bg_gear</title><g id="Layer_3" data-name="Layer 3"><path class="cls-1" d="M991.56,740.69c15.63-3.91,5.77-13.07,5-20.6l9.46-1.76c6.46,5.06-.76,22.45,16.75,15.82-2-4.38-4.31-7.35-4.45-10.42s2-6,3.13-9.07c1.75,2.38,3.84,4.6,5.11,7.21.77,1.6-.23,4,.43,5.7a74.9,74.9,0,0,0,4.45,8.46c1.76-3,4.68-5.78,5-8.87.52-5-.69-10.08-1.34-16.89l14.55,19.37c.71-6.67,1.41-13.35,2.14-20,.1-.85.41-1.68,1.85-7.41,5.73,10.08,9.59,16.9,13.46,23.71l4.12-.72.31-26.22,3.46-.44,13.28,18.78,4.84-2c-1.33-5.08-3-10.09-3.8-15.24-.34-2.29,1.25-4.87,2-7.32,2,1.29,4.52,2.23,6,4,1.11,1.33.33,4.34,1.5,5.48,2.1,2,5,3.26,7.64,4.82.22-2.79.6-5.57.64-8.35.07-5.1-.06-10.2-.11-15.78,11.13,1.76,12.17,21.29,25.41,9.41.1-6.79-19.9-10.26-2.42-18.45l15.8,15.86,5.08-4.14c-3.84-6.41-7.68-12.82-11.58-19.35,5.61-5.23,10.56-7.74,13.89,3.36,1.25,4.15,5.83,7.3,8.89,10.91l4.49-3.08c-2-5-4.43-10-6-15.2-1-3.52-.9-7.39-1.28-11.1,3.1,1.8,6.21,3.61,9.32,5.4l11.66,6.71c-.84-4.56-1.21-9.29-2.73-13.61-.8-2.28-3.6-3.87-6.37-6.64,16.84-10.6,13.45,15.13,25.83,11.21,10.58-10.68-7.79-13.33-7-24.64,3.75.86,7.47,1.19,10.72,2.58,4.25,1.82,8.12,4.47,12.16,6.76-1.62-4.88-3.15-9.81-4.92-14.64-.66-1.78-1.92-3.34-3.1-5.34l6.7-5.24,15.67,14.78,4.64-3L1221,606.29l1.62-3.82c4.23,1.8,8.36,3.91,12.73,5.3,2.75.87,5.85.66,8.8.94-.07-2.48.48-5.2-.34-7.41-1.88-5.09-4.43-9.94-6.71-14.89,5.45,1.9,10.88,3.84,16.35,5.64.69.22,1.63-.26,4.13-.72-2.31-7.92-4.55-15.55-6.78-23.17l4.7-2.06,16.82,12.38,3.93-2.26-14.56-27,3.89-2.42,19.23,7.61,3.26-4.12c-3.53-3.18-7.28-6.17-10.52-9.62-1.72-1.82-2.57-4.45-3.82-6.71,2.4-.67,4.78-1.81,7.19-1.9,4.83-.18,9.68.21,16.45.43l-16.8-17.2,3.21-3,23.56,2.51c-3.89-11.68-22.37-7.18-15.23-22.34l19.91,4.66,2-3.82-20.4-17.18,3-4c3.72.53,7.46,1.62,11.14,1.42,3.17-.17,6.27-1.82,9.4-2.81-2.38-2.23-4.41-5.17-7.22-6.49-3.6-1.68-7.83-2-11.79-3,0-1.74,0-3.48.07-5.22,5.1-.4,10.47-2,15.24-1,11.1,2.44,9.72-3.26,8.65-10.11l-18.87.92c-4.53-22.41,19.88-10.31,23.92-23.18L1305,418.22q.21-3,.44-5.91l27.55-1.93c.15-1.5.29-3,.43-4.49-5.8-1.87-11.74-3.43-17.36-5.74-3.09-1.27-5.64-3.82-8.44-5.79,3.52-1.66,6.88-4,10.58-4.82,5.23-1.15,10.72-1.15,16.1-1.65l.06-4.51c-5.26-.52-10.77-.27-15.7-1.81-3.4-1.07-6-4.61-8.94-7,3.09-2.3,6-4.94,9.36-6.72,1.3-.68,3.87,1.33,5.49.86,3.42-1,6.6-2.83,9.88-4.32-3.15-1.5-6.16-3.57-9.49-4.38-5.49-1.36-11.19-1.9-16.8-2.79.21-2.06.43-4.11.65-6.17,5-.35,10-.23,14.86-1.19,3.6-.72,6.92-2.84,10.37-4.33-3.47-1.1-7-3.26-10.41-3.11-13.24.55-14.21,0-13.89-11.46,5.64-5.51,18.3,1.34,20.77-12.55l-24.71,2-.57-4.13c5-.92,10-1.69,14.87-2.82,3.58-.82,7.06-2.11,9.85-3-7.07-14.14-23.31,9-28.61-10.41l22.6-7.68-1-4.59-26,1.28c-.61-1.09-1.23-2.18-1.84-3.28l23.67-14.46-2.26-4.15-27.73,1.64,25-14.71-1.38-3.47-24.29,4.52c-1.46-4-2.48-6.84-3.62-10,3.06-.57,5.28-.46,6.87-1.38,4.52-2.63,8.78-5.68,13.14-8.56-4.87-.07-9.75.08-14.6-.28-4.31-.33-8.57-1.21-12.85-1.85l.46-3.85,23.31-5.93c-2.6-3.78-4-7.74-5.72-7.91-3.37-.33-6.93,2-10.48,2.28-4.3.32-8.67-.36-13-.61,2.8-2.42,5.48-5,8.42-7.24,3.91-3,8-5.7,12-8.53l-1.66-4.62-31.51,7.69,18-26.68-3.8-2.7-18.18,12c-1.56-3-3.25-6.15-4.38-8.28l14.67-18.58-3.41-2.49L1246,168.42l-8.34-8.73c14.8-11.41,14.8-11.41,11.17-20.65-15.56,13-15.56,13-23.07,6.06l17.53-19.9-3.6-4-21.47,16.38c-10.75-12.59,17.36-17.69,6.78-30.69l-19.74,15.29-2.16-3.37q5.87-10.68,11.72-21.36l-4.53-3.12L1191,110.18l-2.83-3.62c1.85-2.83,4.22-5.46,5.43-8.54,1.8-4.53,2.79-9.38,4.12-14.1-3.43,2.84-6.91,5.61-10.25,8.55-1.08,1-1.55,2.86-2.72,3.4a73.25,73.25,0,0,1-8.55,2.85c0-2.86-.64-6,.32-8.53,2.11-5.56,5.06-10.81,7.66-16.19l-4.2-3.35-13.83,18.16-5-1c.52-4.83.89-9.68,1.59-14.48.68-4.64,1.69-9.24,2.55-13.86-3.31,3.31-7.6,6.1-9.73,10-3.87,7.17-7.37,12.09-15,4.67.21-8.94,15.38-15,4.36-26.52-4.72,7.92-9.19,15.41-13.66,22.89l-5.11-1.3c1.32-9.77,2.63-19.54,3.94-29.25-15.73-4.07-4.25,26-22.48,17.63,1.31-9.5,2.47-17.85,3.62-26.21l-5.07-1.06c-2.35,7.26-4.71,14.52-7.33,22.57l-11.69-4.1,7.34-25.87-5.69-2.27L1077,45.39l-8.63-3c2.29-8.83,4.37-16.87,6.46-24.92l-5-2.14L1057.72,40.2l-4.78-.4c-.09-5.24-.35-10.49-.21-15.73.12-4.65.69-9.3,1.26-16.34-12.58,7.67-2.07,27.34-22.11,27,1.06-9.55,1.89-17,2.71-24.37l-4.42-1.72c-1.89,4-5.21,7.94-5.37,12-.32,7.67-.86,12.74-8.77,8.38-.13-8.16-.23-15.2-.34-22.24l-5.26-.87c-2,5.74-4,11.48-5.65,16.43-2.29-5.61-4.79-11.73-7.28-17.85l-4.83,1.67q.58,10.77,1.16,21.55l-5.23,1.1c-1.51-6.57-2.81-13.2-4.65-19.68-.76-2.69-2.68-5.06-4.07-7.57-2,2.63-5.7,5.25-5.72,7.87,0,5.72,1.77,11.45,2.8,17-20.29,2.83-9.8-19.09-22-25.32,1.28,10.27,2.34,18.67,3.52,28.05C933.18,30,956.34,3.23,938.38,0c-.78,8.91-1.55,17.69-2.33,26.54-19.62,4.17-5.75-23.11-23.76-22,2.74,9.43,5.3,18.23,8.17,28.06-22.27,3.73-12.2-20.24-26.15-25.41l5.38,29.16c-13.11.49-14.79-8.88-17.89-17.25-.74-2-3.58-3.27-5.46-4.88-1,2.3-3.18,4.86-2.74,6.85,1.3,5.94,3.63,11.65,5.55,17.45l-3.41,2.22-17-24.36-4,2.44q3.51,11.19,7,22.38l-3.55,2.91L841.3,23c-.95.6-1.91,1.19-2.87,1.78q2.67,9.35,5.32,18.69l-4.6,2.85L822.66,27l-2.87,1.66q4.47,11.44,8.93,22.9c-7.28,5.08-7.28,5.08-22.37-14l-4.83.9c2.63,7.27,5.25,14.54,8.28,22.93-5.38,7.46-7.91,1.15-11.39-4.11-3-4.47-6.9-8.32-10.41-12.44l-3.81,3c4.14,7.17,8.27,14.35,12.46,21.62l-10.52,5.81L770.56,54.89l-4.76,3c2.63,4.47,5.9,8.7,7.72,13.47,1.74,4.59,2,9.75,2.9,14.66l-4.93,1c-4.55-4.88-8.82-10.06-13.76-14.52-2.41-2.17-6.05-3-9.14-4.45.77,3.19.76,6.88,2.47,9.44,3.43,5.11,7.81,9.6,11.76,14.31-9.11,8.37-10.47,8.51-17.46,1.74-2.75-2.67-5-5.92-8.08-8.15-1.88-1.38-4.83-1.32-7.31-1.91.18,2.64-.57,5.9.71,7.8,2.91,4.31,7.29,7.64,10.09,12,1.19,1.84-.09,5.25-.39,10.34-16-16.53-16-16.53-24.79-13.31l15.93,19.53-3,3.15L707,103.56c-8.11,16.17,9.5,19.35,11.45,30.6L695.3,118.7l-3.3,3.24,18.67,21c-13,5.08-18.55-19.3-33.93-7.77l24,17.46c-.7,1.19-1.41,2.38-2.11,3.58L671,141c-3.46,17.81,14.13,14.5,20.23,23.59-1.53,2-3.28,4.33-5.06,6.7L659.9,157.6l-3.45,5.13,22.15,18.33-1.24,4.08c-5.45-2-10.79-4.42-16.38-5.89-3.37-.89-7.14-.33-10.73-.42,2,2.83,3.48,6.3,6.11,8.35,3.8,3,8.42,4.92,12.69,7.3l-1.26,4.77-26.64-7c-5.85,16,25.4,8.61,16.29,26.7l-28.12-10.66q-1.4,2.9-2.81,5.8c4.84,2.89,9.73,5.7,14.49,8.71,4.3,2.72,8.45,5.66,12.67,8.49l-3,4.78c-5.7-2-11.58-3.66-17-6.16-10-4.54-9.86-4.75-13.21,2.89l24.38,14.73-2.51,4.1-28-7.35c-.46,1.59-.91,3.18-1.36,4.75l24.7,12.58c-9.23,17.08-23.68-11.07-32.89,4.91l27.14,14.22c-.34,1.07-.69,2.13-1,3.19l-28.68-4.87c-1.21,17.57,24.87,5.92,23.44,24.36-8-2.46-13.88-4.71-20-5.94-2.67-.55-5.77,1-8.67,1.54,2.12,2.48,3.79,5.78,6.49,7.23,3.74,2,8.66,1.92,12.31,4,3.19,1.86,5.41,5.47,10.19,10.56l-31.68-4.42c-.61,1.94-1.21,3.89-1.82,5.84l27.7,9.32c-6.57,2.79-12.43,2-18.29,2-3.26,0-6.53,1.22-9.79,1.89,3.15,2.35,6,5.37,9.53,6.9,6.27,2.73,12.94,4.56,19.44,6.76l-1.88,4c-4.67.22-9.47-.12-14,.86-2.68.59-4.91,3.25-7.34,5,2.56,1.23,5,2.85,7.71,3.63,5,1.44,10.25,2.39,15.39,3.55l-.81,3.71L591.75,371c-.24,1.59-.48,3.18-.71,4.77L620.68,383c-4.92,11-24.49-5.12-23.21,15.08l26.08-.5-.2,4.41-25.18,10.53c.53,2.18,1.07,4.35,1.6,6.53l23.4-2.88c.31.5,2.25,3.55,4.21,6.64L599,431.74l1.2,5.7,29.8-1.37q.15,2.87.29,5.73c-6.52,1.54-13.13,2.82-19.54,4.76-2.7.82-5,3-7.45,4.62,2.77,1.89,5.6,5.48,8.28,5.35,7.08-.35,14.08-2.3,22.67-3.9-1.77,14.25-12.7,8.77-18,12.59-2.58,1.88-4,5.34-5.94,8.08,3,.94,6,2.37,9.14,2.6,1.46.11,3.25-3.16,4.66-3,4.32.48,8.53,1.89,12.78,2.94-2.91,2.59-5.43,6.18-8.84,7.54-4.79,1.91-10.24,2.17-15.41,3.13v6.3l27.22-.65c.23.7.46,1.4.68,2.1l-21.78,10.89c.31,1.63.63,3.26,1,4.88,5.1-.95,10.54-1.08,15.23-3,9.25-3.82,12.87-1.78,11.07,8.72-2.37.57-4.72,1.11-7.06,1.71-5.91,1.54-14.88,2.79-6.75,10.65,2.37,2.29,12.09-2.85,19.81-5,5.32,13.32-10.26,8.88-16.17,16,7.86,15.55,16.13-.8,28.36-1-3.28,5.3-4.9,8.78-7.28,11.58-2.84,3.41-6.3,6.31-9.49,9.42,4.63-.44,9.3-.6,13.86-1.4,3.49-.61,6.83-2,10.24-3.08.26.82.52,1.63.79,2.45l-15.88,14.81,3.14,3.76,25.9-8.39c-2,12.55-20.2,10.16-13.36,24.55l20.11-9.51c.53,1.11,1.07,2.21,1.6,3.32L675,601.3c12.13,16.1,19.07-14.29,29.87-2.09l-17.06,17.31,3,4.29c4.65-2.17,9.22-4.52,14-6.46,3.57-1.46,7.37-2.38,11.06-3.54-4.06,9.65-19.58,8-12.13,22,9.94,1.67,14.72-19.37,26.79-6-6.4,6.08-19.13,8.26-10.72,22.83L740.17,635c-1,6.09-4.42,9.86-6.1,14.28-1.23,3.24-.15,7.33-.1,11,3.44-1.45,6.93-2.8,10.28-4.43.68-.32.59-2,1.27-2.52,2.91-2.09,6-4,9-5.92-.28,3.26.21,6.84-1,9.7-1.82,4.23-4.86,8-7.65,12.28,14.75,7.61,14-9.31,23.94-12.45l5.15,3.43L764.7,684.89l4.22,1.88L787.27,669l3.09,3.14q-5.86,10.78-11.74,21.53l4.67,3.62,21-19.49,2.47,3q-5.47,11.22-11,22.44l9.63,5.69,9.47-24.08c28,4-5.29,20.57,8.62,28.58,2.53-2.48,5.78-5.06,8.21-8.24s4-7,6-10.56l2.31,1.33q-3.06,12.12-6.13,24.25l4.33,1.09,15.25-20.88,5.14,1.32c-.52,3.72-1,7.44-1.55,11.16-.72,5-1.46,10.06-2.19,15.1,3.94-3.58,8.28-6.83,11.69-10.85,2.27-2.68,3.22-6.45,4.75-9.71,10.11,7.34-16.38,19.74,4.31,25.25l12.17-20.93,2.39,1.34q.24,11.1.49,22.19l5.41.79c1.36-4.77,2.22-9.77,4.29-14.22,1.14-2.45,4.32-4,6.58-5.9.85,2.28,2.32,4.53,2.42,6.85.18,4.61-.39,9.26-.64,13.89l4.1,2.08,13-21.88c1.38,19.83,1.38,19.83,12.27,24.2-.21-4.35-1-8.1-.37-11.62s2.59-6.83,4-10.23c1.94,3.28,4.76,6.34,5.6,9.88,1,4.28.32,9,.37,13.46l4.74,1c1.74-8.31,3.47-16.63,5.16-24.67,19.78-1.41,3.06,21.9,17.54,24.16,9.47-5-8.09-22.46,11.18-24.31C988.12,726.14,989.78,733.15,991.56,740.69Zm259.26-186.14L1203,608.72c-10.86-12.54-12.15-28.31-5.24-38.85C1210,551.22,1223.33,546.87,1250.82,554.55ZM1247,530.36c4.16.35,8.31.77,13.06,1.21-2.12,9.79-6.36,13-16.59,10.5-21.81-5.38-49.49,5-54.89,24.64-4,14.49,2.07,31.61,3.64,47.56.09.91.1,1.83.35,6.76-5.43-1.43-11.51-1.16-13.9-4-15.08-17.67-9.48-61.88,9.91-72.91C1206.39,534,1226.06,528.58,1247,530.36Zm26-23c-2.33,8-3.24,11.18-4.24,14.65-25.58-4.74-50.11-2.42-73.86,8-26.24,11.49-35.9,24.87-33.58,52.83,1.24,14.94,6.36,29.54,10.36,47.06l-13.51,10.71c-4.12-19.93-8.48-37.24-11.06-54.81-1.57-10.7-2-22.07-.13-32.69,3.44-20,20.81-36.71,40.74-38.94,27.28-3.07,54.77-4.45,85.34-6.8Zm6.81-13.06v4.6c-8.42.31-16.85.48-25.26,1-24.19,1.32-48.86.24-72.45,4.77-32.72,6.27-49.7,36.34-44,69.76,2.43,14.27,3.09,28.83,5.26,43.15a53.4,53.4,0,0,0,5.68,16.07c3.81,7.37,3.49,12.57-8,15.72-9.43-35.16-23.27-67.84-24.08-104.53-.65-29.26,28.88-53.37,52.51-54.19,34.15-1.19,68.39.66,102.59,1.39,2.6,0,5.19,1.47,7.81,2.27Zm5.94-24.72c-1,5.36-1.79,9.47-2.57,13.57-.24-1.44-.48-2.88-.73-4.32-40.43,1.3-81.25-.5-121.17,4.75-40.57,5.33-58.34,34.59-53.25,70.82,4.27,30.44,14.48,60,21.68,90.06,1.29,5.36.69,11.17,1,16.77l-6.78,1.11c-6-17-13.93-33.61-17.65-51.11a667.36,667.36,0,0,1-12-80.68c-2.43-27.78,19.47-55.31,47.4-58.74,47.5-5.83,95.25-8.7,144.13-2.22Zm-3-25.58c3,.42,5.1,6.31,7.62,9.68-3.83,1.69-7.67,4.85-11.5,4.86-32.28.13-64.57-1.07-96.82-.28-17,.42-34,3.71-50.92,6.27-25.66,3.87-48,38.75-47,61.31,1.86,40.63,7.83,80.52,24.21,118.28,3.2,7.37,4.52,15.55,7.14,24.87l-9.19,4.41c-2.28-5-5.48-9.85-6.84-15.22-8.44-33.26-18.64-66.29-23.87-100.09a182.18,182.18,0,0,1,2.4-66.6c7.59-33.59,48.36-47,78.93-49.07,25.6-1.75,51.3-2.82,76.94-2.8,16.44,0,32.81,2.1,49,4.39Zm-14.6-16.59v3.06c-9-.47-18-1.56-26.94-1.3-33.35,1-67.14-.6-99.91,4.44-35.86,5.51-77.22,26.37-75.49,76.28,1,29.15.12,58.74,5,87.27,4.26,24.64,15,48.26,24,71.91,3.93,10.37-2.06,12.44-10.64,17.08-3-8.66-6.14-15.93-8-23.52-5.3-21.54-12.49-43-14.54-64.87-4-43-16.63-85.84-3.62-129.62,4.51-15.17,24.14-33.6,39.9-36,18.89-2.84,37.72-6.38,56.38-10.48,19.07-4.18,37.34-5.21,56.87-.3,18.37,4.66,38,4.26,57.08,6.06Zm-199,250.25-54,10c-.6-1.37-1.21-2.74-1.82-4.1,13.44-8.72,29-12.4,44.88-14.47,3.78-.5,8,2.82,12.08,4.38ZM1059,642.22l3,16.25-49.81,13.69c-4.17-12.52-2.23-18.86,10.6-20.86,12-1.85,23.58-5.78,36.33-9.07Zm-50.8,3.9c-4.27-16.26,6-20.89,47.68-23.35l1.72,9.34Zm-3.76-20.31c-4.16-15.67,11.38-23.74,47.11-25.9l2.27,12.31Zm-8-22.1c-1.31-5.22-2.22-8.82-3.64-14.47,16.59-3.09,32.56-6.43,48.68-8.74,2.94-.42,6.47,3.39,9.73,5.25-.6,1.25-1.21,2.51-1.82,3.76Zm49.23-34.64L986,580.17c2.59-5.5,3.48-11.1,5.84-11.8,16.65-5,33.59-8.92,51.38-13.43Zm-62.93-7.75c-1.5-3.3-3.56-7.81-6.49-14.23L1040.46,528c6.69,14,2.48,18.8-9.87,21.08-15.75,2.94-31.25,7.92-47.73,12.24Zm66.9-108.26-7.12,36.22c-22.06,8.18-43.8,16.08-65.41,24.34-9.91,3.78-18.54,3.79-25.81-5-3-3.68-6.69-6.85-13.45-13.68,44.38,3.77,79.64-10.83,111.91-41.87ZM744.24,493.5,755,484.81c6.56,12.28,12.85,24.06,19.88,37.2l-10.26,7.66-20.33-36.22Zm-7.54,36c-4.23-8.38-7.31-17.33-10.91-26l4.39-3.88c16.71,2.55,14.89,22.48,26.76,29.1-10.18,13.83-13.62,13.9-20.24.77ZM763,478.89c27.46-3.93,22.55,21.73,36.85,30.51l-17.15,9.12C775.72,504.56,769.93,492.89,763,478.89Zm71.42,5.34c1.79,4-1.62,10.33-2.64,15.59l-5.26-.23-24.31-44.7L813.42,446c7.58,13.53,15.26,25.49,21,38.31Zm-2.55-54L863,485.89c-9.53,5-16.11,6.16-20.87-5.45-4.82-11.77-10.39-23.53-17.66-33.9-6-8.51-2.7-11.57,7.38-16.26Zm-15.19,69.86c-5.57,5-10.16,11.34-15.49-1-4.26-9.88-10.7-18.83-16.68-29.07l10.91-8.92Zm60.42-15.4c-2.46-.29-5.4-2.79-6.75-5.06-10.65-18-22-35.68-30.77-54.54-2.51-5.37,2.57-14.25,5.47-21.63,13.28,38.53,41,63.72,76.47,85.19-17.22-1.4-30.87-2.33-44.44-3.91ZM756.55,177.5l5,3.51c-1,19-19.88,27.4-29.2,41.42-1.21,1.82-7.45.38-13.67.48Zm-42.68,38.31c-11.83-4.52-15.34-10.34-4.06-21.1,10.28-9.82,18.93-21.26,28.19-31.82,13.07,4.79,9.86,12.09,3.23,20C732.07,193.81,723,204.81,713.87,215.81Zm51.66-19.4c2.85-3,10.8-1.11,16.41-1.47.74,2.22,1.47,4.45,2.2,6.67-8.58,9.87-17.93,19.2-25.54,29.74-7.41,10.26-13.56,8.43-21.35-.19,9.15-11.54,17.87-24,28.28-34.75Zm20.58,14.16c2.92-3,10.87-1.35,16.52-1.82l1,4.8c-12.33,15.17-24.63,30.34-37.54,46.26L756,247.11C765.9,234.81,775.18,221.89,786.11,210.57Zm21.45,12.52c1.81-2,6.64-1.24,10.06-1.75.43,3.39,2.52,8.07,1,10-11.16,14.16-23,27.78-34.73,41.63l-11.06-9.76C784.72,249.31,795.82,235.89,807.56,223.09Zm23.33,6.52,15.44,12.12c-14.52,15-28.68,30.26-43.86,44.43-1.66,1.55-9.24-3.13-15.13-5.31ZM852,247.05c2.26-2.32,9.48.11,14.41.34l1.11,4c-15.84,16.76-31.43,33.76-47.8,50-2.17,2.16-8.3.41-12.59.48-.21-1.6-.42-3.2-.64-4.81C821.58,280.29,836.3,263.18,852,247.05ZM872.43,258c3.81-3.69,12.21-2.72,18.51-3.89l1.11,3.07-62,65.3c-8.33-3.22-10.52-8.17-3-16.17,15.23-16.08,29.59-33,45.47-48.31ZM1088,134.7c-1.85,5-3.31,9-5,13.72l-47.63-18.15,4.68-13.22Zm-43.69-25.33,7.88-12.18L1099.83,115l-8.39,13.54Zm35.06,46c-1,4.57-1.82,8.35-2.86,13.14-13.81-4.47-26.88-8-39.31-13-7-2.83-14.67-7.59-5.43-16.91Zm-42,8a137.36,137.36,0,0,0,25.77,9.35c12.64,3,11,9.07,5,18.31l-51.53-18.88c3.56-11.8,10.39-13.65,20.76-8.8ZM1022.9,182c14.74,5.39,28.83,12.52,43.81,19.21-1.24,4.11-2.46,8.11-4.41,14.56l-56.47-22.48c-.17-14.11,8.94-14.28,17.07-11.31Zm-14.67,20.09c15.15,6,30.68,11.29,45.11,18.67,4.79,2.45,6.67,10.41,9.88,15.85l-5.54,3.82-67.78-28c1.73-12.18,8.4-14.28,18.33-10.36Zm-13.85,21.09c22,8.12,43.61,17.35,65.87,26.4-.79,4.82-1.51,9.24-2.22,13.53l-78.39-33.26c-.42-1.78-.83-3.55-1.25-5.33,5.37-.54,11.47-3,16-1.36Zm5.15,23.31c19.56,8.12,38.7,17.21,57.42,25.61,1.29,11.3,2.47,21.7,3.86,33.92-13.06-17.8-26.56-32.48-48-38.53-19.76-5.58-37.88-17.82-60.86-11,13-22.56,30.5-17.12,47.58-10Zm209.34,127.54c-.51,11.19-2.46,22.33-4,34.2l-11.1-1.11c.37-11.3.27-22.12,1.37-32.83.3-2.94,4.2-5.54,6.45-8.29,2.57,2.66,7.41,5.43,7.28,8Zm10.29-7.72,7.82.75q-.74,22-1.46,44l-6.85,7c-1.89-3.85-5.67-7.86-5.34-11.53,1.2-13.46,3.77-26.83,5.83-40.24Zm-34.69,35.54c-.16,2.56-5.47,4.84-8.41,7.25l-3.16-2.39c2-14.6,3.94-29.2,6.44-47.66,14.47,15.8,5.92,29.86,5.13,42.8Zm-16-36.64q-3.46,22-8.47,43.64c-.43,1.8-4.66,2.74-11,6.19,2.08-17.82,3.4-31.84,5.58-45.73.49-3.12,3.49-6.83,6.34-8.26,1.54-.74,7.75,3.08,7.57,4.2Zm-25.94,38.8c-.54,4-5.83,7.33-8.94,11l-6-3.22c1-17.71,2.1-35.42,3.17-53.41h15.38c-1.06,15.76-1.55,30.81-3.59,45.67Zm-20.27-33.41c-2.58,11.53-1.54,23.8-3.44,35.54-.75,4.63-5.12,8.7-7.84,13l-5.68-2.88c.6-21.85,1.2-43.69,1.83-66.43,12.75,1.79,18.24,6.94,15.15,20.81Zm-24.86,17.25c.41,8-.68,16.11-1.28,24.16-.17,2.29-.24,5.57-1.68,6.63-12.49,9.19-25.29,18-38,26.89,29.28-37.26,30.58-77.24,15.54-119.47a7.51,7.51,0,0,1,2.11.23c30,12.09,22.14,38.56,23.31,61.56ZM932.5,444l30.58,6L942,476.42C938.64,465,935.83,455.37,932.5,444Zm-5.32,35.6-31.41-26.72,24.05-8.39q4.81,15.92,9.62,31.8Zm56.76-35.47,24.89-8.43c-3,9.79-5,16.44-8.09,26.56Zm56.59-12.09-22.07-5.57c3.59-3.52,5.63-5.3,7.39-7.32s3.47-4.5,7.25-9.47Zm4.34-26.6,22-14.47,3,2.18-16.34,35.28Zm-24.39,37.88c4.09-3.39,13.28-.77,24.75-.83l-26.94,23.31-4.36-2.54c2-6.87,2-16.13,6.55-19.94Zm45.06-67-23.93,18.06c.19-11.61.33-19.71.49-29.47Zm-14.69-21.08,12.62-17,4.46,24.13Zm2.26-24L1036.91,350l-9.09-21ZM1029,363.71c5.94,33.06-9.23,63-60.79,74.29-28.77,6.29-61.32-21-67.6-56.3-5.6-31.46,18.4-62.53,53.33-69C994.79,304.56,1022.27,326.4,1029,363.71Zm-136,79,5.35-30.48c6.39,8.31,11.63,15.1,17.51,22.74Zm.73-91.77-14.53-20,23.8,1.54Zm75.61-86.83,41.93,14c-19.85,17.55-20.52,17.33-42-14Zm12.4,35.18-33.16,1.19L963,281.33c5.17,5,10.4,10,18.68,18ZM909,281.67l41-14.4C947.55,293.53,937.54,297.11,909,281.67Zm-12.18,36.07c-4,4.31-16.2,1.16-29.32,1.4l33.08-30.75c-1.14,12.69,1.07,24.21-3.72,29.35Zm14.63-18,23.53,4-23,16.58c-.15-6.88-.31-13.16-.49-20.53ZM994.87,303l22.65-13.13c-.11,10.42-.19,18-.28,27.3Zm34.17-14.3,3.53-1.89,23,32.21c-24-3.4-24-3.4-26.54-30.27ZM881.8,278.89c14-18.29,30.31-22.56,50.28-16.9-46,12.21-73,43-83.62,90.4-5.25-8.42-9.46-15.15-14.09-22.58C850.5,312.81,867.86,297.12,881.8,278.89Zm-16.91,50.37c13.48,22.17,13.48,22.17-9.43,47.72,3.46-17.46,6.21-31.42,9.43-47.7Zm20.05,34.33,3.92,1.24c.27,8.85.54,17.7.88,29l-19.29-12.78Zm4.35,40.53q-4.32,16.19-8.67,32.41l-5.08,1.22L854.73,394l3.89-3.29Zm66.41,76.23,15.62-24.46c8,4.6,13.72,7.73,19.25,11.22,2.95,1.86,5.5,4.33,8.23,6.53-3,2.7-5.75,7.2-9.14,7.79-10.67,1.85-21.6,2.24-32.43,3.19Zm83.67,21.08c4.46,12.69,2.23,18.45-10.25,21.11-15.85,3.37-31,9.81-46.89,13.24-5,1.08-11.13-3.29-16.74-5.17l1.14-5.41Zm255.69-82.11-14.61,1.27c.91-15.57.77-29.63,3.19-43.27.61-3.48,9.31-5.61,16.11-9.36-1.82,20-3.23,35.45-4.69,51.38Zm-20.89-48.84c-1,15.35-2,30.58-2.92,45.78l-19,.52c2.2-15.74,4.27-30.56,6.44-46Zm-25.23,4.88c3.57,9-4.64,34.6-14.61,41.28.88-17.78,1.62-32.66,2.54-51.27,5.37,4.29,10.63,6.39,12.07,10Zm4.26-166.44c-15.5.36-29.17-.8-33.12-14.4-1.84-6.31,5.6-15.3,9.9-25.65l23.22,40.07Zm-27.9-45.42c-2.38,2.89-5.1,5.28-6.67,8.24-4.82,9.09-16.36,15.77-8.24,29.26,8.58,14.24,21.24,17.5,36.44,18.72,6.72.54,13.09,5.09,19.61,7.82-.64,2.31-1.27,4.62-1.91,6.93-8.57-.52-17.23-.43-25.67-1.73-7.59-1.17-15-3.69-22.39-5.89-22.2-6.6-29.37-23.28-18.35-43.73,5.26-9.77,11.63-19,17.59-28.56Zm-18.9-27.61c-.43,5.6.65,11.86-1.56,16.67-6.56,14.3-16,27.47-21.33,42.14-5.74,15.85,1.65,31.53,18,37,19.81,6.58,40.78,9.79,61.22,14.58,3.9.92,7.67,2.39,11.5,3.6-.29,1.48-.57,3-.86,4.44-12.46,0-25,.71-37.38-.25-14.77-1.14-29.77-2.42-44-6-20.78-5.22-30.94-23.52-26.23-44.13,5.93-25.93,19.21-48.12,35.8-68.55Zm-12.65-9.46c-10.31,17.56-21.67,33.78-29.71,51.47s-13.58,35.53-5.52,56.18c8.84,22.65,27.8,26,46.7,28.28,24.66,3,49.76,2.57,76.48,6.16-3.93,2.62-7.91,7.55-11.79,7.49-30.85-.45-62.4,7.53-92.45-2.63-37.7-12.75-37.06-30.86-34-59.68,3.67-34.83,14.67-67,39.44-95.18ZM1174.9,111.2c-22.64,26-33.8,56.82-39.43,89.16-2.94,16.9-4.9,36,.21,51.73,8.85,27.24,34.76,35,61.09,35.89,29.4,1,58.91-.74,89.57-1.32l2.88,15.62c-20.94,1-41.16,3.09-61.31,2.68-19.1-.38-38.54-1.53-57.11-5.55-53.94-11.69-64.67-55.92-48-99.17,12.44-32.21,26.45-63.83,40.46-97.4Zm-22.66-5.12c-13.7,32.74-28.69,65-42,97.89-18.7,46.33,4.6,90.66,52.81,105.26,32.14,9.73,64.78,5.32,97.28,5.89,9.67.17,19.4-2,29.07-1.85,2.8.06,5.48,4.68,9.53,8.41-34.33,10.4-65.46,12.08-97.15,6.39-16.92-3-34.56-3.11-51-7.6-41.34-11.34-61.78-31.91-56.78-80.58,5-49.62,23-94.47,46.38-137.8,2.11-3.91,5.86-7,12-14,0,8.54,1.56,13.92-.14,18Zm-13.67-19.89c-7.47,13.77-15.81,27.15-22.23,41.37-12.92,28.62-25.8,57.41-29,89.1-1.52,15-3.19,30-3.68,45.09-1,31.13,16.19,52.34,43.48,62.17,23.27,8.38,48.84,12.1,73.73,14.25,31.12,2.69,62.6,1.67,95.51,2.27l3.56,19.32c-25-1-49.48-1.25-73.83-3.28-29.18-2.44-58.37-5.52-87.28-10-24.06-3.76-44.25-16.7-59.78-34.66-6-7-8.9-18.68-9.07-28.33-.91-53.12,9.2-104.29,32.66-152.55,6.94-14.27,14.26-28.39,22.14-42.17,1.74-3,6.64-4.31,10.08-6.4ZM1110,94.61c-1,12.38-6.45,15.06-16.9,10.28-9.54-4.36-19.82-7.21-29.07-12-3.12-1.63-4.1-7.26-6-11.06,3.74-.93,8-3.53,11.12-2.52C1082.62,83.72,1095.83,89.2,1110,94.61Zm12.9-17.49c-7.12,3.31-11.56,7.33-15.24,6.76-23-3.57-42.09-16.9-41.64-31.5ZM888.08,48c-2.09,8.13-3,13.06-4.65,17.7-2,5.44-4.66,10.63-7,15.92-5.84-3.18-12-5.85-17.39-9.7C855.41,69.3,853,65,847.92,59ZM829.66,67.12c1.25-1.65,2.5-3.31,3.76-5,3.86,2.14,8.16,3.78,11.52,6.53,7.76,6.37,14.51,14,22.69,19.79,10.14,7.11,18.93,3.21,22.58-8.7,2.39-7.81,4.53-15.71,7.4-23.35a26.35,26.35,0,0,1,8.65-11.58c-3.15,19-3.77,39.13-19.7,52.38-5,4.17-17.32,6.68-21.49,3.61C852,91.25,841.29,78.62,829.66,67.17Zm-13.94,3.52,4.5-1.44c9.91,10.85,18.76,23,30,32.28,20,16.61,30.78,20.26,42.58,7.2,8.93-9.9,14.53-23.23,19.77-35.78,4-9.57,5.1-20.31,7.58-30.93l13.34-.2C923,74.24,922,109.53,890.88,131.56c-2.53,1.79-8,2.63-10.26,1.16-14.35-9.13-28.62-18.5-42-28.93-7.45-5.8-13.62-13.45-19.44-21-2.46-3.07-2.4-8-3.46-12.15ZM789.86,88.89l13.35-11.08c15,16.51,29.11,33,44.35,48.36,6.09,6.15,14.16,11,22.19,14.51,18,7.89,38.81.17,46.18-18.13,9.64-23.88,17.16-48.58,26.12-72.74,1.68-4.55,5.8-8.22,8.79-12.3l5.28,3.38c-3.91,29.48-7.67,59-24.32,85.16-3,4.67-5.86,9.38-8.63,14.16-14.25,24.6-33.52,30.1-56.83,12.66-26.28-19.67-50.48-42-76.48-64ZM778,97.36c4.17.69,9.66-.06,12.29,2.3,19.1,17.15,37.56,35,56.34,52.48,14.27,13.29,31.77,19.69,51,21.45,12.18,1.12,19.32-7.16,26-15.77C947.14,127.67,960,93.5,964.19,55.89c.36-3.3.34-7.3,2.21-9.64,2.79-3.5,7.1-5.8,10.77-8.62,1.55,3.86,4.78,7.86,4.41,11.54-4.49,45.09-23.59,84.94-47.8,122.56-4.91,7.62-13.95,12.65-20.84,18.67-10.41-2.46-19.15-4.86-28-6.54-42.45-8-70.21-37-97.71-66.43-2.28-2.44-5.47-4.5-6.67-7.39C778.9,106.16,778.78,101.63,778,97.36Zm-16.7,11.06c26.15,23.08,50.71,47.12,77.83,67.9,20.17,15.46,45.18,22.46,71.23,22,14.13-.25,24.49-9.16,31.94-20.23,23.12-34.37,39.35-71.69,47.38-112.29,1.75-8.82,3.73-17.6,5.57-26.27,12.78-1,17.64,2.31,14.13,14.8-7.62,27.13-12.58,55.09-21.81,81.65a179.4,179.4,0,0,1-47,71.85c-10.31,9.72-22.31,11.33-36.44,9.1-49.65-7.82-89.53-32-123.06-67.93-6.07-6.5-14.21-11.07-20.74-17.21-14.33-13.47-14.14-13.65,1-23.37Zm-23.67,20.2c34.4,26.31,66.62,51.84,99.81,76.06,23,16.8,50.82,22.85,78.59,24.89,17.75,1.31,32.33-10.87,42.75-24.39,21.36-27.7,40.39-57.07,48.74-91.54,5-20.8,8.72-41.92,13.08-62.89a64.38,64.38,0,0,1,2.24-6.8c1.86-.14,3.25-.52,4.54-.32,29.57,4.65,33.46,13.16,19.55,39.41-11.26,21.25-20.83,43.38-32.25,64.55-9.42,17.46-20.44,34.07-30.77,51.06-5.48,9-10.14,18.72-16.64,27-18.76,23.81-43.28,26.85-71.66,20.52-30.33-6.78-55.9-22-80.41-39.36-26.57-18.87-52.5-38.63-78.53-58.24-12-9.1-5.84-15.93,1-19.95Zm-48.28,55.69c10.18-12,19.69-24.61,29.48-36.95l6.52,1.69c-.36,4.81,1,10.86-1.4,14.23-9.2,12.81-19.64,24.76-29.22,36.55-10.05-3.71-11.65-8.1-5.37-15.52ZM632,322.15c18,7.21,29.92,16.79,29.78,30.26-.15,14.77-10,27.33-29.95,31.91C631.89,364,631.94,344.42,632,322.15Zm3,71.74c23.36-6.14,37.58-22,35.45-45.5-1.7-18.65-19.16-27.51-37.53-35.85,3.11-3,5.07-6.42,7-6.39,13.13.18,42.59,26.46,46.1,40.49,5.31,21.25.06,32.48-24.21,48.52-7.83,5.17-16.85,8.57-26,13.14C635.45,402.74,635.24,398.66,635,393.89Zm.54,27a69.69,69.69,0,0,1,6-5.26c16.83-11.65,34.75-22,50.27-35.19,12.66-10.73,8.93-39.36-6.66-54.36-9.53-9.17-21.75-15.62-32.82-23.2-7.27-5-18-8.11-8.74-23.88,20.82,17.73,42.72,33.25,60.52,52.48,16.3,17.62,14.7,34.48.24,53.59-16.63,22-39.51,34-65.64,40.25Zm18.25,9.53c17.77-7.62,35.89-17.39,49.76-30.49,33.68-31.79,28-55.07,1.86-83-8.44-9-18.66-16.58-28.77-23.85s-20.9-13.19-32.16-20.19L650,262.24c9,4.89,18.63,8.1,25.53,14.32Q706.24,304.27,735,334c16.14,16.66,14.87,39,3.64,54.74-22.88,32-54.79,54.53-94.5,65.71-6.88-13.94-2.91-18.7,9.62-24.06ZM647.22,469c3.58-2.92,6.71-7.23,10.81-8.55,33.76-10.86,59.38-33.69,84.1-57.17,17.78-16.88,16.86-58.07.77-76.39-24.63-28-51-53.86-85.16-70.8-2.1-1-2.64-5.13-3.9-7.81l4.26-3.88c17.36,11.7,35.19,22.77,51.92,35.28,13.85,10.37,27.56,21.36,39.32,33.93,40.49,43.26,27.61,86-13.48,120.81-19.17,16.25-42.21,26.87-67.09,32.82-6.35,1.52-12.4,4.28-18.58,6.48Zm12.41,20.65a68.16,68.16,0,0,1-7,.29c-.76-1.43-1.53-2.85-2.29-4.27,5.75-3.13,11.19-8,17.29-9.07A163,163,0,0,0,746.76,439c25.39-22.28,46.9-51.2,35.68-87.56-5.9-19.13-18.53-38.53-33.47-52-23.88-21.58-52.14-38.46-78.71-57.09-7.65-5.37-7.92-5-2.64-19.61,20.61,14,41.57,26.08,59.88,41.27,24,19.9,46.29,41.88,68.54,63.73,14.85,14.6,15.76,45.39,6.67,64.14-15.45,31.84-42.17,50.33-71.93,66.77-22.85,12.57-44.58,27.13-71.16,31Zm-3.13,13.64c13.29-4.82,27.29-8.22,39.63-14.72,32.18-17,65.8-32,91.87-58.42,25.49-25.84,40.79-55.48,25.6-91.29-6.08-14.36-17-28-29-38.29-30.7-26.26-63.13-50.56-95.13-75.3-5.24-4.06-11.84-6.41-18.38-9.85L678.3,203c52.76,33.92,97.9,74.55,137.45,121,11.2,13.14,20.8,28,23.2,47.11,2.31,18.33-3.37,32.71-13.82,46-21.52,27.31-49.78,46.4-80.2,62.92-20.19,11-39.36,23.74-59.39,35-5.9,3.31-13.16,4.22-20.42,6.42ZM714.84,512c1.73.32,3.18.18,3.48.7,5.18,9,11,17.75,14.83,27.28,1.1,2.73-3.46,7.72-6.32,13.48-8.15-12.68-14.72-22.91-22.15-34.5Zm-21.54,8.39,5.73,2.62,17.84,33-7,4.06c-6.58-10.06-13.51-19.93-19.43-30.36C689.3,527.83,692.23,523.61,693.3,520.43Zm-26.72,8.72c7.07.6,12.51-.36,13.65,1.4,8,12.37,15,25.29,22.4,38l-4.07,2.26ZM803,666.25c12.29-15.36,25.39-24.84,43.26-26.36,7-.58,16.55,14.55,16,25.85-.42,7.94-2.36,15.82-3.91,25.56Zm66.18,21.56c.21-6.61,3.91-13.89,2.13-19.64-4-12.92-7.19-30.67-16.78-36.16-12.7-7.29-28.45,3.84-41,12.4-5.07,3.46-8.9,8.78-14.1,12-3.37,2.07-8.2,1.8-12.38,2.58-.6-2-1.21-4-1.81-6,15.27-12.42,30-25.6,45.92-37.11,33.06-23.85,45.2-7.41,50.17,25.62,2.66,17.68-2.78,36.61-4.57,55l-4.34,1.1c-1.16-3.33-3.37-6.61-3.27-9.84Zm18.65,11.47c.83-21.4,2.45-42.25,2-63-.17-8.26-4-16.78-7.66-24.52-6.74-14.4-29.48-20.62-43.28-10.84-21.1,15-41.11,31.47-62.9,48.34l-9-6.45c20.54-23.91,43.08-44,71.71-57,21.62-9.76,31.89-7,45,12.75,10.84,16.39,16.85,33.91,15.86,54-.83,16.63.25,33.34.5,51.33ZM910,663c-.63-25.09-2.85-49.49-18.44-71.33-11.65-16.32-21.73-21.37-42.17-17.37-28.28,5.52-48.38,23.79-69,41.3-7.71,6.53-14.34,14.29-22.07,22.1l-7.8-9.15c29-29.42,60.35-53.59,99-66.93,18.66-6.43,28.77-2.15,41.45,12.71,30.6,35.89,30.84,79.31,31,122.63,0,3.61-7.22,7.29-13.21,12.92C909.28,690.25,910.3,676.58,910,663Zm24,43.51c-2.23-27.59-2.88-54.81-7-81.47s-17.11-50.43-39.06-67.32c-21.36-16.43-43.23-7.93-62.68,4.46-25.51,16.24-49.57,34.72-74.52,51.86-3.6,2.47-8.7,2.81-13.11,4.13,1.32-4.25,1.3-10,4.17-12.52,27.14-24.19,55.19-47.31,90-60.27,33.62-12.52,58.74-14.26,79.84,12.48,9.54,12.1,15.71,27,22.46,41,8.4,17.52,15.19,87.24,11.19,107.4Zm24.91.56c-.65-8-2-16-1.79-23.92,1.15-46.9-9.51-90.55-36.13-129.55-13.68-20-33-28.24-57.84-24.35-50.67,8-90.43,35.55-126.29,69.48-9.19,8.69-13.41,7.31-19.09-2.79C759.38,557,807.08,528.66,864,517.34c32.75-6.53,62.88,11,78.49,40.47,19.48,36.82,24.58,77.27,32.86,116.91,2.21,10.55-.87,22.21-1.6,34.55Zm28.73-14.13c-7.85-47.25-9.56-96.61-35.12-138.87-11.13-18.39-24.67-39-48-43.52-18.12-3.49-38.67-4.26-56.17.7-25.71,7.27-50.45,19.29-74.15,32-22.31,12-42.72,27.39-65,41.94l-4-5.25c0-1-.23-1.71,0-1.89,7.53-5.77,14.46-12.72,22.77-17,36.78-19,73.33-38.53,111.21-55.09,25.76-11.26,54-14.19,81.42-4.54,21.79,7.68,35.15,25.3,43.09,45.6,10.63,27.17,18.59,55.37,28,83,7.45,22,14.65,43.9,10,67.73-.33,1.7,2.25,3.94,3.52,6-16.34,6.19-14.84,5.52-17.57-10.81Zm29.8,5,52.51-9.77c-17,11.52-35.35,9.47-51.37,18.8Z" transform="translate(-591.04 -0.03)"/><path class="cls-1" d="M995.62,322.23c-8.54-3.45-8.54-3.45-27,27.25-9.43-28.59-9.43-28.59-18.62-29.59,3.09,11.75,6.1,23.21,9.1,34.67a61.64,61.64,0,0,1-21-13.43c-9.56-8.85-12.57-9.13-17.73-.55l31.3,24.69c-15.18,6.47-30.35-8.58-45.32,5.78l29,6.65c-16.62,15.26-18.46,17.52-17.49,22.49l31.75-16.07c-7.25,13.23-13.11,23.93-19,34.63l4,2.84c14.3-8.22,17.84-26.7,32.63-38.35,2.21,12,3.43,22,6.11,31.59,1.19,4.25,5.34,7.67,8.15,11.47,1-4.72,3-9.44,2.91-14.14,0-5.47-1.79-10.92-2.74-16.06,11.9-1.17,15.23,17.54,30.79,7.46l-23.82-22.15c11.26-1.74,23.09,9.57,34.78-5.16l-44.77-7.76,33.55-17.93-2-6-29.31,6.79Z" transform="translate(-591.04 -0.03)"/></g></svg>