<svg id="Layer_1" data-name="Layer 1" xmlns="http://www.w3.org/2000/svg" xmlns:xlink="http://www.w3.org/1999/xlink" viewBox="0 0 1920 787.77"><defs><style>.cls-1{fill:url(#linear-gradient);}.cls-2{fill:#e4cfc6;}.cls-3{fill:#bba89c;}</style><linearGradient id="linear-gradient" x1="960" y1="2.23" x2="960" y2="722.08" gradientTransform="matrix(1, 0, 0, -1, -0.04, 790)" gradientUnits="userSpaceOnUse"><stop offset="0" stop-color="#e7dad3"/><stop offset="1" stop-color="#d6b29a"/></linearGradient></defs><title>section_2_bg_3</title><g id="Layer_2" data-name="Layer 2"><path class="cls-1" d="M1696.08,255.8c-85,18.34-172.87-6.88-246.56-18.35s-212.54,0-300.39,6.88S931,265,843.06,251.27s-223.88-4.59-286.23,4.59-153,2.3-274.87-4.59c-27.93-1.58-57.86-2.58-87.42-3.19-.81-1.35-1.71-2.78-2.61-4.59-2.76-5.51-4.72-7.47-4.72-7.47s-2-7.09-1.58-8.27,2-4.32,2-4.32l-2.75-4.72s-2.76,8.26-3.94,4.32c-.59-2,.49-4.82,1.87-7.77a62,62,0,0,0,3.64-8.36,22.53,22.53,0,0,1,14.16-15c8.66-3.15,10.63-9,13.38-12.19s7.87-10.63,9-14a38.76,38.76,0,0,1,5.51-11.21c2.85-3.93,15.72-7.85,21-9.43.22.11.43,0,.64-.19l.75-.22c.77-.23,1.63-.43,2.55-.61.25.19.5.23.75-.14,3.6-.65,7.81-1,10.47-1.61,3.54-.79,6.3.39,7.48,1.57s11.41,2,15,2.76c2.15.48,6.34-1.81,9.29-3.67.79,1,1.81,2.52,2.83,1.75a16.47,16.47,0,0,1,2.94,1.54,8.63,8.63,0,0,0,1.33.9,1.68,1.68,0,0,1,2.15-1h0a1.72,1.72,0,0,1,.64.43c.82-1.58,1.76.21,2.73-.55a2.84,2.84,0,0,0,2.91-.53c.93,1.58,1.81-.16,2.53-.67.73.78,1.3.54,1.64-.14.51-1.46,1.3-1.63,2.2-1.21.44-1.89.92.15,1.4-1.44a13.6,13.6,0,0,1,1.49,1.24c.94-2,1.81.41,2.46-.23.64.4,1-.53,1-.84,0,0,.33.53.82-.69.5-.47,1.16-2.16,1.82-3,.66.77,1.32-.54,1.82-2.26s.82-.07.82-1.4v-4.48c0-.89-.66-1.11-1.67.67-1-.16-2.37-2.08-3.77-.67-.7,1.22-1.4.49-2.08.47-.68-.18-1.33,2-1.92-.62-1.16-1.36-2-.88-2.35.15-.61-.42-.77-4.33-1.51-1-.14-2.62-.14-1.49-.14-2.75-.32,0-.32,1.7-.32,1.6v-2.55c-.32-.72-.32,1.37-1,2.55a31.16,31.16,0,0,0-.12-3.35c-.12-1.28-.36-3.19-.84-3.35a19.92,19.92,0,0,1-.16,2.31c-.16,1.53-.48.53-1.12,1.84.32-1,.08-.45-.47-2.2-.56.31-1.44-1-2.4-1,.32-.2-.63,4.13-1.27,3.19a2.57,2.57,0,0,1-2.55-1.28c-.48.37-.8-4.65-1.6-3.19-.16,1.31-.57.38-1.17,2.76-.59.49-1.36,0-2.21,1.63-.86.71-1.81,1.38-2.76.34s-1.91-.64-2.78-.26c-.32.85-.24-1-.12-1.2.08-1.56.18-2.32.18-2.57a5.93,5.93,0,0,0,.29-2.17c0-1.52.12-1.82.6-1.72h.11c-.26,0-.66.16-.11,1.25,0,0,.06-.62.15-1.24.21.06.13,0,0,0a5.24,5.24,0,0,1,.33-1.46c.06-.69.12-1.28.17-1.75v-.64s.08-1.72.16-2.24.16-1.92.16-2.23c-.64.7.32,1.76-1,1.28-.39-.14-.54-1.35-.59-1.92v.12c-.59,1.36-1.32-4.36-2.05-2.67-.74-2.8-1.49-4.16-2.13-2.7-.64-2.51-1.18-.15-1.48-2.15-.31-1.2-.79-1.1-1.36-.92a1.41,1.41,0,0,1-1.9-.46c-1.32,1.43-2.64-.33-3.25,1.38-.31-1.56-.76-.22-1.45-1.84-1.35-.66-2.42-2-3.44-2-1-1.43-2-.62-3.08-1.79-1.12.28-2-1.54-2.79-1-.8,1.81-1.52-1.09-2.31-1.64-.32.38-.64-1.51-.94-2.56-.31-1.23-.6-1.75-.86-.67-.51-1.8-.89-2.66-1-2-.2,1-1-1.21-1.78-3.1-.76-2.08-1.47-3.09-1.47-2.19,0-1.1-.44,1.66-1.18-1.06-.74-1.56-1.78.54-3,.44-.6,1.25-1.24-.54-1.9-.83-.66.9-1.34-1-2,.1-.69.78-1.38-2.11-2.06-1.16-.68-.33-1.34-1-2,.82-1.27-.45-2.41,2.13-3.29-.33-.87.53-1.48,1.09-1.68,0-.31-1.51-.87-3.17-1.54-1.08C245.48,78.49,244.7,81,244,78c-.73-1.36-1.43-3.86-2-2-.51-.3-.84-1.87-.84-1.24,0,1.55-1.22-.5-2.6-1.68-.68-1.85-1.41-1.8-2-1-.63,2.72-1.16-2.59-1.46-.94-.61.66-1.94-2.4-3.26,0-.54,1-2.46,3.09-3.1.18-.31,1.93-.31,1.53-.63,1.28-1.39.08-3-2-4.67-2.32s-3.47-1.64-5.23-.26c-.88-.57-1.75.34-2.61.6s-1.68.53-2.48.7c-.64,1.33,0-1.93-1-1.28-.32,1.09-1,2.59-1.22.18-.5.79-1-.4-1.88.11-.91.16-1.83-2-2.51-1.22-.69,0-1.15-2.14-1.15-.41,0,1.24-.48-2-1.21.44-.72,2.09-1.69-1-2.65.58s-1.94.88-2.66.7c-.72-4.09-1.21-.1-1.21.32,0-1.65-1.32-1.09-2.74.66-.72-.3-1.45,1.64-2.06.86s-1.1.89-1.3,1.32c-.2-.12-.94,2.28-1.93.77-.5,0-1.06-1.48-1.64-.69-.59-.71-1.21-.17-1.82.69-.61-1.2-1.21-1.78-1.78-1.52-.56.7-1.08.9-1.52.28-.89-1.76-1.48.28-1.48.47,0,.93-1.63,2.27-3.25,0a2.56,2.56,0,0,0-3.26,0c0,2.08-1.32-1.61-2.64,0-.66-.2-1.32,1.25-1.82,1.3-.49,1.08-.82,1.13-.82-1.3a.78.78,0,0,1-1,.33.91.91,0,0,1-.24-.2c-.76-2.24-1.78-1.6-2.79-.13-1,.43-2-3.33-2.8.19-.76,0-1.27-.49-1.27-.19,0-.84-.23-1.28-.56-1.06-.33,1.32-.76,1.37-1.24,2.22s-1,.72-1.44,1.31A12.72,12.72,0,0,0,157.13,78c-.65.34-1.29,4.1-2.4,4a1.37,1.37,0,0,1,.08-.35c-1.17,2-2.12,3.42-3,3.34a16.54,16.54,0,0,0-2.55,5c0,.63-.32-1-.32-1,0,3.72,0,2.33-1.8,1.92-.87.11-1.93-.23-2.73.81-.8,2.06-1.33-1.58-1.33.39,0-1.18-.39-1.57-1-1.68a16.73,16.73,0,0,0-2.1.46c-1.52-3.1-3-2.25-3-1.22,0,2.08-.66,1.31-1.65.11-.49,1.41-1.07,1.6-1.69-.24-.62.49-1.28-2.72-1.94.13-1.32.23-2.65-.35-3.64,0-1-1.5-1.65-.55-1.65,0,0-.27-.51,1.7-1.27.8-.77-3.57-1.78-.64-2.8-.8-1-.32-2-1.14-2.8,0-.76-.94-1.27.78-1.27,0,0,0-.31.8-.84,1.82-.53-.1-1.27-.76-2.11-.77-.84,1.4-1.79,1.26-2.74.41-1,.59-1.9-.51-2.74,1.55-.85-1.32-1.59-2.5-2.11-1.12a17.7,17.7,0,0,1-.72,2.24c.16.45.48,1.31.9,0,.31.28.67-.2,1.06,1.79.38-1,.8,1.29,1.21,1.35a3.41,3.41,0,0,1,2.26,2.75c.62-1.92.75-1,.74.39-.2.77-.29,1.23-.61-.22-.51,1.7-1.19-1.65-1.94,1.3-.74.53-1.53,1.73-2.2,1.39-.68-1.53-1.24,1.11-1.55.49-.3-.84-1,.89-1.85,1.5-.44.91-.91,4.12-1.41,2.2-.49.38-1,1.57-1.52-.24-.51,1.69-1,2.59-1.48,1.87-.47,2.81-.91,4.41-1.29.16-.76,1.16-1.29-3.39-1.4,1.42a3.72,3.72,0,0,1-.55,2c-.25,3.71-.63,2.52-1,2.59-.35-.88-.69,1.07-.94,2.74-.24,1.49-.39.75-.41,2.55a11.34,11.34,0,0,0,.13,2.1c.09-.22.23,3,.43,2.43.2.52.46,3,.78,2.53.33-1,.73,1.63,1.21,1.85v-.32c.48-1,1,1.7,1.66,2.22.47,1.58.89.45,1.32,1.23.85-.23,1.69-2.1,2.52-.25.83-.56,1.66.08,2.49.74.83-1.54,1.66-1,2.5-.63.34,1,.67.88,1,.52a3.77,3.77,0,0,0-.23.64c-.62.66-1.25,0-1.9.36-.64,1.51-1.3,1.2-2,.68-.67.43-1.36,2.28-2,0-.69-2.82-1.38-.21-2.09,0-.7.65-1.41,1.77-2.13.11-1.06-.05-2.37-1.11-3.46.07-1.08.7-1.92-1.55-2.23.17-.12.58-.19.83-.21.91.08-.23.62-1.39,1.28,2.65.24-2.79.5-2.68.76-.18a8.1,8.1,0,0,1,.75,2.45c.47-.6.88,5.15,1.08,1.9.14.83.52-1.09,1.08,1.55.55,1.55,1.11-2,1.79,1.27.7.13,1.44,1.19,2.22,2.16.78,2.65,1.59.83,2.44,2.21.85,1.72,1.73.59,2.63.72.9,1.42,1.83.85,2.77,1.09.94,1.22,1.9.15,2.87.27a4.43,4.43,0,0,0,2.92-.48c1-.74,2-.41,2.94-.7s1.94-.62,2.9-1a17.61,17.61,0,0,0,2.83-1c.93-.76,1.83-.25,2.71-1.63.76-1,1.22-.14,1.22-.38,0,.11.36-.17.89.23.44.94,1-.9,1.59-2h.26a9.55,9.55,0,0,0,2,0l.09.26a.51.51,0,0,0,.5-.32c5.12-.66,10.36-4.64,14.74-4.31,5.11.4,3.93,5.9,3.54,13.77s6.69,11,11,16.13.79,12.59,5.12,21.25,5.9,14.56,4.72,20.85-3.15,8.66,0,20.07c1.14,4.12,1.45,9.74,1.39,15.23C82.46,246.27,0,248.27,0,248.27v539.5H1920V246.64S1781.1,237.5,1696.08,255.8ZM273.35,135.63a30.52,30.52,0,0,0,4.31-2.7,2.45,2.45,0,0,0,.94-.68h.07c.81.35,1.73,1.94,2.67,1a23.75,23.75,0,0,1,2.83,1.58c.9.77,1.74,0,2.42.46.67,0,1.19,1.4,1.47,1.37.4-.21,1-.89,1.76,1.24.73-.05,1.54-.66,2.3,1.92.08.36.16.66.24.93l-.13.07s-10.62,2-14.16-.79S271.38,136.42,273.35,135.63Zm-10.29-1.36c.15-3,.22-.71.22-2.25l1.13-3.07c.37.67.82,1,1.21,1,.47.25.85,1.66.88-.62,0,.86.63-1.26,1.51.11.88,1.68,2.05-1.92,3.21.57.61-.21,1.21.16,1.78.34a94,94,0,0,1-10.39,6A14.82,14.82,0,0,0,263.06,134.27Zm-7.71-15c.53-.38,1,.27,1.54,1.09a1.24,1.24,0,0,1-1-.52c-.32.63-.64.12-1-.41a3.47,3.47,0,0,0,.46-.13Zm-2.25-1c.09.22.17.39.25.55-.47.29-.94,1-1.42-.45l-.13-.07c.44-.22.88-.7,1.3,0ZM109.57,132.13c.42-.56.84-1.17,1.27-.28C110.43,132.7,110,131.89,109.57,132.13Zm99.25-6.34a9.23,9.23,0,0,1,1.26-5.16,8,8,0,0,0,1.93.45c1,.78,2.11.31,3.18,1.45,1.08,1.64,2.17,0,3.27.94,1.1-.71,2.21,0,3.33-.29,1.12-1.82,2.24.29,3.36-.92,1.12-.38,2.24-1.13,3.36-.29-1.28-.08-2,2.17-2.58,2-.57.79-1,1.68-1.73,2.81,0-.75-.52.38-1,2.64-.51,2.85-1,1.49-1,2.65,0,2.5.46.36,1.14,1.15.69-3.41,1.6,1.6,2.52,2.52a1.66,1.66,0,0,1,.59.27c-3.19,1.23-7.45,2.41-10.5,1.54-5.51-1.57-4.72.79-9.45,3.15s-7.9,11.43-7.9,11.43,2.36-8.27,2.75-10.23,5.11-7.85,5.11-7.85,2.76-5.48,2.36-8.23ZM199,117.93a20.18,20.18,0,0,1,2.1-3V115c.92-.52,1.88,2,2.19.93.88-1.75,1.79.23,2.74,2.3h.29l-.66.86v7.47s-7.87,11.41-7.48,9a42.5,42.5,0,0,0-.78-11.8C196.58,120.27,197.81,120.27,199,117.93Zm-1.18,47.8c2.36-3.34,3.54-10.43,3.54-12s5.51-6.69,8.26-9.84,8.26-2.75,11-2.75a43.5,43.5,0,0,0,8.85-1.46c0,2,.64,1.43,1.53-.23.91,2.61,2.13,2.14,3.35,0,.58,2.88,1.27,2.9,2,0,.7-1.24,1.42-.17,2.06.41.8,1.66,1.62.87,2.47.66l.33.39c-2.94,1-6.85,3.08-12.69,6.15-7.48,3.94-7.87,12.2-8.66,14.16s-13.38,16.53-14.16,17.71-8.26,11.41-11.41,7.08-2.76-6.29-2.76-10.62,4-6.32,6.32-9.66Zm-15.22-38.68c1,.82,1.94.33,2.8-2.31,1.74-2.62,3-1.87,3-2s.51,1.37,1.47-2.23c.4.57.87-.9,1.42-1.91a17.93,17.93,0,0,0,1.4,2.85c1.58,2.36,2.36,6.69,1.81,8.26s-1.81,10.23-.63,14.16.4,12.2,0,15.74-4.32,6.3-6.47,8.26-3.4,8.63-3.4,8.63-2.36-3.54-4.33-6.69,1.18-9.84-.79-13-1.18-9,2-11.81,3.54-7.86,2.76-10.23c-.47-1.38-1.47-4.66-2.38-7.78a2.52,2.52,0,0,1,1.28,0Zm-13.46-2-.09-.45c.34.29.67.58,1,.57.84.62,1.64.76,2.4,2,.47,1,1.35.86,2.34-.21,1,.46,2.09-.82,3-.49l.16-.08c.71,2,1.5,4.21,2.19,6.58,2,6.69,1.18,8.65-3.14,10.62s-2,12.54-2,12.54-3.54-5.11-3.93-9.84-3.94-9.83-3.94-11.8,2.79-5.94,2-9.48Zm-7.31-.52c1-.7,1.91-2,2.85-1.26.45,1.49.9,1.8,1.35,1.73.25,3.32-.39,6.47-1.22,4a11.8,11.8,0,0,0-3.24-4.26Zm-17.08,13.52-8.27,2.34H134c0-4.18.09-2.9.13-3.21,0-1.2.07-1.66.1-2.34a26.35,26.35,0,0,1,13.27,3.21Zm26,42.49c.4-6.69-.78-5.9-3.93-11s-3.94-7.08-8.66-10.23-2.75-6.69-2.75-10.63-3.54-10.18-5.11-12.58-5.51-4.33-10.24-4.73c-1.64-.13-3.78-.17-5.88-.17-.34-.91-1.09-1-1.85-.21a6.06,6.06,0,0,0-.83-2.25c.1-.07.2,0,.3.27.51.38,1-1.07,1.49-1.32a2.57,2.57,0,0,0,1.43-1.79c.45-1.14.89,1.66,1.29-1.44.82,1.23,1.94,2.25,3.16-1,.61-1,1.24-.74,1.88-1.06.63-1.67,1.27-4,1.88,0,.61.85,1.4.85,2.22-.44a6.36,6.36,0,0,1,2.41-.31c.56-.12.92,1.06,1.21,1.76.59.33.91.85,2,3.07.84,2,1.71,2,2.61-.22.89-4.14,1.82-.64,2.75-.53.51-.08,1-.73,1.53-1.14,3.3,1.82,3.75,6.21,5.6,9.9a43.81,43.81,0,0,1,3.93,11.41c.39,2.75,3.54,9.84,5.12,12.59s2.36,9,2.75,12.59,3.93,7.48,6.69,10.23,6.69,8.66,5.51,11-8.66,15-9,13-.4-7.87-4.11-11.41-3.8-6.8-3.41-13.45Z" transform="translate(0.04 0)"/></g><g id="Layer_1-2" data-name="Layer 1-2"><g id="_1" data-name=" 1"><path class="cls-2" d="M1683.17,18.58" transform="translate(0.04 0)"/><path class="cls-2" d="M1682.16,21.66c0,.82.16,1.38.2.63C1682.25,21.37,1682.16,21.12,1682.16,21.66Z" transform="translate(0.04 0)"/><path class="cls-2" d="M1806.64,8.58c0-.17,0-.09-.08,0S1806.64,8.66,1806.64,8.58Z" transform="translate(0.04 0)"/><path class="cls-2" d="M1775,0l.36.6C1775.18-.07,1775,0,1775,0Z" transform="translate(0.04 0)"/><path class="cls-2" d="M1814.36,25.77" transform="translate(0.04 0)"/><path class="cls-3" d="M95.26,237.66" transform="translate(0.04 0)"/><path class="cls-3" d="M107.08,211.41c0,.21,0,.22.13.07C107.13,211.27,107.08,211.15,107.08,211.41Z" transform="translate(0.04 0)"/><path class="cls-3" d="M297.74,231.58c0-.86-.14-.48-.31,1C297.5,233.66,297.74,232.77,297.74,231.58Z" transform="translate(0.04 0)"/><path class="cls-3" d="M296.19,226.77" transform="translate(0.04 0)"/><path class="cls-3" d="M155,199.3l.56-.92C155.53,198.27,155.26,198.21,155,199.3Z" transform="translate(0.04 0)"/></g></g></svg>