<svg id="Layer_1" data-name="Layer 1" xmlns="http://www.w3.org/2000/svg" viewBox="0 0 1920 787.77"><defs><style>.cls-1{fill:#e4cfc6;}.cls-2{fill:#ddbfae;}.cls-3{fill:#bba89c;}</style></defs><title>section_2_bg_2</title><g id="_1" data-name=" 1"><path class="cls-1" d="M1683.17,228.81" transform="translate(0 -210.23)"/><path class="cls-1" d="M1682.16,231.89c0,.82.16,1.38.2.63C1682.25,231.6,1682.16,231.35,1682.16,231.89Z" transform="translate(0 -210.23)"/><path class="cls-1" d="M1806.64,218.81c0-.17,0-.09-.08,0S1806.64,218.89,1806.64,218.81Z" transform="translate(0 -210.23)"/><path class="cls-1" d="M1775,210.26l.36.6C1775.18,210.16,1775,210.19,1775,210.26Z" transform="translate(0 -210.23)"/><path class="cls-1" d="M1814.36,236" transform="translate(0 -210.23)"/><path class="cls-2" d="M1920,998V399.59s-191.07-54.87-390.4,33.06S1098.09,544.72,983,541.81s-106.87-95.22-265.1-54.06-179.09-3-326.61,35.66S166.49,394.73,0,399.59V998Z" transform="translate(0 -210.23)"/><path class="cls-3" d="M95.26,447.89" transform="translate(0 -210.23)"/><path class="cls-3" d="M107.08,421.64c0,.21,0,.22.13.07C107.13,421.5,107.08,421.38,107.08,421.64Z" transform="translate(0 -210.23)"/><path class="cls-3" d="M297.74,441.81c0-.86-.14-.48-.31,1C297.5,443.89,297.74,443,297.74,441.81Z" transform="translate(0 -210.23)"/><path class="cls-3" d="M296.19,437" transform="translate(0 -210.23)"/><path class="cls-3" d="M155,409.53l.56-.92C155.53,408.5,155.26,408.44,155,409.53Z" transform="translate(0 -210.23)"/></g></svg>